EncodeSans-ExtraBold.ufo
<glyph name="exclam" format="2">
  <advance width="630.1113333333334"/>
  <unicode hex="0021"/>
  <outline>
    <contour>
      <point x="203.30166666666668" y="501.83200000000005" type="line"/>
      <point x="431.1113333333334" y="501.83200000000005" type="line"/>
      <point x="514.519" y="981.1953333333333" type="line"/>
      <point x="514.519" y="1480.0" type="line"/>
      <point x="115.59233333333331" y="1480.0" type="line"/>
      <point x="115.59233333333331" y="981.1953333333333" type="line"/>
    </contour>
    <contour>
      <point x="315.0556666666667" y="-18.603333333333335" type="curve" smooth="yes"/>
      <point x="460.31800000000004" y="-18.603333333333335"/>
      <point x="554.2843333333334" y="66.48033333333333"/>
      <point x="554.2843333333334" y="193.09466666666668" type="curve" smooth="yes"/>
      <point x="554.2843333333334" y="319.70900000000006"/>
      <point x="463.7593333333334" y="405.07200000000006"/>
      <point x="315.0556666666667" y="405.07200000000006" type="curve" smooth="yes"/>
      <point x="166.352" y="405.07200000000006"/>
      <point x="75.82699999999998" y="323.1503333333334"/>
      <point x="75.82699999999998" y="193.09466666666668" type="curve" smooth="yes"/>
      <point x="75.82699999999998" y="63.03900000000001"/>
      <point x="169.79333333333332" y="-18.603333333333335"/>
    </contour>
  </outline>
</glyph>
<glyph name="numbersign" format="2">
  <advance width="1288.888888888889"/>
  <unicode hex="0023"/>
  <outline>
    <contour>
      <point x="642.7575757575758" y="0.0" type="line"/>
      <point x="927.6969696969697" y="0.0" type="line"/>
      <point x="1081.6969696969697" y="1480.0" type="line"/>
      <point x="796.7575757575758" y="1480.0" type="line"/>
    </contour>
    <contour>
      <point x="100.0" y="370.3636363636364" type="line"/>
      <point x="1188.888888888889" y="370.3636363636364" type="line"/>
      <point x="1188.888888888889" y="651.010101010101" type="line"/>
      <point x="100.0" y="651.010101010101" type="line"/>
    </contour>
    <contour>
      <point x="207.19191919191917" y="0.0" type="line"/>
      <point x="492.13131313131316" y="0.0" type="line"/>
      <point x="646.1313131313132" y="1480.0" type="line"/>
      <point x="361.19191919191917" y="1480.0" type="line"/>
    </contour>
    <contour>
      <point x="100.0" y="828.989898989899" type="line"/>
      <point x="1188.888888888889" y="828.989898989899" type="line"/>
      <point x="1188.888888888889" y="1109.6363636363637" type="line"/>
      <point x="100.0" y="1109.6363636363637" type="line"/>
    </contour>
  </outline>
</glyph>
<glyph name="dollar" format="2">
  <advance width="1185.508"/>
  <unicode hex="0024"/>
  <outline>
    <contour>
      <point x="508.5473333333333" y="-19.720666666666666" type="curve" smooth="yes"/>
      <point x="906.5806666666667" y="-19.720666666666666"/>
      <point x="1137.5023333333334" y="159.99433333333334"/>
      <point x="1137.5023333333334" y="449.687" type="curve" smooth="yes"/>
      <point x="1137.5023333333334" y="681.6366666666667"/>
      <point x="1002.8766666666668" y="817.8433333333334"/>
      <point x="711.0666666666667" y="889.2846666666667" type="curve" smooth="yes"/>
      <point x="588.8433333333334" y="920.7706666666667" type="line" smooth="yes"/>
      <point x="460.94366666666673" y="955.1003333333333"/>
      <point x="428.00500000000005" y="988.62"/>
      <point x="428.00500000000005" y="1054.9163333333333" type="curve" smooth="yes"/>
      <point x="428.00500000000005" y="1134.8886666666667"/>
      <point x="493.89900000000006" y="1193.6876666666667"/>
      <point x="734.2286666666666" y="1193.6876666666667" type="curve" smooth="yes"/>
      <point x="838.2286666666666" y="1193.6876666666667"/>
      <point x="965.0386666666668" y="1177.9669999999999"/>
      <point x="1057.1336666666666" y="1152.71" type="curve"/>
      <point x="1057.1336666666666" y="1460.743" type="line"/>
      <point x="962.6923333333334" y="1483.8603333333333"/>
      <point x="837.6476666666667" y="1499.7206666666666"/>
      <point x="708.117" y="1499.7206666666666" type="curve" smooth="yes"/>
      <point x="261.6256666666667" y="1499.7206666666666"/>
      <point x="48.00566666666666" y="1326.771"/>
      <point x="48.00566666666666" y="1034.57" type="curve" smooth="yes"/>
      <point x="48.00566666666666" y="802.76"/>
      <point x="184.352" y="665.5533333333333"/>
      <point x="447.6983333333333" y="600.693" type="curve" smooth="yes"/>
      <point x="569.9216666666666" y="569.207" type="line" smooth="yes"/>
      <point x="718.7263333333333" y="530.2963333333333"/>
      <point x="757.5029999999999" y="494.7543333333333"/>
      <point x="757.5029999999999" y="423.458" type="curve" smooth="yes"/>
      <point x="757.5029999999999" y="338.94933333333336"/>
      <point x="696.7933333333333" y="286.3123333333334"/>
      <point x="502.22333333333336" y="286.3123333333334" type="curve" smooth="yes"/>
      <point x="383.73733333333337" y="286.3123333333334"/>
      <point x="212.95533333333333" y="310.19500000000005"/>
      <point x="88.095" y="348.75366666666673" type="curve"/>
      <point x="88.095" y="40.720666666666666" type="line"/>
      <point x="211.13966666666667" y="2.5810000000000004"/>
      <point x="365.1116666666667" y="-19.720666666666666"/>
    </contour>
    <contour>
      <point x="416.35766666666666" y="-240.0" type="line"/>
      <point x="769.4296666666667" y="-240.0" type="line"/>
      <point x="769.4296666666667" y="70.22333333333334" type="line"/>
      <point x="416.35766666666666" y="68.82666666666668" type="line"/>
    </contour>
    <contour>
      <point x="416.35766666666666" y="1428.3799999999999" type="line"/>
      <point x="769.4296666666667" y="1428.3799999999999" type="line"/>
      <point x="769.4296666666667" y="1720.0" type="line"/>
      <point x="416.35766666666666" y="1720.0" type="line"/>
    </contour>
  </outline>
</glyph>
<glyph name="percent" format="2">
  <advance width="2181.2323232323233"/>
  <unicode hex="0025"/>
  <note>
450
</note>
  <outline>
    <contour>
      <point x="604.89898989899" y="0.0" type="line"/>
      <point x="907.7171717171718" y="0.0" type="line"/>
      <point x="1576.3333333333335" y="1480.0" type="line"/>
      <point x="1273.5151515151515" y="1480.0" type="line"/>
    </contour>
    <contour>
      <point x="499.13131313131316" y="567.6969696969697" type="curve" smooth="yes"/>
      <point x="750.1111111111111" y="567.6969696969697"/>
      <point x="921.7575757575758" y="724.040404040404"/>
      <point x="921.7575757575758" y="1033.7070707070707" type="curve" smooth="yes"/>
      <point x="921.7575757575758" y="1343.3737373737374"/>
      <point x="750.5353535353536" y="1499.7171717171718"/>
      <point x="499.13131313131316" y="1499.7171717171718" type="curve" smooth="yes"/>
      <point x="247.72727272727272" y="1499.7171717171718"/>
      <point x="76.50505050505049" y="1343.3737373737374"/>
      <point x="76.50505050505049" y="1033.7070707070707" type="curve" smooth="yes"/>
      <point x="76.50505050505049" y="724.040404040404"/>
      <point x="248.15151515151516" y="567.6969696969697"/>
    </contour>
    <contour>
      <point x="499.13131313131316" y="798.1212121212121" type="curve" smooth="yes"/>
      <point x="423.24242424242425" y="798.1212121212121"/>
      <point x="368.4545454545455" y="856.0505050505051"/>
      <point x="368.4545454545455" y="1033.989898989899" type="curve" smooth="yes"/>
      <point x="368.4545454545455" y="1211.6464646464647"/>
      <point x="423.24242424242425" y="1269.2929292929293"/>
      <point x="499.13131313131316" y="1269.2929292929293" type="curve" smooth="yes"/>
      <point x="574.8787878787879" y="1269.2929292929293"/>
      <point x="629.8080808080808" y="1211.6464646464647"/>
      <point x="629.8080808080808" y="1033.4242424242425" type="curve" smooth="yes"/>
      <point x="629.8080808080808" y="855.4848484848485"/>
      <point x="574.8787878787879" y="798.1212121212121"/>
    </contour>
    <contour>
      <point x="1682.1010101010102" y="-18.0" type="curve" smooth="yes"/>
      <point x="1933.2222222222222" y="-18.0"/>
      <point x="2104.727272727273" y="138.34343434343435"/>
      <point x="2104.727272727273" y="448.01010101010104" type="curve" smooth="yes"/>
      <point x="2104.727272727273" y="757.6767676767677"/>
      <point x="1933.3636363636365" y="914.0202020202021"/>
      <point x="1682.1010101010102" y="914.0202020202021" type="curve" smooth="yes"/>
      <point x="1430.8383838383838" y="914.0202020202021"/>
      <point x="1259.4747474747473" y="757.6767676767677"/>
      <point x="1259.4747474747473" y="448.01010101010104" type="curve" smooth="yes"/>
      <point x="1259.4747474747473" y="138.34343434343435"/>
      <point x="1430.9797979797981" y="-18.0"/>
    </contour>
    <contour>
      <point x="1682.1010101010102" y="212.42424242424244" type="curve" smooth="yes"/>
      <point x="1606.3535353535353" y="212.42424242424244"/>
      <point x="1551.4242424242425" y="270.35353535353534"/>
      <point x="1551.4242424242425" y="448.2929292929293" type="curve" smooth="yes"/>
      <point x="1551.4242424242425" y="625.9494949494949"/>
      <point x="1606.3535353535353" y="683.5959595959596"/>
      <point x="1682.1010101010102" y="683.5959595959596" type="curve" smooth="yes"/>
      <point x="1757.848484848485" y="683.5959595959596"/>
      <point x="1812.7777777777778" y="625.9494949494949"/>
      <point x="1812.7777777777778" y="447.72727272727275" type="curve" smooth="yes"/>
      <point x="1812.7777777777778" y="269.7878787878788"/>
      <point x="1757.848484848485" y="212.42424242424244"/>
    </contour>
  </outline>
</glyph>
<glyph name="ampersand" format="2">
  <advance width="1640.48"/>
  <unicode hex="0026"/>
  <outline>
    <contour>
      <point x="1468.7093333333335" y="-20.0" type="line"/>
      <point x="1640.48" y="258.26766666666674" type="line"/>
      <point x="737.3406666666667" y="841.1560000000001" type="line" smooth="yes"/>
      <point x="639.8543333333333" y="907.5473333333333"/>
      <point x="604.642" y="956.3463333333333"/>
      <point x="604.642" y="1025.313" type="curve" smooth="yes"/>
      <point x="604.642" y="1128.0283333333332"/>
      <point x="675.1616666666667" y="1193.6876666666667"/>
      <point x="907.145" y="1193.6876666666667" type="curve" smooth="yes"/>
      <point x="986.8433333333334" y="1193.6876666666667"/>
      <point x="1078.05" y="1182.9669999999999"/>
      <point x="1147.307" y="1168.71" type="curve"/>
      <point x="1147.307" y="1476.743" type="line"/>
      <point x="1067.5416666666667" y="1490.4413333333334"/>
      <point x="980.7986666666667" y="1499.7206666666666"/>
      <point x="877.4523333333334" y="1499.7206666666666" type="curve" smooth="yes"/>
      <point x="434.84366666666665" y="1499.7206666666666"/>
      <point x="224.64266666666666" y="1322.7486666666666"/>
      <point x="224.64266666666666" y="1033.7766666666666" type="curve" smooth="yes"/>
      <point x="224.64266666666666" y="879.0056666666667"/>
      <point x="292.179" y="737.0783333333334"/>
      <point x="565.5699999999999" y="562.8883333333333" type="curve" smooth="yes"/>
    </contour>
    <contour>
      <point x="699.972" y="-18.0" type="curve" smooth="yes"/>
      <point x="1134.05" y="-18.0"/>
      <point x="1397.8766666666668" y="204.03900000000002"/>
      <point x="1397.8766666666668" y="640.1616666666667" type="curve" smooth="yes"/>
      <point x="1397.8766666666668" y="714.8153333333333"/>
      <point x="1386.5973333333334" y="804.212"/>
      <point x="1366.2006666666666" y="885.6086666666667" type="curve"/>
      <point x="1067.352" y="885.6086666666667" type="line"/>
      <point x="1087.8883333333333" y="804.212"/>
      <point x="1100.4470000000001" y="712.8153333333333"/>
      <point x="1100.4470000000001" y="636.7203333333333" type="curve" smooth="yes"/>
      <point x="1100.4470000000001" y="344.1616666666667"/>
      <point x="947.7933333333333" y="247.59733333333335"/>
      <point x="744.1283333333333" y="247.59733333333335" type="curve" smooth="yes"/>
      <point x="569.6196666666667" y="247.59733333333335"/>
      <point x="471.61400000000003" y="321.46900000000005"/>
      <point x="471.61400000000003" y="447.57533333333333" type="curve" smooth="yes"/>
      <point x="471.61400000000003" y="537.1676666666667"/>
      <point x="511.6196666666667" y="600.3856666666667"/>
      <point x="576.402" y="650.2963333333333" type="curve"/>
      <point x="380.961" y="790.7486666666666" type="line"/>
      <point x="221.028" y="739.3016666666666"/>
      <point x="93.33533333333332" y="600.324"/>
      <point x="93.33533333333332" y="405.4413333333333" type="curve" smooth="yes"/>
      <point x="93.33533333333332" y="148.838"/>
      <point x="298.028" y="-18.0"/>
    </contour>
  </outline>
</glyph>
<glyph name="quotesingle" format="2">
  <advance width="495.8989898989899"/>
  <unicode hex="0027"/>
  <outline>
    <contour>
      <point x="133.5050505050505" y="820.3434343434343" type="line"/>
      <point x="362.3939393939394" y="820.3434343434343" type="line"/>
      <point x="431.33333333333337" y="1616.0" type="line"/>
      <point x="64.56565656565657" y="1616.0" type="line"/>
    </contour>
  </outline>
</glyph>
<glyph name="parenleft" format="2">
  <advance width="736.1226666666666"/>
  <unicode hex="0028"/>
  <outline>
    <contour>
      <point x="438.5643333333333" y="-440.0" type="curve"/>
      <point x="829.0050000000001" y="-440.0" type="line"/>
      <point x="582.1446666666668" y="-137.46366666666665"/>
      <point x="480.1446666666667" y="189.60899999999998"/>
      <point x="480.1446666666667" y="588.0" type="curve" smooth="yes"/>
      <point x="480.1446666666667" y="986.391"/>
      <point x="582.1446666666668" y="1313.4636666666668"/>
      <point x="829.0050000000001" y="1616.0" type="curve"/>
      <point x="438.5643333333333" y="1616.0" type="line"/>
      <point x="194.68166666666664" y="1344.1116666666667"/>
      <point x="95.84366666666665" y="990.6703333333334"/>
      <point x="95.84366666666665" y="588.0" type="curve" smooth="yes"/>
      <point x="95.84366666666665" y="185.32966666666667"/>
      <point x="194.68166666666664" y="-168.11166666666668"/>
    </contour>
  </outline>
</glyph>
<glyph name="parenright" format="2">
  <advance width="735.8989898989898"/>
  <unicode hex="0029"/>
  <outline>
    <contour>
      <point x="-92.55555555555557" y="-440.0" type="curve"/>
      <point x="297.2525252525253" y="-440.0" type="line"/>
      <point x="541.1212121212121" y="-168.05050505050505"/>
      <point x="639.969696969697" y="185.3838383838384"/>
      <point x="639.969696969697" y="588.0" type="curve" smooth="yes"/>
      <point x="639.969696969697" y="990.6161616161617"/>
      <point x="541.1212121212121" y="1344.050505050505"/>
      <point x="297.2525252525253" y="1616.0" type="curve"/>
      <point x="-92.55555555555557" y="1616.0" type="line"/>
      <point x="154.30303030303028" y="1313.4444444444443"/>
      <point x="256.30303030303025" y="986.3333333333334"/>
      <point x="256.30303030303025" y="588.0" type="curve" smooth="yes"/>
      <point x="256.30303030303025" y="189.66666666666666"/>
      <point x="154.30303030303028" y="-137.44444444444446"/>
    </contour>
  </outline>
</glyph>
<glyph name="asterisk" format="2">
  <advance width="1036.2828282828284"/>
  <unicode hex="002A"/>
  <outline>
    <contour>
      <point x="657.4747474747476" y="1123.0" type="line"/>
      <point x="842.5959595959596" y="1143.5252525252524" type="line"/>
      <point x="1006.2828282828283" y="1196.3737373737374" type="line"/>
      <point x="930.4747474747475" y="1428.949494949495" type="line"/>
      <point x="767.0707070707072" y="1375.2424242424242" type="line"/>
      <point x="600.2525252525253" y="1278.3535353535353" type="line"/>
      <point x="640.2929292929293" y="1467.7575757575758" type="line"/>
      <point x="640.2929292929293" y="1616.0" type="line"/>
      <point x="395.98989898989896" y="1616.0" type="line"/>
      <point x="395.98989898989896" y="1467.7575757575758" type="line"/>
      <point x="436.030303030303" y="1278.3535353535353" type="line"/>
      <point x="269.21212121212125" y="1375.2424242424242" type="line"/>
      <point x="105.80808080808082" y="1428.949494949495" type="line"/>
      <point x="30.0" y="1196.3737373737374" type="line"/>
      <point x="193.68686868686868" y="1143.5252525252524" type="line"/>
      <point x="378.80808080808083" y="1123.0" type="line"/>
      <point x="238.22222222222223" y="996.1919191919192" type="line"/>
      <point x="149.25252525252526" y="872.6565656565657" type="line"/>
      <point x="347.21212121212125" y="729.0505050505051" type="line"/>
      <point x="436.1818181818182" y="851.7272727272727" type="line"/>
      <point x="518.1414141414142" y="1037.7474747474748" type="line"/>
      <point x="600.1010101010102" y="851.7272727272727" type="line"/>
      <point x="689.070707070707" y="729.0505050505051" type="line"/>
      <point x="887.030303030303" y="872.6565656565657" type="line"/>
      <point x="798.0606060606061" y="996.1919191919192" type="line"/>
    </contour>
  </outline>
</glyph>
<glyph name="plus" format="2">
  <advance width="1108.3636363636365"/>
  <unicode hex="002B"/>
  <outline>
    <contour>
      <point x="405.98989898989896" y="305.8787878787879" type="line"/>
      <point x="702.3737373737374" y="305.8787878787879" type="line"/>
      <point x="702.3737373737374" y="618.10101010101" type="line"/>
      <point x="1002.3232323232323" y="618.10101010101" type="line"/>
      <point x="1002.3232323232323" y="901.89898989899" type="line"/>
      <point x="702.3737373737374" y="901.89898989899" type="line"/>
      <point x="702.3737373737374" y="1214.121212121212" type="line"/>
      <point x="405.98989898989896" y="1214.121212121212" type="line"/>
      <point x="405.98989898989896" y="901.89898989899" type="line"/>
      <point x="106.04040404040404" y="901.89898989899" type="line"/>
      <point x="106.04040404040404" y="618.10101010101" type="line"/>
      <point x="405.98989898989896" y="618.10101010101" type="line"/>
    </contour>
  </outline>
</glyph>
<glyph name="hyphen" format="2">
  <advance width="933.6565656565656"/>
  <unicode hex="002D"/>
  <outline>
    <contour>
      <point x="106.04040404040404" y="417.24242424242425" type="line"/>
      <point x="827.6161616161617" y="417.24242424242425" type="line"/>
      <point x="827.6161616161617" y="719.929292929293" type="line"/>
      <point x="106.04040404040404" y="719.929292929293" type="line"/>
    </contour>
  </outline>
</glyph>
<glyph name="period" format="2">
  <advance width="590.1113333333334"/>
  <unicode hex="002E"/>
  <outline>
    <contour>
      <point x="295.0556666666667" y="-18.603333333333335" type="curve" smooth="yes"/>
      <point x="440.31800000000004" y="-18.603333333333335"/>
      <point x="534.2843333333334" y="69.92166666666668"/>
      <point x="534.2843333333334" y="204.27900000000002" type="curve" smooth="yes"/>
      <point x="534.2843333333334" y="338.63633333333337"/>
      <point x="443.7593333333334" y="427.44066666666674"/>
      <point x="295.0556666666667" y="427.44066666666674" type="curve" smooth="yes"/>
      <point x="146.352" y="427.44066666666674"/>
      <point x="55.826999999999984" y="342.07766666666674"/>
      <point x="55.826999999999984" y="204.27900000000002" type="curve" smooth="yes"/>
      <point x="55.826999999999984" y="66.48033333333335"/>
      <point x="149.79333333333332" y="-18.603333333333335"/>
    </contour>
  </outline>
</glyph>
<glyph name="slash" format="2">
  <advance width="848.4141414141415"/>
  <unicode hex="002F"/>
  <outline>
    <contour>
      <point x="0.0" y="-240.0" type="line"/>
      <point x="368.64646464646466" y="-240.0" type="line"/>
      <point x="848.4141414141415" y="1616.0" type="line"/>
      <point x="479.7676767676768" y="1616.0" type="line"/>
    </contour>
  </outline>
</glyph>
<glyph name="zero" format="2">
  <advance width="1369.2063333333333"/>
  <unicode hex="0030"/>
  <note>
600
</note>
  <outline>
    <contour>
      <point x="684.173" y="-19.720666666666666" type="curve" smooth="yes"/>
      <point x="1057.7873333333334" y="-19.720666666666666"/>
      <point x="1283.3626666666667" y="217.57533333333333"/>
      <point x="1283.3626666666667" y="740.0" type="curve" smooth="yes"/>
      <point x="1283.3626666666667" y="1262.4246666666666"/>
      <point x="1058.346" y="1499.7206666666666"/>
      <point x="684.173" y="1499.7206666666666" type="curve" smooth="yes"/>
      <point x="310.0" y="1499.7206666666666"/>
      <point x="85.84366666666665" y="1262.4246666666666"/>
      <point x="85.84366666666665" y="740.0" type="curve" smooth="yes"/>
      <point x="85.84366666666665" y="217.57533333333333"/>
      <point x="310.5586666666667" y="-19.720666666666666"/>
    </contour>
    <contour>
      <point x="685.0333333333333" y="291.4743333333334" type="curve" smooth="yes"/>
      <point x="539.6700000000001" y="291.4743333333334"/>
      <point x="460.68100000000004" y="396.994"/>
      <point x="460.68100000000004" y="740.5586666666667" type="curve" smooth="yes"/>
      <point x="460.68100000000004" y="1083.0059999999999"/>
      <point x="541.3906666666667" y="1188.5256666666667"/>
      <point x="685.0333333333333" y="1188.5256666666667" type="curve" smooth="yes"/>
      <point x="827.8156666666666" y="1188.5256666666667"/>
      <point x="908.5253333333333" y="1083.0059999999999"/>
      <point x="908.5253333333333" y="739.4413333333333" type="curve" smooth="yes"/>
      <point x="908.5253333333333" y="396.994"/>
      <point x="827.8156666666666" y="291.4743333333334"/>
    </contour>
  </outline>
</glyph>
<glyph name="one" format="2">
  <advance width="866.575"/>
  <unicode hex="0031"/>
  <outline>
    <contour>
      <point x="353.38" y="0.0" type="line"/>
      <point x="736.2620000000001" y="0.0" type="line"/>
      <point x="736.2620000000001" y="1485.7206666666666" type="line"/>
      <point x="489.50266666666664" y="1485.7206666666666" type="line"/>
      <point x="28.162" y="1170.095" type="line"/>
      <point x="28.162" y="815.2073333333333" type="line"/>
      <point x="489.50266666666664" y="1130.5536666666667" type="line"/>
      <point x="353.38" y="1266.0673333333334" type="line"/>
    </contour>
  </outline>
</glyph>
<glyph name="two" format="2">
  <advance width="1104.6253333333334"/>
  <unicode hex="0032"/>
  <outline>
    <contour>
      <point x="43.770999999999994" y="0.0" type="line"/>
      <point x="1055.2733333333333" y="0.0" type="line"/>
      <point x="1055.2733333333333" y="314.3570000000001" type="line"/>
      <point x="460.36800000000005" y="314.3570000000001" type="line"/>
      <point x="466.9043333333334" y="218.94933333333336" type="line"/>
      <point x="780.4296666666667" y="587.5586666666667" type="line" smooth="yes"/>
      <point x="935.3626666666667" y="769.9386666666667"/>
      <point x="987.3403333333334" y="912.6816666666666"/>
      <point x="987.48" y="1059.3353333333332" type="curve" smooth="yes"/>
      <point x="987.7593333333334" y="1365.0726666666667"/>
      <point x="788.022" y="1499.7206666666666"/>
      <point x="398.1116666666667" y="1499.7206666666666" type="curve" smooth="yes"/>
      <point x="273.94966666666664" y="1499.7206666666666"/>
      <point x="115.93299999999999" y="1475.2793333333334"/>
      <point x="25.050333333333327" y="1444.4413333333334" type="curve"/>
      <point x="25.050333333333327" y="1136.4083333333333" type="line"/>
      <point x="114.72633333333333" y="1170.386"/>
      <point x="238.23466666666667" y="1193.6876666666667"/>
      <point x="355.95533333333333" y="1193.6876666666667" type="curve" smooth="yes"/>
      <point x="540.2403333333333" y="1193.6876666666667"/>
      <point x="610.341" y="1136.6596666666667"/>
      <point x="610.341" y="1021.2013333333333" type="curve" smooth="yes"/>
      <point x="610.341" y="934.2626666666666"/>
      <point x="567.1063333333333" y="842.419"/>
      <point x="447.38" y="695.2233333333334" type="curve" smooth="yes"/>
      <point x="43.770999999999994" y="204.32366666666672" type="line"/>
    </contour>
  </outline>
</glyph>
<glyph name="three" format="2">
  <advance width="1113.536"/>
  <unicode hex="0033"/>
  <outline>
    <contour>
      <point x="434.9943333333333" y="-19.720666666666666" type="curve" smooth="yes"/>
      <point x="854.3516666666667" y="-19.720666666666666"/>
      <point x="1057.0443333333333" y="144.18433333333334"/>
      <point x="1057.0443333333333" y="415.3686666666667" type="curve" smooth="yes"/>
      <point x="1057.0443333333333" y="617.162"/>
      <point x="939.832" y="737.2346666666666"/>
      <point x="734.452" y="769.9553333333333" type="curve"/>
      <point x="734.3123333333334" y="756.0" type="line"/>
      <point x="904.575" y="793.838"/>
      <point x="1008.9046666666667" y="920.6536666666667"/>
      <point x="1008.9046666666667" y="1095.4246666666666" type="curve" smooth="yes"/>
      <point x="1008.9046666666667" y="1352.9553333333333"/>
      <point x="821.4913333333334" y="1499.7206666666666"/>
      <point x="442.67033333333336" y="1499.7206666666666" type="curve" smooth="yes"/>
      <point x="314.1843333333333" y="1499.7206666666666"/>
      <point x="159.74866666666665" y="1477.2793333333334"/>
      <point x="62.58666666666666" y="1444.8603333333333" type="curve"/>
      <point x="62.58666666666666" y="1162.6373333333333" type="line"/>
      <point x="161.70399999999998" y="1197.3356666666666"/>
      <point x="288.79333333333335" y="1217.777"/>
      <point x="399.65366666666665" y="1217.777" type="curve" smooth="yes"/>
      <point x="572.151" y="1217.777"/>
      <point x="643.8103333333333" y="1162.816"/>
      <point x="643.8103333333333" y="1060.151" type="curve" smooth="yes"/>
      <point x="643.8103333333333" y="959.7373333333334"/>
      <point x="573.866" y="898.9606666666667"/>
      <point x="380.2456666666667" y="898.9606666666667" type="curve" smooth="yes"/>
      <point x="186.73199999999997" y="898.9606666666667" type="line"/>
      <point x="186.73199999999997" y="612.7153333333333" type="line"/>
      <point x="417.3016666666667" y="612.7153333333333" type="line" smooth="yes"/>
      <point x="624.6146666666666" y="612.7153333333333"/>
      <point x="697.9723333333333" y="552.1006666666667"/>
      <point x="697.9723333333333" y="439.458" type="curve" smooth="yes"/>
      <point x="697.9723333333333" y="323.7203333333333"/>
      <point x="617.4973333333334" y="262.22300000000007"/>
      <point x="418.78766666666667" y="262.22300000000007" type="curve" smooth="yes"/>
      <point x="297.02233333333334" y="262.22300000000007"/>
      <point x="153.07266666666666" y="282.22300000000007"/>
      <point x="39.79333333333333" y="312.0386666666667" type="curve"/>
      <point x="39.79333333333333" y="29.815666666666665" type="line"/>
      <point x="158.55866666666668" y="-1.4413333333333338"/>
      <point x="292.324" y="-19.720666666666666"/>
    </contour>
  </outline>
</glyph>
<glyph name="four" format="2">
  <advance width="1304.8686868686868"/>
  <unicode hex="0034"/>
  <outline>
    <contour>
      <point x="33.39393939393939" y="286.979797979798" type="line"/>
      <point x="1275.1818181818182" y="286.979797979798" type="line"/>
      <point x="1275.1818181818182" y="579.3636363636364" type="line"/>
      <point x="365.2828282828283" y="579.3636363636364" type="line"/>
      <point x="405.32323232323233" y="494.1212121212121" type="line"/>
      <point x="893.4040404040404" y="1480.0" type="line"/>
      <point x="528.9191919191919" y="1480.0" type="line"/>
      <point x="33.39393939393939" y="494.4040404040404" type="line"/>
    </contour>
    <contour>
      <point x="749.3535353535353" y="0.0" type="line"/>
      <point x="1090.3838383838383" y="0.0" type="line"/>
      <point x="1090.3838383838383" y="980.0" type="line"/>
      <point x="785.6767676767677" y="980.0" type="line"/>
      <point x="749.3535353535353" y="579.3636363636364" type="line"/>
    </contour>
  </outline>
</glyph>
<glyph name="five" format="2">
  <advance width="1126.5353535353536"/>
  <unicode hex="0035"/>
  <outline>
    <contour>
      <point x="461.9191919191919" y="-19.717171717171716" type="curve" smooth="yes"/>
      <point x="871.3535353535353" y="-19.717171717171716"/>
      <point x="1080.989898989899" y="143.73737373737373"/>
      <point x="1081.848484848485" y="449.64646464646466" type="curve" smooth="yes"/>
      <point x="1082.7070707070707" y="736.8282828282828"/>
      <point x="901.4040404040404" y="887.1414141414141"/>
      <point x="442.020202020202" y="912.8585858585859" type="curve" smooth="yes"/>
      <point x="253.58585858585857" y="923.0" type="line"/>
      <point x="474.72727272727275" y="793.7171717171717" type="line"/>
      <point x="512.0" y="1354.141414141414" type="line"/>
      <point x="347.35353535353534" y="1188.4747474747473" type="line"/>
      <point x="1022.4242424242424" y="1188.4747474747473" type="line"/>
      <point x="1022.4242424242424" y="1480.0" type="line"/>
      <point x="161.94949494949495" y="1480.0" type="line"/>
      <point x="110.37373737373737" y="645.7878787878788" type="line"/>
      <point x="298.80808080808083" y="635.6464646464647" type="line" smooth="yes"/>
      <point x="645.6161616161617" y="615.3636363636364"/>
      <point x="722.5050505050505" y="557.3030303030303"/>
      <point x="722.5050505050505" y="440.9191919191919" type="curve" smooth="yes"/>
      <point x="722.5050505050505" y="326.69696969696975"/>
      <point x="642.3232323232323" y="265.22222222222223"/>
      <point x="445.8888888888889" y="265.22222222222223" type="curve" smooth="yes"/>
      <point x="323.44444444444446" y="265.22222222222223"/>
      <point x="179.54545454545453" y="286.2222222222223"/>
      <point x="66.68686868686868" y="316.7777777777778" type="curve"/>
      <point x="66.68686868686868" y="34.98989898989899" type="line"/>
      <point x="185.0" y="1.2828282828282827"/>
      <point x="319.020202020202" y="-19.717171717171716"/>
    </contour>
  </outline>
</glyph>
<glyph name="six" format="2">
  <advance width="1285.3232323232323"/>
  <unicode hex="0036"/>
  <outline>
    <contour>
      <point x="695.2727272727273" y="-19.717171717171716" type="curve" smooth="yes"/>
      <point x="1028.7272727272727" y="-19.717171717171716"/>
      <point x="1234.2020202020203" y="161.07070707070707"/>
      <point x="1234.2020202020203" y="453.0808080808081" type="curve" smooth="yes"/>
      <point x="1234.2020202020203" y="767.1313131313132"/>
      <point x="1026.7272727272727" y="903.5555555555555"/>
      <point x="755.4343434343434" y="903.5555555555555" type="curve" smooth="yes"/>
      <point x="619.6060606060606" y="903.5555555555555"/>
      <point x="481.0606060606061" y="858.7171717171717"/>
      <point x="406.7979797979798" y="782.1717171717172" type="curve"/>
      <point x="406.7979797979798" y="524.020202020202" type="line"/>
      <point x="480.0505050505051" y="599.9494949494949"/>
      <point x="580.7979797979798" y="633.2121212121212"/>
      <point x="678.4545454545455" y="633.2121212121212" type="curve" smooth="yes"/>
      <point x="807.2828282828283" y="633.2121212121212"/>
      <point x="890.3131313131313" y="574.8686868686868"/>
      <point x="890.3131313131313" y="442.35353535353534" type="curve" smooth="yes"/>
      <point x="890.3131313131313" y="312.69696969696975"/>
      <point x="811.1414141414141" y="252.34343434343435"/>
      <point x="697.1313131313132" y="252.34343434343435" type="curve" smooth="yes"/>
      <point x="554.8787878787879" y="252.34343434343435"/>
      <point x="465.71717171717177" y="333.3636363636364"/>
      <point x="465.71717171717177" y="631.8989898989898" type="curve" smooth="yes"/>
      <point x="465.71717171717177" y="793.2929292929293" type="line" smooth="yes"/>
      <point x="465.71717171717177" y="1074.4646464646464"/>
      <point x="591.7777777777778" y="1211.3434343434342"/>
      <point x="861.5353535353536" y="1211.3434343434342" type="curve" smooth="yes"/>
      <point x="965.0" y="1211.3434343434342"/>
      <point x="1064.2929292929293" y="1196.6262626262626"/>
      <point x="1155.6060606060605" y="1165.4848484848485" type="curve"/>
      <point x="1155.6060606060605" y="1454.141414141414" type="line"/>
      <point x="1065.2929292929293" y="1487.7171717171718"/>
      <point x="958.6969696969697" y="1499.7171717171718"/>
      <point x="841.929292929293" y="1499.7171717171718" type="curve" smooth="yes"/>
      <point x="366.04040404040404" y="1499.7171717171718"/>
      <point x="95.2121212121212" y="1232.2424242424242"/>
      <point x="95.2121212121212" y="692.0" type="curve" smooth="yes"/>
      <point x="95.2121212121212" y="193.1919191919192"/>
      <point x="338.01010101010104" y="-19.717171717171716"/>
    </contour>
  </outline>
</glyph>
<glyph name="seven" format="2">
  <advance width="1052.022"/>
  <unicode hex="0037"/>
  <outline>
    <contour>
      <point x="148.16766666666666" y="0.0" type="line"/>
      <point x="540.3513333333334" y="0.0" type="line"/>
      <point x="994.7426666666668" y="1275.6763333333333" type="line"/>
      <point x="994.7426666666668" y="1480.0" type="line"/>
      <point x="11.139666666666667" y="1480.0" type="line"/>
      <point x="11.139666666666667" y="1165.643" type="line"/>
      <point x="759.514" y="1165.643" type="line"/>
      <point x="631.2293333333333" y="1275.9556666666667" type="line"/>
    </contour>
  </outline>
</glyph>
<glyph name="eight" format="2">
  <advance width="1368.858585858586"/>
  <unicode hex="0038"/>
  <outline>
    <contour>
      <point x="687.2727272727273" y="-19.717171717171716" type="curve" smooth="yes"/>
      <point x="1093.1616161616162" y="-19.717171717171716"/>
      <point x="1291.4848484848485" y="168.06060606060606"/>
      <point x="1291.4848484848485" y="414.22222222222223" type="curve" smooth="yes"/>
      <point x="1291.4848484848485" y="630.3737373737374"/>
      <point x="1178.2222222222222" y="767.4040404040404"/>
      <point x="799.2828282828283" y="872.7373737373738" type="curve" smooth="yes"/>
      <point x="522.4646464646464" y="948.6060606060606"/>
      <point x="471.6868686868687" y="997.9494949494949"/>
      <point x="471.6868686868687" y="1093.79797979798" type="curve" smooth="yes"/>
      <point x="471.6868686868687" y="1177.050505050505"/>
      <point x="540.8787878787879" y="1240.5353535353536"/>
      <point x="702.89898989899" y="1240.5353535353536" type="curve" smooth="yes"/>
      <point x="850.3232323232323" y="1240.5353535353536"/>
      <point x="925.070707070707" y="1185.050505050505"/>
      <point x="925.070707070707" y="1086.3636363636363" type="curve" smooth="yes"/>
      <point x="925.070707070707" y="991.5050505050505"/>
      <point x="872.989898989899" y="918.2727272727273"/>
      <point x="739.969696969697" y="850.7272727272727" type="curve"/>
      <point x="962.5151515151515" y="757.0505050505051" type="line"/>
      <point x="1177.989898989899" y="840.6363636363636"/>
      <point x="1252.3636363636365" y="975.6363636363636"/>
      <point x="1252.3636363636365" y="1124.2828282828282" type="curve" smooth="yes"/>
      <point x="1252.3636363636365" y="1357.7171717171718"/>
      <point x="1051.878787878788" y="1499.7171717171718"/>
      <point x="707.3333333333334" y="1499.7171717171718" type="curve" smooth="yes"/>
      <point x="310.54545454545456" y="1499.7171717171718"/>
      <point x="112.91919191919192" y="1327.6666666666667"/>
      <point x="112.91919191919192" y="1079.7777777777778" type="curve" smooth="yes"/>
      <point x="112.91919191919192" y="867.070707070707"/>
      <point x="234.9090909090909" y="706.7272727272727"/>
      <point x="612.2727272727273" y="610.8383838383838" type="curve" smooth="yes"/>
      <point x="873.3636363636364" y="545.2727272727273"/>
      <point x="937.8686868686868" y="493.3333333333333"/>
      <point x="937.8686868686868" y="392.9090909090909" type="curve" smooth="yes"/>
      <point x="937.8686868686868" y="297.5151515151515"/>
      <point x="862.989898989899" y="239.46464646464648"/>
      <point x="688.2727272727273" y="239.46464646464648" type="curve" smooth="yes"/>
      <point x="510.8787878787879" y="239.46464646464648"/>
      <point x="429.13131313131316" y="302.949494949495"/>
      <point x="429.13131313131316" y="412.6363636363636" type="curve" smooth="yes"/>
      <point x="429.13131313131316" y="503.7676767676768"/>
      <point x="490.04040404040404" y="598.9797979797979"/>
      <point x="637.3737373737374" y="647.3939393939394" type="curve"/>
      <point x="394.65656565656565" y="738.7777777777778" type="line"/>
      <point x="185.63636363636363" y="671.9191919191919"/>
      <point x="73.93939393939394" y="537.6565656565657"/>
      <point x="73.93939393939394" y="368.5656565656566" type="curve" smooth="yes"/>
      <point x="73.93939393939394" y="144.1818181818182"/>
      <point x="259.09090909090907" y="-19.717171717171716"/>
    </contour>
  </outline>
</glyph>
<glyph name="less" format="2">
  <advance width="1108.3636363636365"/>
  <unicode hex="003C"/>
  <outline>
    <contour>
      <point x="1002.3232323232323" y="251.45454545454544" type="line"/>
      <point x="1002.3232323232323" y="536.3838383838383" type="line"/>
      <point x="309.989898989899" y="781.4444444444445" type="line"/>
      <point x="309.989898989899" y="742.8484848484849" type="line"/>
      <point x="1002.3232323232323" y="983.6161616161617" type="line"/>
      <point x="1002.3232323232323" y="1268.5454545454545" type="line"/>
      <point x="106.04040404040404" y="938.8282828282828" type="line"/>
      <point x="106.04040404040404" y="581.1717171717172" type="line"/>
    </contour>
  </outline>
</glyph>
<glyph name="equal" format="2">
  <advance width="1108.458"/>
  <unicode hex="003D"/>
  <outline>
    <contour>
      <point x="105.91633333333331" y="849.7766666666666" type="line"/>
      <point x="1002.5416666666667" y="849.7766666666666" type="line"/>
      <point x="1002.5416666666667" y="1134.022" type="line"/>
      <point x="105.91633333333331" y="1134.022" type="line"/>
    </contour>
    <contour>
      <point x="105.91633333333331" y="385.97799999999995" type="line"/>
      <point x="1002.5416666666667" y="385.97799999999995" type="line"/>
      <point x="1002.5416666666667" y="670.2233333333334" type="line"/>
      <point x="105.91633333333331" y="670.2233333333334" type="line"/>
    </contour>
  </outline>
</glyph>
<glyph name="greater" format="2">
  <advance width="1108.458"/>
  <unicode hex="003E"/>
  <outline>
    <contour>
      <point x="105.91633333333331" y="251.13999999999996" type="line"/>
      <point x="1002.5416666666667" y="580.8606666666667" type="line"/>
      <point x="1002.5416666666667" y="939.1393333333333" type="line"/>
      <point x="105.91633333333331" y="1268.8600000000001" type="line"/>
      <point x="105.91633333333331" y="983.4973333333334" type="line"/>
      <point x="798.3073333333333" y="742.838" type="line"/>
      <point x="798.3073333333333" y="781.4636666666667" type="line"/>
      <point x="105.91633333333331" y="536.5026666666666" type="line"/>
    </contour>
  </outline>
</glyph>
<glyph name="question" format="2">
  <advance width="1022.4856666666667"/>
  <unicode hex="003F"/>
  <outline>
    <contour>
      <point x="342.79333333333335" y="499.5973333333334" type="line"/>
      <point x="570.6030000000001" y="499.5973333333334" type="line"/>
      <point x="596.9493333333334" y="676.3966666666666" type="line"/>
      <point x="833.212" y="743.218"/>
      <point x="974.8320000000001" y="875.961"/>
      <point x="974.8320000000001" y="1091.123" type="curve" smooth="yes"/>
      <point x="974.8320000000001" y="1352.9553333333333"/>
      <point x="787.4186666666667" y="1499.7206666666666"/>
      <point x="408.59766666666667" y="1499.7206666666666" type="curve" smooth="yes"/>
      <point x="280.1116666666667" y="1499.7206666666666"/>
      <point x="125.676" y="1477.2793333333334"/>
      <point x="28.513999999999996" y="1444.8603333333333" type="curve"/>
      <point x="28.513999999999996" y="1154.0339999999999" type="line"/>
      <point x="127.63133333333333" y="1188.7323333333334"/>
      <point x="253.0" y="1209.1736666666666"/>
      <point x="363.72066666666666" y="1209.1736666666666" type="curve" smooth="yes"/>
      <point x="538.0783333333334" y="1209.1736666666666"/>
      <point x="609.7376666666667" y="1156.7936666666667"/>
      <point x="609.7376666666667" y="1058.4303333333332" type="curve" smooth="yes"/>
      <point x="609.7376666666667" y="964.648"/>
      <point x="539.9666666666667" y="897.2456666666667"/>
      <point x="278.313" y="853.0276666666667" type="curve"/>
    </contour>
    <contour>
      <point x="457.12833333333333" y="-18.603333333333335" type="curve" smooth="yes"/>
      <point x="602.6700000000001" y="-18.603333333333335"/>
      <point x="696.3570000000001" y="66.75966666666667"/>
      <point x="696.3570000000001" y="193.09466666666668" type="curve" smooth="yes"/>
      <point x="696.3570000000001" y="319.70900000000006"/>
      <point x="605.8320000000001" y="405.07200000000006"/>
      <point x="457.12833333333333" y="405.07200000000006" type="curve" smooth="yes"/>
      <point x="308.42466666666667" y="405.07200000000006"/>
      <point x="217.89966666666666" y="323.1503333333334"/>
      <point x="217.89966666666666" y="193.09466666666668" type="curve" smooth="yes"/>
      <point x="217.89966666666666" y="63.31833333333334"/>
      <point x="311.866" y="-18.603333333333335"/>
    </contour>
  </outline>
</glyph>
<glyph name="at" format="2">
  <advance width="2153.111"/>
  <unicode hex="0040"/>
  <outline>
    <contour>
      <point x="1122.765" y="-460.0" type="curve" smooth="yes"/>
      <point x="1285.4576666666667" y="-460.0"/>
      <point x="1443.5693333333334" y="-441.4413333333333"/>
      <point x="1596.748" y="-405.72066666666666" type="curve"/>
      <point x="1596.748" y="-167.37466666666666" type="line"/>
      <point x="1438.9156666666668" y="-203.79366666666664"/>
      <point x="1284.7593333333334" y="-221.9333333333333"/>
      <point x="1122.765" y="-221.9333333333333" type="curve" smooth="yes"/>
      <point x="584.9103333333334" y="-221.9333333333333"/>
      <point x="354.32366666666667" y="-20.85499999999996"/>
      <point x="354.32366666666667" y="520.5586666666667" type="curve" smooth="yes"/>
      <point x="354.32366666666667" y="1060.017"/>
      <point x="584.6310000000001" y="1259.9333333333334"/>
      <point x="1085.0666666666666" y="1259.9333333333334" type="curve" smooth="yes"/>
      <point x="1586.223" y="1259.9333333333334"/>
      <point x="1816.5526666666667" y="1067.4583333333333"/>
      <point x="1819.9940000000001" y="576.3686666666666" type="curve" smooth="yes"/>
      <point x="1822.575" y="283.3796666666667"/>
      <point x="1760.4743333333333" y="218.34600000000003"/>
      <point x="1675.167" y="218.34600000000003" type="curve" smooth="yes"/>
      <point x="1619.1613333333335" y="218.34600000000003"/>
      <point x="1585.625" y="249.55833333333337"/>
      <point x="1585.625" y="327.51933333333335" type="curve" smooth="yes"/>
      <point x="1585.625" y="625.112" type="line" smooth="yes"/>
      <point x="1585.625" y="975.866"/>
      <point x="1425.815" y="1097.7206666666666"/>
      <point x="1060.022" y="1097.7206666666666" type="curve" smooth="yes"/>
      <point x="942.212" y="1097.7206666666666"/>
      <point x="806.8433333333334" y="1078.1396666666667"/>
      <point x="697.173" y="1042.6983333333333" type="curve"/>
      <point x="695.4523333333334" y="763.9166666666666" type="line"/>
      <point x="789.1283333333333" y="797.4753333333333"/>
      <point x="902.7316666666667" y="815.7769999999999"/>
      <point x="991.1953333333333" y="815.7769999999999" type="curve" smooth="yes"/>
      <point x="1160.9886666666666" y="815.7769999999999"/>
      <point x="1219.9496666666666" y="769.8216666666666"/>
      <point x="1219.9496666666666" y="641.4583333333333" type="curve" smooth="yes"/>
      <point x="1219.9496666666666" y="285.38533333333334" type="line"/>
      <point x="1183.1506666666667" y="252.86000000000004"/>
      <point x="1120.5136666666667" y="239.27333333333337"/>
      <point x="1080.9436666666668" y="239.27333333333337" type="curve" smooth="yes"/>
      <point x="1010.9993333333334" y="239.27333333333337"/>
      <point x="958.3903333333334" y="270.6756666666667"/>
      <point x="958.3903333333334" y="342.687" type="curve" smooth="yes"/>
      <point x="958.3903333333334" y="416.8826666666667"/>
      <point x="1004.3960000000001" y="452.16766666666666"/>
      <point x="1102.48" y="459.6816666666667" type="curve" smooth="yes"/>
      <point x="1315.7316666666666" y="474.87166666666667" type="line"/>
      <point x="1274.4356666666667" y="669.9216666666666" type="line"/>
      <point x="1064.765" y="654.7316666666667" type="line" smooth="yes"/>
      <point x="730.1283333333333" y="632.6143333333333"/>
      <point x="590.1563333333334" y="514.106"/>
      <point x="590.1563333333334" y="303.134" type="curve" smooth="yes"/>
      <point x="590.1563333333334" y="109.08933333333334"/>
      <point x="723.3406666666667" y="-21.162"/>
      <point x="954.0556666666666" y="-21.162" type="curve" smooth="yes"/>
      <point x="1074.1506666666667" y="-21.162"/>
      <point x="1187.5473333333334" y="17.351999999999997"/>
      <point x="1231.8546666666666" y="131.162" type="curve"/>
      <point x="1251.1786666666667" y="131.162" type="line"/>
      <point x="1317.497" y="28.095"/>
      <point x="1430.3963333333334" y="-21.162"/>
      <point x="1589.4353333333333" y="-21.162" type="curve" smooth="yes"/>
      <point x="1878.3233333333333" y="-21.162"/>
      <point x="2077.1276666666668" y="141.11733333333333"/>
      <point x="2077.267333333333" y="584.0893333333333" type="curve" smooth="yes"/>
      <point x="2077.407" y="1194.9776666666667"/>
      <point x="1722.4183333333335" y="1498.0"/>
      <point x="1085.0666666666666" y="1498.0" type="curve" smooth="yes"/>
      <point x="448.57533333333333" y="1498.0"/>
      <point x="75.84366666666665" y="1194.9776666666667"/>
      <point x="75.84366666666665" y="520.0" type="curve" smooth="yes"/>
      <point x="75.84366666666665" y="-155.81566666666666"/>
      <point x="448.9943333333333" y="-459.86033333333336"/>
    </contour>
  </outline>
</glyph>
<glyph name="A" format="2">
  <advance width="1495.4949494949494"/>
  <unicode hex="0041"/>
  <note>
520
</note>
  <anchor x="747.8888888888889" y="0.0" name="bottom"/>
  <anchor x="1486.8282828282827" y="0.0" name="ogonek"/>
  <anchor x="747.030303030303" y="1520.0" name="top"/>
  <outline>
    <contour>
      <point x="8.666666666666664" y="0.0" type="line"/>
      <point x="379.59595959595964" y="0.0" type="line"/>
      <point x="763.040404040404" y="1315.5050505050506" type="line"/>
      <point x="727.0202020202021" y="1315.5050505050506" type="line"/>
      <point x="1112.1818181818182" y="0.0" type="line"/>
      <point x="1486.8282828282827" y="0.0" type="line"/>
      <point x="1027.7171717171718" y="1480.0" type="line"/>
      <point x="467.77777777777777" y="1480.0" type="line"/>
    </contour>
    <contour>
      <point x="360.41414141414145" y="365.7272727272727" type="line"/>
      <point x="1132.5050505050506" y="365.7272727272727" type="line"/>
      <point x="1052.4040404040404" y="666.9797979797979" type="line"/>
      <point x="441.3737373737374" y="666.9797979797979" type="line"/>
    </contour>
  </outline>
</glyph>
<glyph name="B" format="2">
  <advance width="1358.5252525252527"/>
  <unicode hex="0042"/>
  <anchor x="693.5454545454545" y="0.0" name="bottom"/>
  <anchor x="693.5454545454545" y="1480.0" name="top"/>
  <outline>
    <contour>
      <point x="555.9090909090909" y="-18.58585858585859" type="curve" smooth="yes"/>
      <point x="1111.2525252525252" y="-18.58585858585859"/>
      <point x="1312.3030303030303" y="141.02020202020202"/>
      <point x="1312.3030303030303" y="419.8989898989899" type="curve" smooth="yes"/>
      <point x="1312.3030303030303" y="628.7676767676768"/>
      <point x="1189.7070707070707" y="740.5656565656566"/>
      <point x="1016.1313131313132" y="768.4242424242424" type="curve"/>
      <point x="1015.7070707070708" y="756.0" type="line"/>
      <point x="1172.4242424242425" y="789.8585858585859"/>
      <point x="1271.878787878788" y="917.8282828282828"/>
      <point x="1271.878787878788" y="1080.8080808080808" type="curve" smooth="yes"/>
      <point x="1271.878787878788" y="1360.4141414141413"/>
      <point x="1075.2424242424242" y="1499.1515151515152"/>
      <point x="618.8181818181819" y="1499.1515151515152" type="curve" smooth="yes"/>
      <point x="455.22222222222223" y="1499.1515151515152"/>
      <point x="262.64646464646466" y="1475.989898989899"/>
      <point x="120.45454545454544" y="1443.6868686868686" type="curve"/>
      <point x="120.45454545454544" y="12.575757575757576" type="line"/>
      <point x="249.6060606060606" y="-5.858585858585859"/>
      <point x="431.32323232323233" y="-18.58585858585859"/>
    </contour>
    <contour>
      <point x="660.939393939394" y="256.9090909090909" type="curve" smooth="yes"/>
      <point x="606.3030303030303" y="256.9090909090909"/>
      <point x="556.6464646464647" y="258.33333333333337"/>
      <point x="493.2525252525253" y="264.32323232323233" type="curve"/>
      <point x="493.2525252525253" y="1207.5252525252524" type="line"/>
      <point x="547.9191919191919" y="1217.3737373737374"/>
      <point x="605.7272727272727" y="1223.6565656565656"/>
      <point x="670.1919191919192" y="1223.6565656565656" type="curve" smooth="yes"/>
      <point x="850.5050505050505" y="1223.6565656565656"/>
      <point x="914.3939393939394" y="1173.8686868686868"/>
      <point x="914.3939393939394" y="1060.20202020202" type="curve" smooth="yes"/>
      <point x="914.3939393939394" y="950.5151515151515"/>
      <point x="853.4949494949495" y="897.030303030303"/>
      <point x="678.0" y="897.030303030303" type="curve" smooth="yes"/>
      <point x="454.92929292929296" y="897.030303030303" type="line"/>
      <point x="454.92929292929296" y="613.8080808080808" type="line"/>
      <point x="710.1515151515151" y="613.8080808080808" type="line" smooth="yes"/>
      <point x="891.0909090909091" y="613.8080808080808"/>
      <point x="960.6868686868687" y="559.1818181818181"/>
      <point x="960.6868686868687" y="436.2121212121212" type="curve" smooth="yes"/>
      <point x="960.6868686868687" y="314.67676767676767"/>
      <point x="890.3636363636364" y="256.9090909090909"/>
    </contour>
  </outline>
</glyph>
<glyph name="C" format="2">
  <advance width="1267.9046666666668"/>
  <unicode hex="0043"/>
  <anchor x="770.7316666666667" y="0.0" name="bottom"/>
  <anchor x="768.6366666666667" y="1520.0" name="top"/>
  <outline>
    <contour>
      <point x="883.86" y="-19.720666666666666" type="curve" smooth="yes"/>
      <point x="1001.2566666666667" y="-19.720666666666666"/>
      <point x="1124.022" y="-2.162000000000001"/>
      <point x="1217.279" y="26.234666666666662" type="curve"/>
      <point x="1217.279" y="338.56933333333336" type="line"/>
      <point x="1118.9493333333335" y="311.77600000000007"/>
      <point x="1019.3683333333333" y="294.9156666666667"/>
      <point x="921.7146666666667" y="294.9156666666667" type="curve" smooth="yes"/>
      <point x="618.0833333333334" y="294.9156666666667"/>
      <point x="476.49100000000004" y="418.9213333333334"/>
      <point x="476.49100000000004" y="740.2793333333333" type="curve" smooth="yes"/>
      <point x="476.49100000000004" y="1054.4026666666666"/>
      <point x="620.128" y="1185.0843333333332"/>
      <point x="931.8543333333334" y="1185.0843333333332" type="curve" smooth="yes"/>
      <point x="1033.2510000000002" y="1185.0843333333332"/>
      <point x="1127.0666666666666" y="1173.6653333333334"/>
      <point x="1217.279" y="1154.1513333333332" type="curve"/>
      <point x="1217.279" y="1466.486" type="line"/>
      <point x="1117.5806666666667" y="1488.8826666666666"/>
      <point x="1011.279" y="1499.7206666666666"/>
      <point x="899.86" y="1499.7206666666666" type="curve" smooth="yes"/>
      <point x="370.04466666666667" y="1499.7206666666666"/>
      <point x="75.84366666666665" y="1236.38"/>
      <point x="75.84366666666665" y="736.2793333333333" type="curve" smooth="yes"/>
      <point x="75.84366666666665" y="213.01666666666668"/>
      <point x="363.6983333333333" y="-19.720666666666666"/>
    </contour>
  </outline>
</glyph>
<glyph name="D" format="2">
  <advance width="1534.4646464646464"/>
  <unicode hex="0044"/>
  <anchor x="701.1515151515152" y="0.0" name="bottom"/>
  <anchor x="755.1414141414141" y="740.0" name="center"/>
  <anchor x="120.45454545454544" y="762.0" name="stroke"/>
  <anchor x="683.9797979797979" y="1520.0" name="top"/>
  <outline>
    <contour>
      <point x="545.7777777777778" y="-16.01010101010101" type="curve" smooth="yes"/>
      <point x="1158.4444444444443" y="-16.01010101010101"/>
      <point x="1458.5353535353536" y="207.40404040404042"/>
      <point x="1458.5353535353536" y="740.0" type="curve" smooth="yes"/>
      <point x="1458.5353535353536" y="1259.4444444444443"/>
      <point x="1173.4545454545455" y="1496.5757575757575"/>
      <point x="618.2929292929293" y="1496.5757575757575" type="curve" smooth="yes"/>
      <point x="450.19191919191917" y="1496.5757575757575"/>
      <point x="263.93939393939394" y="1475.989898989899"/>
      <point x="120.45454545454544" y="1443.828282828283" type="curve"/>
      <point x="120.45454545454544" y="8.282828282828284" type="line"/>
      <point x="258.8989898989899" y="-8.434343434343436"/>
      <point x="418.45454545454544" y="-16.01010101010101"/>
    </contour>
    <contour>
      <point x="648.2323232323233" y="292.11111111111114" type="curve" smooth="yes"/>
      <point x="599.6060606060606" y="292.11111111111114"/>
      <point x="552.939393939394" y="292.81818181818187"/>
      <point x="502.69696969696975" y="296.949494949495" type="curve"/>
      <point x="502.69696969696975" y="1176.7575757575758" type="line"/>
      <point x="545.1818181818182" y="1184.7474747474748"/>
      <point x="603.9898989898991" y="1190.171717171717"/>
      <point x="647.6363636363636" y="1190.171717171717" type="curve" smooth="yes"/>
      <point x="923.10101010101" y="1190.171717171717"/>
      <point x="1067.141414141414" y="1068.3232323232323"/>
      <point x="1067.141414141414" y="741.7171717171717" type="curve" smooth="yes"/>
      <point x="1067.141414141414" y="411.82828282828285"/>
      <point x="929.5555555555555" y="292.11111111111114"/>
    </contour>
  </outline>
</glyph>
<glyph name="E" format="2">
  <advance width="1285.0"/>
  <unicode hex="0045"/>
  <anchor x="684.0808080808081" y="0.0" name="bottom"/>
  <anchor x="1124.5555555555557" y="0.0" name="ogonek"/>
  <anchor x="683.7979797979798" y="1520.0" name="top"/>
  <anchor x="38.42424242424242" y="1480.0" name="topleft"/>
  <outline>
    <contour>
      <point x="120.45454545454544" y="0.0" type="line"/>
      <point x="1213.1414141414143" y="0.0" type="line"/>
      <point x="1213.1414141414143" y="302.969696969697" type="line"/>
      <point x="497.54545454545456" y="302.969696969697" type="line"/>
      <point x="497.54545454545456" y="1177.030303030303" type="line"/>
      <point x="1203.1414141414143" y="1177.030303030303" type="line"/>
      <point x="1203.1414141414143" y="1480.0" type="line"/>
      <point x="120.45454545454544" y="1480.0" type="line"/>
    </contour>
    <contour>
      <point x="344.7474747474747" y="604.3636363636364" type="line"/>
      <point x="1099.5555555555557" y="604.3636363636364" type="line"/>
      <point x="1099.5555555555557" y="907.3333333333334" type="line"/>
      <point x="344.7474747474747" y="907.3333333333334" type="line"/>
    </contour>
  </outline>
</glyph>
<glyph name="F" format="2">
  <advance width="1244.346"/>
  <unicode hex="0046"/>
  <outline>
    <contour>
      <point x="120.31299999999999" y="0.0" type="line"/>
      <point x="503.19500000000005" y="0.0" type="line"/>
      <point x="503.19500000000005" y="1170.5256666666667" type="line"/>
      <point x="1202.089" y="1170.5256666666667" type="line"/>
      <point x="1202.089" y="1480.0" type="line"/>
      <point x="120.31299999999999" y="1480.0" type="line"/>
    </contour>
    <contour>
      <point x="360.1226666666667" y="559.3746666666666" type="line"/>
      <point x="1098.4856666666667" y="559.3746666666666" type="line"/>
      <point x="1098.4856666666667" y="868.849" type="line"/>
      <point x="360.1226666666667" y="868.849" type="line"/>
    </contour>
  </outline>
</glyph>
<glyph name="G" format="2">
  <advance width="1453.8282828282827"/>
  <unicode hex="0047"/>
  <anchor x="825.7676767676768" y="0.0" name="bottom"/>
  <anchor x="825.7676767676768" y="1520.0" name="top"/>
  <outline>
    <contour>
      <point x="952.3535353535353" y="-18.58585858585859" type="curve" smooth="yes"/>
      <point x="1077.3939393939395" y="-18.58585858585859"/>
      <point x="1206.0404040404042" y="-5.717171717171717"/>
      <point x="1335.1919191919192" y="15.282828282828282" type="curve"/>
      <point x="1335.1919191919192" y="720.0" type="line"/>
      <point x="980.4242424242424" y="720.0" type="line"/>
      <point x="980.4242424242424" y="168.63636363636365" type="line"/>
      <point x="1144.949494949495" y="309.24242424242425" type="line"/>
      <point x="1079.969696969697" y="299.2525252525253"/>
      <point x="996.969696969697" y="292.969696969697"/>
      <point x="921.4444444444445" y="292.969696969697" type="curve" smooth="yes"/>
      <point x="620.6464646464647" y="292.969696969697"/>
      <point x="474.33333333333337" y="428.3030303030303"/>
      <point x="474.1919191919192" y="730.5555555555555" type="curve" smooth="yes"/>
      <point x="474.0505050505051" y="1054.090909090909"/>
      <point x="627.1919191919192" y="1184.7272727272727"/>
      <point x="990.6464646464647" y="1185.5858585858587" type="curve" smooth="yes"/>
      <point x="1093.2222222222222" y="1185.5858585858587"/>
      <point x="1190.9292929292928" y="1173.7272727272727"/>
      <point x="1289.878787878788" y="1152.040404040404" type="curve"/>
      <point x="1289.878787878788" y="1463.878787878788" type="line"/>
      <point x="1183.888888888889" y="1488.010101010101"/>
      <point x="1071.7373737373737" y="1499.7171717171718"/>
      <point x="955.5858585858587" y="1499.7171717171718" type="curve" smooth="yes"/>
      <point x="378.83838383838383" y="1499.7171717171718"/>
      <point x="75.78787878787878" y="1236.909090909091"/>
      <point x="75.92929292929293" y="736.2828282828283" type="curve" smooth="yes"/>
      <point x="76.07070707070707" y="227.03030303030303"/>
      <point x="365.85858585858585" y="-18.58585858585859"/>
    </contour>
  </outline>
</glyph>
<glyph name="H" format="2">
  <advance width="1554.5806666666667"/>
  <unicode hex="0048"/>
  <anchor x="778.1506666666667" y="0.0" name="bottom"/>
  <anchor x="778.1506666666667" y="1201.0836666666667" name="center"/>
  <anchor x="778.1506666666667" y="1520.0" name="top"/>
  <anchor x="36.69833333333333" y="1480.0" name="topleft"/>
  <outline>
    <contour>
      <point x="120.31299999999999" y="0.0" type="line"/>
      <point x="503.19500000000005" y="0.0" type="line"/>
      <point x="503.19500000000005" y="587.7656666666667" type="line"/>
      <point x="1051.3856666666666" y="587.7656666666667" type="line"/>
      <point x="1051.3856666666666" y="0.0" type="line"/>
      <point x="1434.2676666666666" y="0.0" type="line"/>
      <point x="1434.2676666666666" y="1480.0" type="line"/>
      <point x="1051.3856666666666" y="1480.0" type="line"/>
      <point x="1051.3856666666666" y="923.9103333333334" type="line"/>
      <point x="503.19500000000005" y="923.9103333333334" type="line"/>
      <point x="503.19500000000005" y="1480.0" type="line"/>
      <point x="120.31299999999999" y="1480.0" type="line"/>
    </contour>
  </outline>
</glyph>
<glyph name="I" format="2">
  <advance width="623.508"/>
  <unicode hex="0049"/>
  <anchor x="310.8936666666667" y="0.0" name="bottom"/>
  <anchor x="503.19500000000005" y="0.0" name="ogonek"/>
  <anchor x="311.754" y="1520.0" name="top"/>
  <outline>
    <contour>
      <point x="120.31299999999999" y="0.0" type="line"/>
      <point x="503.19500000000005" y="0.0" type="line"/>
      <point x="503.19500000000005" y="1480.0" type="line"/>
      <point x="120.31299999999999" y="1480.0" type="line"/>
    </contour>
  </outline>
</glyph>
<glyph name="J" format="2">
  <advance width="623.508"/>
  <unicode hex="004A"/>
  <anchor x="510.4576666666667" y="0.0" name="bottom"/>
  <anchor x="312.6143333333334" y="1520.0" name="top"/>
  <outline>
    <contour>
      <point x="215.76500000000004" y="-352.04466666666667" type="line"/>
      <point x="428.7313333333334" y="-136.838"/>
      <point x="501.6586666666667" y="63.29600000000001"/>
      <point x="503.19500000000005" y="310.64233333333334" type="curve"/>
      <point x="503.19500000000005" y="1480.0" type="line"/>
      <point x="122.03366666666665" y="1480.0" type="line"/>
      <point x="122.03366666666665" y="301.486" type="line" smooth="yes"/>
      <point x="122.03366666666665" y="90.73733333333335"/>
      <point x="85.54199999999999" y="-41.128666666666646"/>
      <point x="-26.810000000000002" y="-190.57566666666665" type="curve"/>
    </contour>
  </outline>
</glyph>
<glyph name="K" format="2">
  <advance width="1362.4444444444443"/>
  <unicode hex="004B"/>
  <anchor x="714.7373737373738" y="0.0" name="bottom"/>
  <anchor x="707.010101010101" y="1480.0" name="top"/>
  <outline>
    <contour>
      <point x="1003.2525252525253" y="0.0" type="line"/>
      <point x="1416.2323232323233" y="0.0" type="line"/>
      <point x="888.9797979797979" y="808.3434343434343" type="line"/>
      <point x="882.1111111111111" y="710.5050505050505" type="line"/>
      <point x="1373.3737373737374" y="1480.0" type="line"/>
      <point x="973.5555555555555" y="1480.0" type="line"/>
      <point x="509.4646464646465" y="752.8484848484849" type="line"/>
    </contour>
    <contour>
      <point x="120.45454545454544" y="0.0" type="line"/>
      <point x="502.69696969696975" y="0.0" type="line"/>
      <point x="502.69696969696975" y="1480.0" type="line"/>
      <point x="120.45454545454544" y="1480.0" type="line"/>
    </contour>
    <contour>
      <point x="450.6363636363637" y="588.0505050505051" type="line"/>
      <point x="656.4949494949495" y="588.0505050505051" type="line"/>
      <point x="656.4949494949495" y="923.5050505050506" type="line"/>
      <point x="450.6363636363637" y="923.5050505050506" type="line"/>
    </contour>
  </outline>
</glyph>
<glyph name="L" format="2">
  <advance width="1174.9773333333333"/>
  <unicode hex="004C"/>
  <anchor x="643.4356666666666" y="0.0" name="bottom"/>
  <anchor x="777.8433333333334" y="1616.0" name="caronalt"/>
  <anchor x="890.4633333333334" y="892.726" name="periodcentered"/>
  <anchor x="315.19533333333334" y="842.8266666666667" name="slash"/>
  <anchor x="315.19533333333334" y="1520.0" name="top"/>
  <outline>
    <contour>
      <point x="120.31299999999999" y="0.0" type="line"/>
      <point x="1166.279" y="0.0" type="line"/>
      <point x="1166.279" y="316.357" type="line"/>
      <point x="503.19500000000005" y="316.357" type="line"/>
      <point x="503.19500000000005" y="1480.0" type="line"/>
      <point x="120.31299999999999" y="1480.0" type="line"/>
    </contour>
  </outline>
</glyph>
<glyph name="M" format="2">
  <advance width="1918.6666666666667"/>
  <unicode hex="004D"/>
  <anchor x="984.2323232323233" y="0.0" name="bottom"/>
  <anchor x="984.2323232323233" y="1480.0" name="top"/>
  <outline>
    <contour>
      <point x="124.45454545454544" y="0.0" type="line"/>
      <point x="480.6565656565657" y="0.0" type="line"/>
      <point x="480.6565656565657" y="1145.5353535353536" type="line"/>
      <point x="393.7171717171717" y="1145.5353535353536" type="line"/>
      <point x="804.5656565656566" y="217.17171717171718" type="line"/>
      <point x="1114.1010101010102" y="217.17171717171718" type="line"/>
      <point x="1508.3535353535353" y="1145.5353535353536" type="line"/>
      <point x="1438.010101010101" y="1145.5353535353536" type="line"/>
      <point x="1438.010101010101" y="0.0" type="line"/>
      <point x="1794.2121212121212" y="0.0" type="line"/>
      <point x="1794.2121212121212" y="1480.0" type="line"/>
      <point x="1327.6969696969697" y="1480.0" type="line"/>
      <point x="945.3333333333334" y="561.6969696969697" type="line"/>
      <point x="985.9191919191919" y="561.6969696969697" type="line"/>
      <point x="590.969696969697" y="1480.0" type="line"/>
      <point x="124.45454545454544" y="1480.0" type="line"/>
    </contour>
  </outline>
</glyph>
<glyph name="N" format="2">
  <advance width="1568.955"/>
  <unicode hex="004E"/>
  <anchor x="784.5473333333333" y="0.0" name="bottom"/>
  <anchor x="784.5473333333333" y="1520.0" name="top"/>
  <outline>
    <contour>
      <point x="120.31299999999999" y="0.0" type="line"/>
      <point x="479.6866666666667" y="0.0" type="line"/>
      <point x="479.6866666666667" y="1000.1573333333333" type="line"/>
      <point x="418.57500000000005" y="1000.1573333333333" type="line"/>
      <point x="1065.6426666666666" y="0.0" type="line"/>
      <point x="1448.642" y="0.0" type="line"/>
      <point x="1448.642" y="1480.0" type="line"/>
      <point x="1089.2683333333334" y="1480.0" type="line"/>
      <point x="1089.2683333333334" y="479.84266666666673" type="line"/>
      <point x="1150.38" y="479.84266666666673" type="line"/>
      <point x="503.3123333333334" y="1480.0" type="line"/>
      <point x="120.31299999999999" y="1480.0" type="line"/>
    </contour>
  </outline>
</glyph>
<glyph name="O" format="2">
  <advance width="1605.452"/>
  <unicode hex="004F"/>
  <anchor x="802.726" y="0.0" name="bottom"/>
  <anchor x="802.726" y="740.0" name="center"/>
  <anchor x="975.6310000000001" y="0.0" name="ogonek"/>
  <anchor x="802.726" y="1520.0" name="top"/>
  <anchor x="50.022333333333336" y="1480.0" name="topleft"/>
  <anchor x="1003.022" y="1480.0" name="topright"/>
  <outline>
    <contour>
      <point x="802.726" y="-19.720666666666666" type="curve" smooth="yes"/>
      <point x="1242.8263333333334" y="-19.720666666666666"/>
      <point x="1529.6083333333333" y="232.85466666666667"/>
      <point x="1529.6083333333333" y="740.0" type="curve" smooth="yes"/>
      <point x="1529.6083333333333" y="1247.1453333333334"/>
      <point x="1244.1056666666668" y="1499.7206666666666"/>
      <point x="802.726" y="1499.7206666666666" type="curve" smooth="yes"/>
      <point x="361.76533333333333" y="1499.7206666666666"/>
      <point x="75.84366666666665" y="1248.866"/>
      <point x="75.84366666666665" y="740.0" type="curve" smooth="yes"/>
      <point x="75.84366666666665" y="231.13400000000001"/>
      <point x="362.2066666666667" y="-19.720666666666666"/>
    </contour>
    <contour>
      <point x="802.726" y="287.3123333333334" type="curve" smooth="yes"/>
      <point x="589.5973333333334" y="287.3123333333334"/>
      <point x="467.88766666666675" y="415.85433333333333"/>
      <point x="467.88766666666675" y="747.4413333333333" type="curve" smooth="yes"/>
      <point x="467.88766666666675" y="1064.1456666666666"/>
      <point x="592.1783333333334" y="1192.6876666666667"/>
      <point x="802.726" y="1192.6876666666667" type="curve" smooth="yes"/>
      <point x="1013.2736666666667" y="1192.6876666666667"/>
      <point x="1137.5643333333333" y="1061.5646666666667"/>
      <point x="1137.5643333333333" y="732.5586666666667" type="curve" smooth="yes"/>
      <point x="1137.5643333333333" y="418.43533333333335"/>
      <point x="1015.8546666666666" y="287.3123333333334"/>
    </contour>
  </outline>
</glyph>
<glyph name="P" format="2">
  <advance width="1346.2727272727273"/>
  <unicode hex="0050"/>
  <outline>
    <contour>
      <point x="120.45454545454544" y="0.0" type="line"/>
      <point x="502.69696969696975" y="0.0" type="line"/>
      <point x="502.69696969696975" y="412.2323232323232" type="line"/>
      <point x="544.7777777777778" y="411.1010101010101"/>
      <point x="582.4444444444445" y="408.95959595959596"/>
      <point x="627.959595959596" y="408.95959595959596" type="curve" smooth="yes"/>
      <point x="1054.2525252525252" y="408.95959595959596"/>
      <point x="1279.0404040404042" y="594.8383838383838"/>
      <point x="1279.0404040404042" y="953.7676767676768" type="curve" smooth="yes"/>
      <point x="1279.0404040404042" y="1331.8383838383838"/>
      <point x="1049.979797979798" y="1499.1515151515152"/>
      <point x="592.6767676767677" y="1499.1515151515152" type="curve" smooth="yes"/>
      <point x="419.16161616161617" y="1499.1515151515152"/>
      <point x="265.22222222222223" y="1480.2828282828282"/>
      <point x="120.45454545454544" y="1451.5555555555557" type="curve"/>
    </contour>
    <contour>
      <point x="631.8181818181819" y="693.040404040404" type="curve" smooth="yes"/>
      <point x="582.3030303030303" y="693.040404040404"/>
      <point x="545.6464646464647" y="695.3232323232323"/>
      <point x="502.69696969696975" y="701.030303030303" type="curve"/>
      <point x="502.69696969696975" y="1205.090909090909" type="line"/>
      <point x="541.9090909090909" y="1212.2222222222222"/>
      <point x="578.2525252525253" y="1215.0707070707072"/>
      <point x="628.7373737373738" y="1215.0707070707072" type="curve" smooth="yes"/>
      <point x="820.5151515151515" y="1215.0707070707072"/>
      <point x="909.1111111111111" y="1136.8686868686868"/>
      <point x="909.1111111111111" y="951.6262626262626" type="curve" smooth="yes"/>
      <point x="909.1111111111111" y="764.3535353535353"/>
      <point x="821.0808080808081" y="693.040404040404"/>
    </contour>
  </outline>
</glyph>
<glyph name="Q" format="2">
  <advance width="1605.452"/>
  <unicode hex="0051"/>
  <outline>
    <contour>
      <point x="1448.7313333333334" y="-346.9046666666667" type="curve"/>
      <point x="1512.0720000000001" y="-50.335333333333324" type="line"/>
      <point x="1276.5636666666667" y="-21.290666666666652"/>
      <point x="1049.9323333333334" y="27.03333333333336"/>
      <point x="806.642" y="118.3796666666667" type="curve"/>
      <point x="682.592" y="25.553000000000004" type="line"/>
      <point x="1246.9660000000001" y="-48.53633333333333"/>
      <point x="1529.6083333333333" y="242.01666666666668"/>
      <point x="1529.6083333333333" y="740.0" type="curve" smooth="yes"/>
      <point x="1529.6083333333333" y="1247.9833333333333"/>
      <point x="1243.6866666666667" y="1499.7206666666666"/>
      <point x="802.726" y="1499.7206666666666" type="curve" smooth="yes"/>
      <point x="361.76533333333333" y="1499.7206666666666"/>
      <point x="75.84366666666665" y="1248.866"/>
      <point x="75.84366666666665" y="731.3966666666666" type="curve" smooth="yes"/>
      <point x="75.84366666666665" y="193.2456666666667"/>
      <point x="380.1843333333333" y="-178.3126666666667"/>
    </contour>
    <contour>
      <point x="802.726" y="287.3123333333334" type="curve" smooth="yes"/>
      <point x="587.8766666666668" y="287.3123333333334"/>
      <point x="467.88766666666675" y="414.1336666666667"/>
      <point x="467.88766666666675" y="747.4413333333333" type="curve" smooth="yes"/>
      <point x="467.88766666666675" y="1064.1456666666666"/>
      <point x="592.1783333333334" y="1192.6876666666667"/>
      <point x="802.726" y="1192.6876666666667" type="curve" smooth="yes"/>
      <point x="1013.2736666666667" y="1192.6876666666667"/>
      <point x="1137.5643333333333" y="1061.5646666666667"/>
      <point x="1137.5643333333333" y="732.5586666666667" type="curve" smooth="yes"/>
      <point x="1137.5643333333333" y="418.43533333333335"/>
      <point x="1015.8546666666666" y="287.3123333333334"/>
    </contour>
  </outline>
</glyph>
<glyph name="R" format="2">
  <advance width="1402.7930000000001"/>
  <unicode hex="0052"/>
  <anchor x="737.4300000000001" y="0.0" name="bottom"/>
  <anchor x="694.0556666666666" y="1520.0" name="top"/>
  <outline>
    <contour>
      <point x="120.31299999999999" y="0.0" type="line"/>
      <point x="496.31233333333336" y="0.0" type="line"/>
      <point x="496.31233333333336" y="522.4863333333333" type="line"/>
      <point x="542.7816666666668" y="520.788"/>
      <point x="584.2733333333333" y="518.5086666666666"/>
      <point x="635.5360000000001" y="518.5086666666666" type="curve" smooth="yes"/>
      <point x="1022.7706666666667" y="518.5086666666666"/>
      <point x="1270.5303333333334" y="686.4583333333333"/>
      <point x="1270.251" y="1010.0336666666667" type="curve" smooth="yes"/>
      <point x="1270.251" y="1344.2123333333334"/>
      <point x="1044.7706666666668" y="1499.162"/>
      <point x="606.944" y="1499.162" type="curve" smooth="yes"/>
      <point x="440.01666666666665" y="1499.162"/>
      <point x="260.8883333333333" y="1475.5586666666666"/>
      <point x="120.31299999999999" y="1443.7933333333333" type="curve"/>
    </contour>
    <contour>
      <point x="980.6483333333333" y="0.0" type="line"/>
      <point x="1395.737" y="0.0" type="line"/>
      <point x="927.329" y="679.771" type="line"/>
      <point x="521.123" y="679.771" type="line"/>
    </contour>
    <contour>
      <point x="643.86" y="800.3126666666667" type="curve" smooth="yes"/>
      <point x="590.2956666666666" y="800.3126666666667"/>
      <point x="545.5973333333334" y="803.3126666666667"/>
      <point x="496.31233333333336" y="808.592" type="curve"/>
      <point x="496.31233333333336" y="1206.9836666666665" type="line"/>
      <point x="541.2956666666666" y="1215.1009999999999"/>
      <point x="591.4856666666667" y="1220.6596666666667"/>
      <point x="649.402" y="1220.6596666666667" type="curve" smooth="yes"/>
      <point x="824.0783333333334" y="1220.6596666666667"/>
      <point x="912.3186666666667" y="1155.7936666666667"/>
      <point x="912.3186666666667" y="1009.6146666666666" type="curve" smooth="yes"/>
      <point x="912.3186666666667" y="858.9496666666666"/>
      <point x="821.9833333333333" y="800.3126666666667"/>
    </contour>
  </outline>
</glyph>
<glyph name="S" format="2">
  <advance width="1185.508"/>
  <unicode hex="0053"/>
  <anchor x="604.916" y="0.0" name="bottom"/>
  <anchor x="604.916" y="1520.0" name="top"/>
  <outline>
    <contour>
      <point x="518.011" y="-19.720666666666666" type="curve" smooth="yes"/>
      <point x="906.5806666666667" y="-19.720666666666666"/>
      <point x="1137.5023333333334" y="159.99433333333334"/>
      <point x="1137.5023333333334" y="449.687" type="curve" smooth="yes"/>
      <point x="1137.5023333333334" y="681.6366666666667"/>
      <point x="1002.8766666666668" y="817.8433333333334"/>
      <point x="711.0666666666667" y="889.2846666666667" type="curve" smooth="yes"/>
      <point x="588.8433333333334" y="920.7706666666667" type="line" smooth="yes"/>
      <point x="460.94366666666673" y="955.1003333333333"/>
      <point x="428.00500000000005" y="988.62"/>
      <point x="428.00500000000005" y="1054.9163333333333" type="curve" smooth="yes"/>
      <point x="428.00500000000005" y="1134.8886666666667"/>
      <point x="493.89900000000006" y="1193.6876666666667"/>
      <point x="718.7426666666668" y="1193.6876666666667" type="curve" smooth="yes"/>
      <point x="838.2286666666666" y="1193.6876666666667"/>
      <point x="965.0386666666668" y="1176.2463333333333"/>
      <point x="1057.1336666666666" y="1148.4083333333333" type="curve"/>
      <point x="1057.1336666666666" y="1456.4413333333334" type="line"/>
      <point x="962.6923333333334" y="1482.1396666666667"/>
      <point x="835.927" y="1499.7206666666666"/>
      <point x="695.212" y="1499.7206666666666" type="curve" smooth="yes"/>
      <point x="261.6256666666667" y="1499.7206666666666"/>
      <point x="48.00566666666666" y="1326.771"/>
      <point x="48.00566666666666" y="1034.57" type="curve" smooth="yes"/>
      <point x="48.00566666666666" y="802.76"/>
      <point x="184.352" y="665.5533333333333"/>
      <point x="447.6983333333333" y="600.693" type="curve" smooth="yes"/>
      <point x="569.9216666666666" y="569.207" type="line" smooth="yes"/>
      <point x="718.7263333333333" y="530.2963333333333"/>
      <point x="757.5029999999999" y="494.7543333333333"/>
      <point x="757.5029999999999" y="423.458" type="curve" smooth="yes"/>
      <point x="757.5029999999999" y="338.94933333333336"/>
      <point x="696.7933333333333" y="286.3123333333334"/>
      <point x="515.9886666666666" y="286.3123333333334" type="curve" smooth="yes"/>
      <point x="382.01666666666665" y="286.3123333333334"/>
      <point x="212.95533333333333" y="311.9156666666667"/>
      <point x="88.095" y="353.05533333333335" type="curve"/>
      <point x="88.095" y="45.022333333333336" type="line"/>
      <point x="211.13966666666667" y="4.301666666666668"/>
      <point x="365.1116666666667" y="-19.720666666666666"/>
    </contour>
  </outline>
</glyph>
<glyph name="T" format="2">
  <advance width="1324.5023333333334"/>
  <unicode hex="0054"/>
  <anchor x="662.6813333333333" y="0.0" name="bottom"/>
  <anchor x="662.6813333333333" y="713.9666666666667" name="center"/>
  <anchor x="662.6813333333333" y="1520.0" name="top"/>
  <outline>
    <contour>
      <point x="470.38" y="0.0" type="line"/>
      <point x="854.1223333333334" y="0.0" type="line"/>
      <point x="854.1223333333334" y="1163.643" type="line"/>
      <point x="1311.3626666666669" y="1163.643" type="line"/>
      <point x="1311.3626666666669" y="1480.0" type="line"/>
      <point x="13.139666666666667" y="1480.0" type="line"/>
      <point x="13.139666666666667" y="1163.643" type="line"/>
      <point x="470.38" y="1163.643" type="line"/>
    </contour>
  </outline>
</glyph>
<glyph name="U" format="2">
  <advance width="1522.2525252525252"/>
  <unicode hex="0055"/>
  <anchor x="765.1313131313132" y="0.0" name="bottom"/>
  <anchor x="1003.1616161616162" y="0.28282828282828265" name="ogonek"/>
  <anchor x="765.1313131313132" y="1520.0" name="top"/>
  <anchor x="1062.1818181818182" y="1480.0" name="topright"/>
  <outline>
    <contour>
      <point x="765.1313131313132" y="-19.717171717171716" type="curve" smooth="yes"/>
      <point x="1210.0101010101012" y="-19.717171717171716"/>
      <point x="1408.080808080808" y="194.64646464646466"/>
      <point x="1408.080808080808" y="632.030303030303" type="curve" smooth="yes"/>
      <point x="1408.080808080808" y="1480.0" type="line"/>
      <point x="1032.989898989899" y="1480.0" type="line"/>
      <point x="1032.989898989899" y="595.4141414141415" type="line" smooth="yes"/>
      <point x="1032.989898989899" y="379.4545454545455"/>
      <point x="942.2020202020202" y="291.8383838383839"/>
      <point x="765.1313131313132" y="291.8383838383839" type="curve" smooth="yes"/>
      <point x="588.060606060606" y="291.8383838383839"/>
      <point x="496.41414141414145" y="379.4545454545455"/>
      <point x="496.41414141414145" y="595.4141414141415" type="curve" smooth="yes"/>
      <point x="496.41414141414145" y="1480.0" type="line"/>
      <point x="114.17171717171716" y="1480.0" type="line"/>
      <point x="114.17171717171716" y="632.030303030303" type="line" smooth="yes"/>
      <point x="114.17171717171716" y="194.64646464646466"/>
      <point x="314.24242424242425" y="-19.717171717171716"/>
    </contour>
  </outline>
</glyph>
<glyph name="V" format="2">
  <advance width="1472.6666666666667"/>
  <unicode hex="0056"/>
  <outline>
    <contour>
      <point x="453.22222222222223" y="0.0" type="line"/>
      <point x="1019.4444444444445" y="0.0" type="line"/>
      <point x="1475.4141414141413" y="1480.0" type="line"/>
      <point x="1103.909090909091" y="1480.0" type="line"/>
      <point x="704.5757575757576" y="154.19191919191923" type="line"/>
      <point x="787.5454545454545" y="154.19191919191923" type="line"/>
      <point x="395.939393939394" y="1480.0" type="line"/>
      <point x="-2.7474747474747474" y="1480.0" type="line"/>
    </contour>
  </outline>
</glyph>
<glyph name="W" format="2">
  <advance width="2336.10101010101"/>
  <unicode hex="0057"/>
  <anchor x="1168.2626262626263" y="0.0" name="bottom"/>
  <anchor x="1168.2626262626263" y="1520.0" name="top"/>
  <outline>
    <contour>
      <point x="403.26262626262627" y="0.0" type="line"/>
      <point x="892.2121212121212" y="0.0" type="line"/>
      <point x="1226.7777777777778" y="1248.2626262626263" type="line"/>
      <point x="1125.6363636363637" y="1248.2626262626263" type="line"/>
      <point x="1443.888888888889" y="0.0" type="line"/>
      <point x="1932.8383838383838" y="0.0" type="line"/>
      <point x="2314.181818181818" y="1480.0" type="line"/>
      <point x="1953.2626262626263" y="1480.0" type="line"/>
      <point x="1628.1313131313132" y="166.21212121212122" type="line"/>
      <point x="1715.3939393939395" y="166.21212121212122" type="line"/>
      <point x="1388.5555555555557" y="1480.0" type="line"/>
      <point x="970.010101010101" y="1480.0" type="line"/>
      <point x="627.0" y="166.21212121212122" type="line"/>
      <point x="723.7070707070707" y="166.21212121212122" type="line"/>
      <point x="407.3030303030303" y="1480.0" type="line"/>
      <point x="21.77777777777777" y="1480.0" type="line"/>
    </contour>
  </outline>
</glyph>
<glyph name="X" format="2">
  <advance width="1410.413"/>
  <unicode hex="0058"/>
  <outline>
    <contour>
      <point x="1032.894" y="0.0" type="line"/>
      <point x="1453.5636666666667" y="0.0" type="line"/>
      <point x="927.3066666666667" y="775.5306666666667" type="line"/>
      <point x="705.6366666666667" y="1051.1950000000002" type="line"/>
      <point x="417.3513333333334" y="1480.0" type="line"/>
      <point x="-5.759666666666675" y="1480.0" type="line"/>
      <point x="479.5253333333333" y="771.0893333333333" type="line"/>
      <point x="701.1953333333333" y="497.8663333333333" type="line"/>
    </contour>
    <contour>
      <point x="-46.73166666666668" y="0.0" type="line"/>
      <point x="369.357" y="0.0" type="line"/>
      <point x="701.1953333333333" y="497.8663333333333" type="line"/>
      <point x="927.3066666666667" y="775.5306666666667" type="line"/>
      <point x="1404.8486666666668" y="1480.0" type="line"/>
      <point x="993.2013333333333" y="1480.0" type="line"/>
      <point x="705.6366666666667" y="1051.1950000000002" type="line"/>
      <point x="479.5253333333333" y="771.0893333333333" type="line"/>
    </contour>
  </outline>
</glyph>
<glyph name="Y" format="2">
  <advance width="1324.5023333333334"/>
  <unicode hex="0059"/>
  <anchor x="661.821" y="0.0" name="bottom"/>
  <anchor x="662.6813333333333" y="1520.0" name="top"/>
  <anchor x="-12.670333333333339" y="1480.0" name="topleft"/>
  <outline>
    <contour>
      <point x="472.961" y="0.0" type="line"/>
      <point x="855.8430000000001" y="0.0" type="line"/>
      <point x="855.8430000000001" y="763.782" type="line"/>
      <point x="779.3403333333333" y="489.39699999999993" type="line"/>
      <point x="1371.6363333333334" y="1480.0" type="line"/>
      <point x="997.4023333333333" y="1480.0" type="line"/>
      <point x="620.8713333333334" y="849.9103333333334" type="line"/>
      <point x="725.4186666666667" y="849.9103333333334" type="line"/>
      <point x="344.46866666666676" y="1480.0" type="line"/>
      <point x="-59.43566666666667" y="1480.0" type="line"/>
      <point x="549.4636666666667" y="489.39699999999993" type="line"/>
      <point x="472.961" y="768.944" type="line"/>
    </contour>
  </outline>
</glyph>
<glyph name="Z" format="2">
  <advance width="1269.9046666666668"/>
  <unicode hex="005A"/>
  <anchor x="632.8713333333334" y="0.0" name="bottom"/>
  <anchor x="636.3126666666667" y="1520.0" name="top"/>
  <outline>
    <contour>
      <point x="58.69833333333334" y="0.0" type="line"/>
      <point x="1211.2063333333333" y="0.0" type="line"/>
      <point x="1211.2063333333333" y="316.07766666666674" type="line"/>
      <point x="503.8260000000001" y="316.07766666666674" type="line"/>
      <point x="505.78133333333335" y="246.34033333333338" type="line"/>
      <point x="1200.9270000000001" y="1270.5143333333333" type="line"/>
      <point x="1200.9270000000001" y="1480.0" type="line"/>
      <point x="68.97766666666666" y="1480.0" type="line"/>
      <point x="68.97766666666666" y="1163.9223333333332" type="line"/>
      <point x="755.7993333333333" y="1163.9223333333332" type="line"/>
      <point x="753.8439999999999" y="1233.6596666666667" type="line"/>
      <point x="58.69833333333334" y="209.4856666666667" type="line"/>
    </contour>
  </outline>
</glyph>
<glyph name="bracketleft" format="2">
  <advance width="736.1226666666666"/>
  <unicode hex="005B"/>
  <outline>
    <contour>
      <point x="140.313" y="-440.0" type="line"/>
      <point x="755.4746666666667" y="-440.0" type="line"/>
      <point x="755.4746666666667" y="-147.1513333333333" type="line"/>
      <point x="515.452" y="-147.1513333333333" type="line"/>
      <point x="515.452" y="1323.1513333333332" type="line"/>
      <point x="764.078" y="1323.1513333333332" type="line"/>
      <point x="764.078" y="1616.0" type="line"/>
      <point x="140.313" y="1616.0" type="line"/>
    </contour>
  </outline>
</glyph>
<glyph name="backslash" format="2">
  <advance width="849.6473333333334"/>
  <unicode hex="005C"/>
  <outline>
    <contour>
      <point x="480.1116666666667" y="-240.0" type="line"/>
      <point x="849.6473333333334" y="-240.0" type="line"/>
      <point x="369.53566666666677" y="1616.0" type="line"/>
      <point x="0.0" y="1616.0" type="line"/>
    </contour>
  </outline>
</glyph>
<glyph name="bracketright" format="2">
  <advance width="736.1226666666666"/>
  <unicode hex="005D"/>
  <outline>
    <contour>
      <point x="-19.351999999999997" y="-440.0" type="line"/>
      <point x="595.8096666666668" y="-440.0" type="line"/>
      <point x="595.8096666666668" y="1616.0" type="line"/>
      <point x="-27.95533333333333" y="1616.0" type="line"/>
      <point x="-27.95533333333333" y="1323.1513333333332" type="line"/>
      <point x="220.67066666666665" y="1323.1513333333332" type="line"/>
      <point x="220.67066666666665" y="-147.1513333333333" type="line"/>
      <point x="-19.351999999999997" y="-147.1513333333333" type="line"/>
    </contour>
  </outline>
</glyph>
<glyph name="asciicircum" format="2">
  <advance width="1289.2733333333333"/>
  <unicode hex="005E"/>
  <outline>
    <contour>
      <point x="53.77666666666666" y="740.0" type="line"/>
      <point x="415.82633333333337" y="740.0" type="line"/>
      <point x="723.4856666666667" y="1299.2069999999999" type="line"/>
      <point x="565.7876666666667" y="1299.2069999999999" type="line"/>
      <point x="873.447" y="740.0" type="line"/>
      <point x="1235.4966666666667" y="740.0" type="line"/>
      <point x="818.8263333333334" y="1480.0" type="line"/>
      <point x="470.16766666666666" y="1480.0" type="line"/>
    </contour>
  </outline>
</glyph>
<glyph name="underscore" format="2">
  <advance width="1240.2828282828282"/>
  <unicode hex="005F"/>
  <outline>
    <contour>
      <point x="86.41414141414141" y="-293.24242424242425" type="line"/>
      <point x="1153.8686868686868" y="-293.24242424242425" type="line"/>
      <point x="1153.8686868686868" y="-0.8585858585858587" type="line"/>
      <point x="86.41414141414141" y="-0.8585858585858587" type="line"/>
    </contour>
  </outline>
</glyph>
<glyph name="a" format="2">
  <advance width="1148.4856666666667"/>
  <unicode hex="0061"/>
  <anchor x="572.9886666666666" y="0.0" name="bottom"/>
  <anchor x="1048.4073333333333" y="0.0" name="ogonek"/>
  <anchor x="571.0333333333333" y="1200.0" name="top"/>
  <outline>
    <contour>
      <point x="416.838" y="-21.162" type="curve" smooth="yes"/>
      <point x="532.4916666666667" y="-21.162"/>
      <point x="634.5643333333334" y="15.631333333333329"/>
      <point x="698.2403333333333" y="104.77099999999999" type="curve"/>
      <point x="714.8436666666666" y="104.77099999999999" type="line"/>
      <point x="740.6313333333334" y="0.0" type="line"/>
      <point x="1048.4073333333333" y="0.0" type="line"/>
      <point x="1048.4073333333333" y="628.9946666666666" type="line" smooth="yes"/>
      <point x="1048.4073333333333" y="993.0726666666667"/>
      <point x="888.5973333333334" y="1114.9273333333333"/>
      <point x="514.6423333333333" y="1114.9273333333333" type="curve" smooth="yes"/>
      <point x="401.57533333333333" y="1114.9273333333333"/>
      <point x="260.1843333333333" y="1099.648"/>
      <point x="147.07266666666666" y="1069.3686666666667" type="curve"/>
      <point x="147.07266666666666" y="790.587" type="line"/>
      <point x="244.19" y="818.9836666666666"/>
      <point x="359.514" y="832.9836666666666"/>
      <point x="444.95533333333333" y="832.9836666666666" type="curve" smooth="yes"/>
      <point x="623.771" y="832.9836666666666"/>
      <point x="682.732" y="787.0283333333333"/>
      <point x="682.732" y="653.9443333333334" type="curve" smooth="yes"/>
      <point x="682.732" y="281.944" type="line"/>
      <point x="640.771" y="247.69800000000004"/>
      <point x="589.3183333333334" y="235.83200000000005"/>
      <point x="543.726" y="235.83200000000005" type="curve" smooth="yes"/>
      <point x="464.31800000000004" y="235.83200000000005"/>
      <point x="421.1726666666667" y="273.25666666666666"/>
      <point x="421.1726666666667" y="339.2456666666667" type="curve" smooth="yes"/>
      <point x="421.1726666666667" y="407.419"/>
      <point x="464.4576666666667" y="448.0056666666667"/>
      <point x="569.1003333333333" y="455.51966666666664" type="curve" smooth="yes"/>
      <point x="778.933" y="469.57" type="line"/>
      <point x="737.218" y="670.6423333333333" type="line"/>
      <point x="528.944" y="656.592" type="line" smooth="yes"/>
      <point x="192.91066666666666" y="636.1953333333333"/>
      <point x="52.93866666666666" y="514.106"/>
      <point x="52.93866666666666" y="303.134" type="curve" smooth="yes"/>
      <point x="52.93866666666666" y="111.81"/>
      <point x="185.98333333333332" y="-21.162"/>
    </contour>
  </outline>
</glyph>
<glyph name="b" format="2">
  <advance width="1265.0404040404042"/>
  <unicode hex="0062"/>
  <anchor x="637.5959595959596" y="0.0" name="bottom"/>
  <anchor x="295.01010101010104" y="1616.0" name="top"/>
  <outline>
    <contour>
      <point x="559.6060606060606" y="-20.575757575757578" type="curve" smooth="yes"/>
      <point x="995.7878787878788" y="-21.434343434343436"/>
      <point x="1204.2626262626263" y="187.8989898989899"/>
      <point x="1204.2626262626263" y="571.1616161616162" type="curve" smooth="yes"/>
      <point x="1204.2626262626263" y="946.5454545454545"/>
      <point x="1006.5252525252525" y="1114.888888888889"/>
      <point x="776.3737373737374" y="1114.888888888889" type="curve" smooth="yes"/>
      <point x="655.8282828282829" y="1114.888888888889"/>
      <point x="561.7070707070707" y="1070.7676767676767"/>
      <point x="499.0" y="992.4747474747475" type="curve"/>
      <point x="481.83838383838383" y="992.4747474747475" type="line"/>
      <point x="481.83838383838383" y="1616.0" type="line"/>
      <point x="107.32323232323232" y="1616.0" type="line"/>
      <point x="107.32323232323232" y="44.60606060606061" type="line"/>
      <point x="243.12121212121212" y="-0.42424242424242387"/>
      <point x="409.37373737373736" y="-20.575757575757578"/>
    </contour>
    <contour>
      <point x="591.939393939394" y="260.07070707070704" type="curve" smooth="yes"/>
      <point x="551.010101010101" y="260.07070707070704"/>
      <point x="512.0808080808081" y="265.34343434343435"/>
      <point x="481.83838383838383" y="272.89898989898995" type="curve"/>
      <point x="481.83838383838383" y="765.969696969697" type="line"/>
      <point x="522.3535353535353" y="796.1212121212121"/>
      <point x="576.959595959596" y="810.2020202020202"/>
      <point x="628.9898989898991" y="810.2020202020202" type="curve" smooth="yes"/>
      <point x="751.4444444444445" y="810.2020202020202"/>
      <point x="828.3232323232323" y="750.7070707070707"/>
      <point x="828.3232323232323" y="541.6969696969697" type="curve" smooth="yes"/>
      <point x="828.3232323232323" y="336.80808080808083"/>
      <point x="749.4444444444445" y="260.07070707070704"/>
    </contour>
  </outline>
</glyph>
<glyph name="c" format="2">
  <advance width="992.0443333333334"/>
  <unicode hex="0063"/>
  <anchor x="565.8266666666667" y="0.0" name="bottom"/>
  <anchor x="545.5976666666667" y="1200.0" name="top"/>
  <outline>
    <contour>
      <point x="659.307" y="-21.441333333333333" type="curve" smooth="yes"/>
      <point x="762.0946666666666" y="-21.441333333333333"/>
      <point x="862.5806666666667" y="-6.4413333333333345"/>
      <point x="941.8376666666667" y="18.676" type="curve"/>
      <point x="941.8376666666667" y="312.08333333333337" type="line"/>
      <point x="850.7203333333334" y="289.12800000000004"/>
      <point x="787.0666666666667" y="278.56933333333336"/>
      <point x="718.7873333333333" y="278.56933333333336" type="curve" smooth="yes"/>
      <point x="538.4296666666667" y="278.56933333333336"/>
      <point x="446.7033333333334" y="355.08900000000006"/>
      <point x="446.7033333333334" y="549.162" type="curve" smooth="yes"/>
      <point x="446.7033333333334" y="734.654"/>
      <point x="535.2453333333333" y="814.9166666666666"/>
      <point x="743.3013333333333" y="814.9166666666666" type="curve" smooth="yes"/>
      <point x="810.022" y="814.9166666666666"/>
      <point x="872.4186666666667" y="808.358"/>
      <point x="941.8376666666667" y="796.8216666666666" type="curve"/>
      <point x="941.8376666666667" y="1090.229" type="line"/>
      <point x="865.5136666666667" y="1106.7876666666666"/>
      <point x="782.6310000000001" y="1114.9273333333333"/>
      <point x="689.6813333333333" y="1114.9273333333333" type="curve" smooth="yes"/>
      <point x="290.486" y="1114.9273333333333"/>
      <point x="60.68166666666666" y="930.257"/>
      <point x="60.68166666666666" y="546.0223333333333" type="curve" smooth="yes"/>
      <point x="60.68166666666666" y="167.67033333333333"/>
      <point x="272.60333333333335" y="-21.441333333333333"/>
    </contour>
  </outline>
</glyph>
<glyph name="d" format="2">
  <advance width="1265.4353333333333"/>
  <unicode hex="0064"/>
  <anchor x="643.1226666666666" y="0.0" name="bottom"/>
  <anchor x="1252.4296666666667" y="1616.0" name="caronalt"/>
  <anchor x="629.3573333333334" y="544.3016666666666" name="center"/>
  <anchor x="1158.2396666666668" y="1353.419" name="stroke"/>
  <anchor x="619.0333333333333" y="1200.0" name="top"/>
  <anchor x="1221.3180000000002" y="1097.2066666666667" name="topright"/>
  <outline>
    <contour>
      <point x="516.9776666666667" y="-19.720666666666666" type="curve" smooth="yes"/>
      <point x="646.1173333333334" y="-19.720666666666666"/>
      <point x="742.933" y="32.977666666666664"/>
      <point x="804.6313333333334" y="113.838" type="curve"/>
      <point x="821.2346666666667" y="113.838" type="line"/>
      <point x="843.581" y="0.0" type="line"/>
      <point x="1158.2396666666668" y="0.0" type="line"/>
      <point x="1158.2396666666668" y="1616.0" type="line"/>
      <point x="783.1006666666667" y="1616.0" type="line"/>
      <point x="783.1006666666667" y="1109.8323333333333" type="line"/>
      <point x="750.6313333333333" y="1112.9496666666666"/>
      <point x="712.6256666666667" y="1115.7876666666666"/>
      <point x="674.3183333333334" y="1115.7876666666666" type="curve" smooth="yes"/>
      <point x="271.79333333333335" y="1115.7876666666666"/>
      <point x="60.68166666666666" y="903.8156666666666"/>
      <point x="60.68166666666666" y="525.743" type="curve" smooth="yes"/>
      <point x="60.68166666666666" y="141.067"/>
      <point x="271.79333333333335" y="-19.720666666666666"/>
    </contour>
    <contour>
      <point x="630.9606666666667" y="284.5916666666667" type="curve" smooth="yes"/>
      <point x="514.1336666666667" y="284.5916666666667"/>
      <point x="437.2396666666667" y="344.5526666666667"/>
      <point x="437.2396666666667" y="554.391" type="curve" smooth="yes"/>
      <point x="437.2396666666667" y="757.2516666666667"/>
      <point x="515.9716666666667" y="833.8439999999999"/>
      <point x="674.7596666666667" y="833.8439999999999" type="curve" smooth="yes"/>
      <point x="711.486" y="833.8439999999999"/>
      <point x="752.9106666666667" y="829.1456666666666"/>
      <point x="783.1006666666667" y="823.749" type="curve"/>
      <point x="783.1006666666667" y="337.4466666666667" type="line"/>
      <point x="743.514" y="301.1783333333334"/>
      <point x="685.7373333333334" y="284.5916666666667"/>
    </contour>
  </outline>
</glyph>
<glyph name="e" format="2">
  <advance width="1137.1393333333335"/>
  <unicode hex="0065"/>
  <anchor x="585.4300000000001" y="0.0" name="bottom"/>
  <anchor x="1002.4016666666668" y="0.0" name="ogonek"/>
  <anchor x="585.4300000000001" y="1200.0" name="top"/>
  <outline>
    <contour>
      <point x="692.4466666666667" y="-21.441333333333333" type="curve" smooth="yes"/>
      <point x="798.374" y="-21.441333333333333"/>
      <point x="903.3013333333333" y="-11.743000000000002"/>
      <point x="1024.5303333333334" y="13.513999999999996" type="curve"/>
      <point x="1024.5303333333334" y="290.57500000000005" type="line"/>
      <point x="930.994" y="271.3403333333334"/>
      <point x="832.3683333333333" y="258.7816666666667"/>
      <point x="746.346" y="258.7816666666667" type="curve" smooth="yes"/>
      <point x="495.0666666666667" y="258.7816666666667"/>
      <point x="433.7983333333334" y="315.6533333333333"/>
      <point x="433.7983333333334" y="482.51966666666664" type="curve" smooth="yes"/>
      <point x="433.7983333333334" y="635.173" type="line" smooth="yes"/>
      <point x="433.7983333333334" y="821.5476666666666"/>
      <point x="484.50800000000004" y="882.0226666666666"/>
      <point x="588.7316666666667" y="882.0226666666666" type="curve" smooth="yes"/>
      <point x="691.9553333333333" y="882.0226666666666"/>
      <point x="740.2683333333333" y="820.5476666666666"/>
      <point x="740.2683333333333" y="634.3126666666667" type="curve"/>
      <point x="796.5196666666667" y="652.5696666666666" type="line"/>
      <point x="275.212" y="652.5696666666666" type="line"/>
      <point x="275.212" y="442.03366666666665" type="line"/>
      <point x="1087.4353333333333" y="442.03366666666665" type="line"/>
      <point x="1087.4353333333333" y="537.419" type="line" smooth="yes"/>
      <point x="1087.4353333333333" y="905.609"/>
      <point x="919.0666666666666" y="1114.9273333333333"/>
      <point x="593.0333333333333" y="1114.9273333333333" type="curve" smooth="yes"/>
      <point x="249.21233333333333" y="1114.9273333333333"/>
      <point x="60.68166666666666" y="905.4693333333333"/>
      <point x="60.68166666666666" y="549.4636666666667" type="curve" smooth="yes"/>
      <point x="60.68166666666666" y="151.324"/>
      <point x="252.91066666666666" y="-21.441333333333333"/>
    </contour>
  </outline>
</glyph>
<glyph name="f" format="2">
  <advance width="832.7070707070707"/>
  <unicode hex="0066"/>
  <outline>
    <contour>
      <point x="195.5050505050505" y="0.0" type="line"/>
      <point x="567.4444444444445" y="0.0" type="line"/>
      <point x="567.4444444444445" y="1162.919191919192" type="line" smooth="yes"/>
      <point x="567.4444444444445" y="1283.9292929292928"/>
      <point x="629.8282828282829" y="1341.6161616161617"/>
      <point x="781.070707070707" y="1341.6161616161617" type="curve" smooth="yes"/>
      <point x="815.4747474747476" y="1341.6161616161617"/>
      <point x="847.0202020202021" y="1339.1919191919192"/>
      <point x="884.7171717171718" y="1334.4848484848485" type="curve"/>
      <point x="884.7171717171718" y="1624.0" type="line"/>
      <point x="831.1313131313132" y="1632.0"/>
      <point x="780.8484848484849" y="1636.0"/>
      <point x="720.6767676767677" y="1636.0" type="curve" smooth="yes"/>
      <point x="380.62626262626264" y="1636.0"/>
      <point x="195.5050505050505" y="1451.020202020202"/>
      <point x="195.5050505050505" y="1145.3232323232323" type="curve" smooth="yes"/>
    </contour>
    <contour>
      <point x="27.02020202020202" y="804.7878787878788" type="line"/>
      <point x="837.1313131313132" y="804.7878787878788" type="line"/>
      <point x="837.1313131313132" y="1097.171717171717" type="line"/>
      <point x="27.02020202020202" y="1097.171717171717" type="line"/>
    </contour>
  </outline>
</glyph>
<glyph name="g" format="2">
  <advance width="1265.4353333333333"/>
  <unicode hex="0067"/>
  <anchor x="634.7316666666667" y="-440.0" name="bottom"/>
  <anchor x="658.821" y="1200.0" name="top"/>
  <outline>
    <contour>
      <point x="521.9216666666666" y="-460.0" type="curve" smooth="yes"/>
      <point x="952.4576666666667" y="-460.0"/>
      <point x="1158.2396666666668" y="-284.10066666666665"/>
      <point x="1158.2396666666668" y="128.07233333333335" type="curve" smooth="yes"/>
      <point x="1158.2396666666668" y="1049.6983333333333" type="line"/>
      <point x="1030.3626666666667" y="1092.0446666666667"/>
      <point x="855.955" y="1114.9273333333333"/>
      <point x="706.4746666666667" y="1114.9273333333333" type="curve" smooth="yes"/>
      <point x="269.21233333333333" y="1114.067"/>
      <point x="60.68166666666666" y="899.514"/>
      <point x="60.68166666666666" y="526.6033333333334" type="curve" smooth="yes"/>
      <point x="60.68166666666666" y="165.03900000000002"/>
      <point x="264.46933333333334" y="-4.234666666666664"/>
      <point x="488.609" y="-4.234666666666664" type="curve" smooth="yes"/>
      <point x="609.123" y="-4.234666666666664"/>
      <point x="703.218" y="39.86033333333333"/>
      <point x="765.9163333333333" y="118.162" type="curve"/>
      <point x="783.1006666666667" y="118.162" type="line"/>
      <point x="783.1006666666667" y="57.68700000000004" type="line" smooth="yes"/>
      <point x="783.1006666666667" y="-106.72666666666663"/>
      <point x="697.514" y="-174.61499999999995"/>
      <point x="491.08933333333334" y="-174.61499999999995" type="curve" smooth="yes"/>
      <point x="388.76533333333333" y="-174.61499999999995"/>
      <point x="265.3743333333333" y="-159.47533333333328"/>
      <point x="139.447" y="-126.77699999999996" type="curve"/>
      <point x="139.447" y="-416.743" type="line"/>
      <point x="265.88266666666664" y="-448.02233333333334"/>
      <point x="400.08933333333334" y="-460.0"/>
    </contour>
    <contour>
      <point x="636.2846666666667" y="298.3570000000001" type="curve" smooth="yes"/>
      <point x="512.251" y="298.3570000000001"/>
      <point x="437.2396666666667" y="356.899"/>
      <point x="437.2396666666667" y="557.8323333333334" type="curve" smooth="yes"/>
      <point x="437.2396666666667" y="757.2516666666667"/>
      <point x="521.1336666666667" y="833.8439999999999"/>
      <point x="673.2233333333334" y="833.8439999999999" type="curve" smooth="yes"/>
      <point x="714.067" y="833.8439999999999"/>
      <point x="752.9106666666667" y="828.7266666666667"/>
      <point x="783.1006666666667" y="822.3299999999999" type="curve"/>
      <point x="783.1006666666667" y="342.3516666666667" type="line"/>
      <point x="742.6536666666666" y="312.3626666666667"/>
      <point x="687.8993333333333" y="298.3570000000001"/>
    </contour>
  </outline>
</glyph>
<glyph name="h" format="2">
  <advance width="1252.7070707070707"/>
  <unicode hex="0068"/>
  <anchor x="630.8484848484849" y="0.0" name="bottom"/>
  <anchor x="630.8484848484849" y="548.5858585858585" name="center"/>
  <anchor x="107.32323232323232" y="1350.8484848484848" name="stroke"/>
  <anchor x="630.8484848484849" y="1616.0" name="top"/>
  <outline>
    <contour>
      <point x="107.32323232323232" y="0.0" type="line"/>
      <point x="481.83838383838383" y="0.0" type="line"/>
      <point x="481.83838383838383" y="724.070707070707" type="line"/>
      <point x="521.7474747474748" y="768.9292929292928"/>
      <point x="587.6161616161617" y="793.6060606060606"/>
      <point x="648.9494949494949" y="793.6060606060606" type="curve" smooth="yes"/>
      <point x="729.2424242424242" y="793.6060606060606"/>
      <point x="778.0" y="757.8080808080808"/>
      <point x="778.0" y="642.9797979797979" type="curve" smooth="yes"/>
      <point x="778.0" y="0.0" type="line"/>
      <point x="1152.5151515151515" y="0.0" type="line"/>
      <point x="1152.5151515151515" y="669.4545454545455" type="line" smooth="yes"/>
      <point x="1152.5151515151515" y="991.1212121212121"/>
      <point x="991.3333333333334" y="1114.888888888889"/>
      <point x="790.1818181818182" y="1114.888888888889" type="curve" smooth="yes"/>
      <point x="666.6262626262626" y="1114.888888888889"/>
      <point x="569.1010101010102" y="1070.4646464646464"/>
      <point x="499.0" y="990.7777777777778" type="curve"/>
      <point x="481.83838383838383" y="990.7777777777778" type="line"/>
      <point x="481.83838383838383" y="1616.0" type="line"/>
      <point x="107.32323232323232" y="1616.0" type="line"/>
    </contour>
  </outline>
</glyph>
<glyph name="k" format="2">
  <advance width="1228.8653333333334"/>
  <unicode hex="006B"/>
  <anchor x="646.3293333333334" y="0.0" name="bottom"/>
  <anchor x="295.19533333333334" y="1616.0" name="top"/>
  <outline>
    <contour>
      <point x="860.3296666666666" y="0.0" type="line"/>
      <point x="1266.234" y="0.0" type="line"/>
      <point x="869.0830000000001" y="620.6423333333333" type="line"/>
      <point x="869.0830000000001" y="522.933" type="line"/>
      <point x="1229.9323333333334" y="1097.2066666666667" type="line"/>
      <point x="832.771" y="1097.2066666666667" type="line"/>
      <point x="490.96633333333335" y="564.0446666666667" type="line"/>
    </contour>
    <contour>
      <point x="452.56933333333336" y="415.03933333333333" type="line"/>
      <point x="619.1393333333333" y="415.03933333333333" type="line"/>
      <point x="619.1393333333333" y="713.05" type="line"/>
      <point x="452.56933333333336" y="713.05" type="line"/>
    </contour>
    <contour>
      <point x="107.19566666666665" y="0.0" type="line"/>
      <point x="482.3346666666667" y="0.0" type="line"/>
      <point x="482.3346666666667" y="1616.0" type="line"/>
      <point x="107.19566666666665" y="1616.0" type="line"/>
    </contour>
  </outline>
</glyph>
<glyph name="l" format="2">
  <advance width="589.1616161616162"/>
  <unicode hex="006C"/>
  <anchor x="294.1515151515151" y="0.0" name="bottom"/>
  <anchor x="576.0808080808081" y="1616.0" name="caronalt"/>
  <anchor x="744.7272727272727" y="794.0" name="periodcentered"/>
  <anchor x="295.01010101010104" y="714.0" name="slash"/>
  <anchor x="295.01010101010104" y="1616.0" name="top"/>
  <outline>
    <contour>
      <point x="107.32323232323232" y="0.0" type="line"/>
      <point x="481.83838383838383" y="0.0" type="line"/>
      <point x="481.83838383838383" y="1616.0" type="line"/>
      <point x="107.32323232323232" y="1616.0" type="line"/>
    </contour>
  </outline>
</glyph>
<glyph name="m" format="2">
  <advance width="1842.7816666666668"/>
  <unicode hex="006D"/>
  <anchor x="930.1003333333333" y="0.0" name="bottom"/>
  <anchor x="930.1003333333333" y="1200.0" name="top"/>
  <outline>
    <contour>
      <point x="107.19566666666665" y="0.0" type="line"/>
      <point x="482.3346666666667" y="0.0" type="line"/>
      <point x="482.3346666666667" y="723.112" type="line"/>
      <point x="516.575" y="768.4976666666666"/>
      <point x="574.1673333333333" y="793.4083333333333"/>
      <point x="631.5696666666666" y="793.4083333333333" type="curve" smooth="yes"/>
      <point x="702.7429999999999" y="793.4083333333333"/>
      <point x="745.542" y="758.2629999999999"/>
      <point x="745.542" y="646.8046666666667" type="curve" smooth="yes"/>
      <point x="745.542" y="0.0" type="line"/>
      <point x="1112.938" y="0.0" type="line"/>
      <point x="1112.938" y="680.4973333333334" type="line" smooth="yes"/>
      <point x="1112.938" y="992.8156666666666"/>
      <point x="961.2676666666666" y="1114.9273333333333"/>
      <point x="761.5973333333334" y="1114.9273333333333" type="curve" smooth="yes"/>
      <point x="634.1336666666667" y="1114.9273333333333"/>
      <point x="532.1783333333334" y="1071.229"/>
      <point x="457.3626666666667" y="989.5753333333333" type="curve"/>
      <point x="440.7593333333334" y="989.5753333333333" type="line"/>
      <point x="415.83200000000005" y="1097.2066666666667" type="line"/>
      <point x="107.19566666666665" y="1097.2066666666667" type="line"/>
    </contour>
    <contour>
      <point x="1368.4246666666666" y="0.0" type="line"/>
      <point x="1742.7033333333334" y="0.0" type="line"/>
      <point x="1742.7033333333334" y="667.5923333333333" type="line" smooth="yes"/>
      <point x="1742.7033333333334" y="991.095"/>
      <point x="1584.3123333333333" y="1114.9273333333333"/>
      <point x="1367.0163333333335" y="1114.9273333333333" type="curve" smooth="yes"/>
      <point x="1241.5526666666667" y="1114.9273333333333"/>
      <point x="1115.318" y="1066.2066666666667"/>
      <point x="1020.0833333333334" y="953.4803333333333" type="curve"/>
      <point x="1092.5413333333333" y="718.922" type="line"/>
      <point x="1128.642" y="768.4976666666666"/>
      <point x="1186.0276666666666" y="793.4083333333333"/>
      <point x="1248.592" y="793.4083333333333" type="curve" smooth="yes"/>
      <point x="1319.0446666666667" y="793.4083333333333"/>
      <point x="1368.4246666666666" y="758.2629999999999"/>
      <point x="1368.4246666666666" y="646.8046666666667" type="curve" smooth="yes"/>
    </contour>
  </outline>
</glyph>
<glyph name="n" format="2">
  <advance width="1253.0443333333333"/>
  <unicode hex="006E"/>
  <anchor x="11.279333333333334" y="1200.0" name="apostrophe"/>
  <anchor x="631.011" y="0.0" name="bottom"/>
  <anchor x="631.011" y="1200.0" name="top"/>
  <outline>
    <contour>
      <point x="107.19566666666665" y="0.0" type="line"/>
      <point x="482.3346666666667" y="0.0" type="line"/>
      <point x="482.3346666666667" y="723.9499999999999" type="line"/>
      <point x="522.413" y="769.0563333333333"/>
      <point x="586.9606666666666" y="793.4083333333333"/>
      <point x="649.0613333333333" y="793.4083333333333" type="curve" smooth="yes"/>
      <point x="729.609" y="793.4083333333333"/>
      <point x="777.827" y="757.9836666666666"/>
      <point x="777.827" y="645.084" type="curve" smooth="yes"/>
      <point x="777.827" y="0.0" type="line"/>
      <point x="1152.9660000000001" y="0.0" type="line"/>
      <point x="1152.9660000000001" y="669.1733333333333" type="line" smooth="yes"/>
      <point x="1152.9660000000001" y="990.095"/>
      <point x="991.7370000000001" y="1114.9273333333333"/>
      <point x="771.508" y="1114.9273333333333" type="curve" smooth="yes"/>
      <point x="644.3906666666667" y="1114.9273333333333"/>
      <point x="534.8766666666667" y="1070.6703333333332"/>
      <point x="457.3626666666667" y="989.715" type="curve"/>
      <point x="440.7593333333334" y="989.715" type="line"/>
      <point x="415.83200000000005" y="1097.2066666666667" type="line"/>
      <point x="107.19566666666665" y="1097.2066666666667" type="line"/>
    </contour>
  </outline>
</glyph>
<glyph name="o" format="2">
  <advance width="1236.5858585858587"/>
  <unicode hex="006F"/>
  <anchor x="618.2929292929293" y="0.0" name="bottom"/>
  <anchor x="618.2929292929293" y="548.5858585858585" name="center"/>
  <anchor x="801.2323232323232" y="0.0" name="ogonek"/>
  <anchor x="618.2929292929293" y="1200.0" name="top"/>
  <anchor x="636.969696969697" y="1097.171717171717" name="topright"/>
  <outline>
    <contour>
      <point x="618.2929292929293" y="-21.434343434343436" type="curve" smooth="yes"/>
      <point x="962.1616161616162" y="-21.434343434343436"/>
      <point x="1175.8080808080808" y="171.33333333333334"/>
      <point x="1175.8080808080808" y="546.8686868686868" type="curve" smooth="yes"/>
      <point x="1175.8080808080808" y="919.5353535353536"/>
      <point x="971.6060606060606" y="1114.888888888889"/>
      <point x="618.2929292929293" y="1114.888888888889" type="curve" smooth="yes"/>
      <point x="264.979797979798" y="1114.888888888889"/>
      <point x="60.77777777777777" y="923.2626262626262"/>
      <point x="60.77777777777777" y="545.1515151515151" type="curve" smooth="yes"/>
      <point x="60.77777777777777" y="170.76767676767676"/>
      <point x="274.42424242424244" y="-21.434343434343436"/>
    </contour>
    <contour>
      <point x="618.2929292929293" y="259.21212121212125" type="curve" smooth="yes"/>
      <point x="500.73737373737373" y="259.21212121212125"/>
      <point x="436.71717171717177" y="323.969696969697"/>
      <point x="436.71717171717177" y="547.2929292929293" type="curve" smooth="yes"/>
      <point x="436.71717171717177" y="769.7676767676767"/>
      <point x="502.4545454545455" y="834.2424242424242"/>
      <point x="618.2929292929293" y="834.2424242424242" type="curve" smooth="yes"/>
      <point x="734.1313131313132" y="834.2424242424242"/>
      <point x="799.8686868686868" y="769.7676767676767"/>
      <point x="799.8686868686868" y="544.7272727272727" type="curve" smooth="yes"/>
      <point x="799.8686868686868" y="323.969696969697"/>
      <point x="735.8484848484849" y="259.21212121212125"/>
    </contour>
  </outline>
</glyph>
<glyph name="p" format="2">
  <advance width="1265.4353333333333"/>
  <unicode hex="0070"/>
  <outline>
    <contour>
      <point x="107.19566666666665" y="-440.0" type="line"/>
      <point x="482.3346666666667" y="-440.0" type="line"/>
      <point x="482.3346666666667" y="-14.765333333333336" type="line"/>
      <point x="514.8040000000001" y="-17.743000000000002"/>
      <point x="552.8096666666667" y="-20.581"/>
      <point x="591.1170000000001" y="-20.581" type="curve" smooth="yes"/>
      <point x="993.7816666666668" y="-20.581"/>
      <point x="1204.7536666666667" y="191.39100000000002"/>
      <point x="1204.7536666666667" y="569.4636666666667" type="curve" smooth="yes"/>
      <point x="1204.7536666666667" y="955.1173333333334"/>
      <point x="993.0833333333334" y="1114.9273333333333"/>
      <point x="748.4576666666667" y="1114.9273333333333" type="curve" smooth="yes"/>
      <point x="619.318" y="1114.9273333333333"/>
      <point x="522.5023333333334" y="1062.229"/>
      <point x="460.80400000000003" y="981.3686666666666" type="curve"/>
      <point x="444.3403333333334" y="981.3686666666666" type="line"/>
      <point x="421.85433333333333" y="1097.2066666666667" type="line"/>
      <point x="107.19566666666665" y="1097.2066666666667" type="line"/>
    </contour>
    <contour>
      <point x="590.6756666666668" y="261.3626666666667" type="curve" smooth="yes"/>
      <point x="553.9493333333334" y="261.3626666666667"/>
      <point x="512.5246666666667" y="266.06100000000004"/>
      <point x="482.3346666666667" y="271.4576666666667" type="curve"/>
      <point x="482.3346666666667" y="757.76" type="line"/>
      <point x="521.9213333333335" y="794.0283333333333"/>
      <point x="579.6980000000001" y="810.615"/>
      <point x="634.4746666666667" y="810.615" type="curve" smooth="yes"/>
      <point x="750.6033333333334" y="810.615"/>
      <point x="828.1956666666666" y="751.2126666666667"/>
      <point x="828.1956666666666" y="540.8156666666666" type="curve" smooth="yes"/>
      <point x="828.1956666666666" y="337.95500000000004"/>
      <point x="749.4636666666667" y="261.3626666666667"/>
    </contour>
  </outline>
</glyph>
<glyph name="q" format="2">
  <advance width="1265.4353333333333"/>
  <unicode hex="0071"/>
  <outline>
    <contour>
      <point x="783.1006666666667" y="-440.0" type="line"/>
      <point x="1158.2396666666668" y="-440.0" type="line"/>
      <point x="1158.2396666666668" y="1049.6983333333333" type="line"/>
      <point x="1030.3626666666667" y="1092.0446666666667"/>
      <point x="855.955" y="1114.9273333333333"/>
      <point x="705.6143333333333" y="1114.9273333333333" type="curve" smooth="yes"/>
      <point x="269.21233333333333" y="1114.9273333333333"/>
      <point x="60.68166666666666" y="906.3966666666666"/>
      <point x="60.68166666666666" y="523.162" type="curve" smooth="yes"/>
      <point x="60.68166666666666" y="147.83233333333334"/>
      <point x="258.447" y="-20.581"/>
      <point x="488.609" y="-20.581" type="curve" smooth="yes"/>
      <point x="609.123" y="-20.581"/>
      <point x="703.218" y="23.513999999999996"/>
      <point x="765.9163333333333" y="101.81566666666666" type="curve"/>
      <point x="783.1006666666667" y="101.81566666666666" type="line"/>
    </contour>
    <contour>
      <point x="636.2846666666667" y="284.5916666666667" type="curve" smooth="yes"/>
      <point x="513.9716666666667" y="284.5916666666667"/>
      <point x="437.2396666666667" y="343.994"/>
      <point x="437.2396666666667" y="552.6703333333334" type="curve" smooth="yes"/>
      <point x="437.2396666666667" y="757.2516666666667"/>
      <point x="521.1336666666667" y="833.8439999999999"/>
      <point x="672.363" y="833.8439999999999" type="curve" smooth="yes"/>
      <point x="714.067" y="833.8439999999999"/>
      <point x="752.9106666666667" y="828.7266666666667"/>
      <point x="783.1006666666667" y="822.3299999999999" type="curve"/>
      <point x="783.1006666666667" y="328.58633333333336" type="line"/>
      <point x="742.6536666666666" y="298.5973333333334"/>
      <point x="687.8993333333333" y="284.5916666666667"/>
    </contour>
  </outline>
</glyph>
<glyph name="r" format="2">
  <advance width="840.765"/>
  <unicode hex="0072"/>
  <anchor x="295.19533333333334" y="0.0" name="bottom"/>
  <anchor x="467.3853333333334" y="1200.0" name="top"/>
  <outline>
    <contour>
      <point x="107.19566666666665" y="0.0" type="line"/>
      <point x="482.3346666666667" y="0.0" type="line"/>
      <point x="482.3346666666667" y="689.7433333333333" type="line"/>
      <point x="530.642" y="745.7769999999999"/>
      <point x="627.0443333333334" y="777.1066666666666"/>
      <point x="716.0946666666667" y="777.1066666666666" type="curve" smooth="yes"/>
      <point x="750.8153333333333" y="777.1066666666666"/>
      <point x="793.7426666666667" y="775.2463333333333"/>
      <point x="829.4856666666667" y="767.805" type="curve"/>
      <point x="829.4856666666667" y="1105.9496666666666" type="line"/>
      <point x="805.0666666666667" y="1110.0893333333333"/>
      <point x="771.6030000000001" y="1113.81"/>
      <point x="739.4633333333334" y="1113.81" type="curve" smooth="yes"/>
      <point x="617.4633333333334" y="1113.81"/>
      <point x="515.994" y="1067.2736666666667"/>
      <point x="459.08333333333337" y="957.0893333333333" type="curve"/>
      <point x="442.48" y="957.0893333333333" type="line"/>
      <point x="413.25100000000003" y="1097.2066666666667" type="line"/>
      <point x="107.19566666666665" y="1097.2066666666667" type="line"/>
    </contour>
  </outline>
</glyph>
<glyph name="s" format="2">
  <advance width="1005.3939393939394"/>
  <unicode hex="0073"/>
  <anchor x="506.979797979798" y="0.0" name="bottom"/>
  <anchor x="506.979797979798" y="1200.0" name="top"/>
  <outline>
    <contour>
      <point x="451.24242424242425" y="-21.434343434343436" type="curve" smooth="yes"/>
      <point x="775.070707070707" y="-21.434343434343436"/>
      <point x="963.1717171717171" y="116.60606060606061"/>
      <point x="963.1717171717171" y="342.67676767676767" type="curve" smooth="yes"/>
      <point x="963.1717171717171" y="543.6262626262626"/>
      <point x="855.3939393939395" y="629.6161616161617"/>
      <point x="662.6969696969697" y="664.4545454545455" type="curve" smooth="yes"/>
      <point x="474.45454545454544" y="697.6060606060606" type="line" smooth="yes"/>
      <point x="418.32323232323233" y="708.2828282828283"/>
      <point x="399.0909090909091" y="727.0505050505051"/>
      <point x="399.0909090909091" y="760.4949494949495" type="curve" smooth="yes"/>
      <point x="399.0909090909091" y="804.2121212121212"/>
      <point x="436.4343434343434" y="845.4040404040404"/>
      <point x="608.6363636363637" y="845.4040404040404" type="curve" smooth="yes"/>
      <point x="712.8181818181818" y="845.4040404040404"/>
      <point x="818.1717171717172" y="831.3939393939394"/>
      <point x="902.0202020202021" y="808.2525252525252" type="curve"/>
      <point x="902.0202020202021" y="1078.878787878788" type="line"/>
      <point x="820.010101010101" y="1100.5959595959596"/>
      <point x="708.2323232323233" y="1114.888888888889"/>
      <point x="597.4747474747475" y="1114.888888888889" type="curve" smooth="yes"/>
      <point x="227.7171717171717" y="1114.888888888889"/>
      <point x="52.48484848484848" y="971.7171717171717"/>
      <point x="52.48484848484848" y="752.3434343434343" type="curve" smooth="yes"/>
      <point x="52.48484848484848" y="571.4242424242424"/>
      <point x="144.94949494949495" y="466.26262626262627"/>
      <point x="353.54545454545456" y="429.8484848484849" type="curve" smooth="yes"/>
      <point x="541.7878787878788" y="396.6969696969697" type="line" smooth="yes"/>
      <point x="597.9191919191919" y="386.020202020202"/>
      <point x="616.5656565656566" y="368.09090909090907"/>
      <point x="616.5656565656566" y="329.80808080808083" type="curve" smooth="yes"/>
      <point x="616.5656565656566" y="279.3939393939394"/>
      <point x="574.5151515151515" y="248.05050505050508"/>
      <point x="444.7979797979798" y="248.05050505050508" type="curve" smooth="yes"/>
      <point x="318.020202020202" y="248.05050505050508"/>
      <point x="189.93939393939394" y="266.7777777777778"/>
      <point x="83.93939393939394" y="298.7777777777778" type="curve"/>
      <point x="83.93939393939394" y="28.151515151515152" type="line"/>
      <point x="191.40404040404042" y="-5.0"/>
      <point x="319.6161616161616" y="-21.434343434343436"/>
    </contour>
  </outline>
</glyph>
<glyph name="t" format="2">
  <advance width="876.3906666666667"/>
  <unicode hex="0074"/>
  <anchor x="511.34066666666666" y="0.0" name="bottom"/>
  <anchor x="679.251" y="1616.0" name="caronalt"/>
  <anchor x="187.42466666666667" y="571.3856666666667" name="stroke"/>
  <anchor x="375.4243333333334" y="1514.4133333333334" name="top"/>
  <anchor x="788.0500000000001" y="1616.0" name="topright"/>
  <outline>
    <contour>
      <point x="620.2903333333334" y="-20.581" type="curve" smooth="yes"/>
      <point x="693.3796666666667" y="-20.581"/>
      <point x="776.2343333333333" y="-9.558666666666666"/>
      <point x="835.117" y="4.162000000000003" type="curve"/>
      <point x="835.117" y="297.56933333333336" type="line"/>
      <point x="791.3013333333333" y="290.5916666666667"/>
      <point x="758.6253333333334" y="286.3123333333334"/>
      <point x="725.8096666666668" y="286.3123333333334" type="curve" smooth="yes"/>
      <point x="607.547" y="286.3123333333334"/>
      <point x="562.5636666666667" y="329.20066666666673"/>
      <point x="562.5636666666667" y="467.39633333333336" type="curve" smooth="yes"/>
      <point x="562.5636666666667" y="1480.0" type="line"/>
      <point x="256.5083333333333" y="1480.0" type="line"/>
      <point x="187.42466666666667" y="1097.2066666666667" type="line"/>
      <point x="187.42466666666667" y="408.93833333333333" type="line" smooth="yes"/>
      <point x="187.42466666666667" y="111.69266666666667"/>
      <point x="340.6983333333333" y="-20.581"/>
    </contour>
    <contour>
      <point x="19.04466666666667" y="804.358" type="line"/>
      <point x="832.0443333333334" y="804.358" type="line"/>
      <point x="832.0443333333334" y="1097.2066666666667" type="line"/>
      <point x="19.04466666666667" y="1097.2066666666667" type="line"/>
    </contour>
  </outline>
</glyph>
<glyph name="u" format="2">
  <advance width="1243.9046666666668"/>
  <unicode hex="0075"/>
  <anchor x="618.8936666666667" y="0.0" name="bottom"/>
  <anchor x="1136.709" y="0.0" name="ogonek"/>
  <anchor x="618.8936666666667" y="1200.0" name="top"/>
  <anchor x="802.0056666666667" y="1097.2066666666667" name="topright"/>
  <outline>
    <contour>
      <point x="486.8603333333333" y="-18.860333333333333" type="curve" smooth="yes"/>
      <point x="603.676" y="-18.860333333333333"/>
      <point x="707.1676666666667" y="24.698333333333334"/>
      <point x="788.2626666666666" y="106.79333333333332" type="curve"/>
      <point x="803.1453333333334" y="106.79333333333332" type="line"/>
      <point x="828.0726666666667" y="0.0" type="line"/>
      <point x="1136.709" y="0.0" type="line"/>
      <point x="1136.709" y="1097.2066666666667" type="line"/>
      <point x="761.5699999999999" y="1097.2066666666667" type="line"/>
      <point x="761.5699999999999" y="372.117" type="line"/>
      <point x="721.9106666666667" y="327.56933333333336"/>
      <point x="656.201" y="302.6586666666667"/>
      <point x="598.983" y="302.6586666666667" type="curve" smooth="yes"/>
      <point x="523.8543333333334" y="302.6586666666667"/>
      <point x="475.2173333333334" y="338.6643333333334"/>
      <point x="475.2173333333334" y="451.564" type="curve" smooth="yes"/>
      <point x="475.2173333333334" y="1097.2066666666667" type="line"/>
      <point x="100.07833333333332" y="1097.2066666666667" type="line"/>
      <point x="100.07833333333332" y="425.03333333333336" type="line" smooth="yes"/>
      <point x="100.07833333333332" y="104.97200000000001"/>
      <point x="263.028" y="-18.860333333333333"/>
    </contour>
  </outline>
</glyph>
<glyph name="v" format="2">
  <advance width="1203.6363636363635"/>
  <unicode hex="0076"/>
  <anchor x="602.030303030303" y="0.0" name="bottom"/>
  <anchor x="602.030303030303" y="1200.0" name="top"/>
  <outline>
    <contour>
      <point x="367.7171717171717" y="0.0" type="line"/>
      <point x="835.0606060606061" y="0.0" type="line"/>
      <point x="1210.4040404040404" y="1097.171717171717" type="line"/>
      <point x="842.9090909090909" y="1097.171717171717" type="line"/>
      <point x="600.7575757575758" y="300.44444444444446" type="line"/>
      <point x="625.6262626262626" y="300.44444444444446" type="line"/>
      <point x="383.4747474747475" y="1097.171717171717" type="line"/>
      <point x="-6.767676767676768" y="1097.171717171717" type="line"/>
    </contour>
  </outline>
</glyph>
<glyph name="w" format="2">
  <advance width="1852.8486666666668"/>
  <unicode hex="0077"/>
  <anchor x="927.4243333333334" y="0.0" name="bottom"/>
  <anchor x="927.5640000000001" y="1200.0" name="top"/>
  <outline>
    <contour>
      <point x="323.57" y="0.0" type="line"/>
      <point x="734.1726666666667" y="0.0" type="line"/>
      <point x="939.726" y="777.6206666666666" type="line"/>
      <point x="921.0053333333333" y="777.6206666666666" type="line"/>
      <point x="1120.5363333333335" y="0.0" type="line"/>
      <point x="1531.1390000000001" y="0.0" type="line"/>
      <point x="1815.5413333333333" y="1097.2066666666667" type="line"/>
      <point x="1476.9776666666667" y="1097.2066666666667" type="line"/>
      <point x="1299.05" y="371.2283333333334" type="line"/>
      <point x="1321.9326666666666" y="371.2283333333334" type="line"/>
      <point x="1140.4686666666666" y="1097.2066666666667" type="line"/>
      <point x="729.866" y="1097.2066666666667" type="line"/>
      <point x="544.24" y="371.2283333333334" type="line"/>
      <point x="559.3796666666667" y="371.2283333333334" type="line"/>
      <point x="390.77600000000007" y="1097.2066666666667" type="line"/>
      <point x="37.30733333333333" y="1097.2066666666667" type="line"/>
    </contour>
  </outline>
</glyph>
<glyph name="x" format="2">
  <advance width="1166.8080808080808"/>
  <unicode hex="0078"/>
  <anchor x="583.6161616161617" y="0.0" name="bottom"/>
  <anchor x="584.4747474747476" y="1200.0" name="top"/>
  <outline>
    <contour>
      <point x="774.0505050505051" y="0.0" type="line"/>
      <point x="1183.7373737373737" y="0.0" type="line"/>
      <point x="801.4848484848485" y="557.1616161616162" type="line"/>
      <point x="587.909090909091" y="814.7878787878788" type="line"/>
      <point x="401.0404040404041" y="1097.171717171717" type="line"/>
      <point x="-8.646464646464654" y="1097.171717171717" type="line"/>
      <point x="362.88888888888886" y="552.5858585858585" type="line"/>
      <point x="580.7575757575758" y="296.81818181818176" type="line"/>
    </contour>
    <contour>
      <point x="-15.64646464646465" y="0.0" type="line"/>
      <point x="382.7373737373738" y="0.0" type="line"/>
      <point x="580.7575757575758" y="296.81818181818176" type="line"/>
      <point x="801.4848484848485" y="557.1616161616162" type="line"/>
      <point x="1170.4444444444443" y="1097.171717171717" type="line"/>
      <point x="772.3434343434343" y="1097.171717171717" type="line"/>
      <point x="587.909090909091" y="814.7878787878788" type="line"/>
      <point x="362.88888888888886" y="552.5858585858585" type="line"/>
    </contour>
  </outline>
</glyph>
<glyph name="y" format="2">
  <advance width="1203.6363636363635"/>
  <unicode hex="0079"/>
  <anchor x="1029.5151515151515" y="0.0" name="bottom"/>
  <anchor x="602.030303030303" y="1200.0" name="top"/>
  <outline>
    <contour>
      <point x="317.8888888888889" y="-440.0" type="line"/>
      <point x="683.5252525252525" y="-440.0" type="line"/>
      <point x="1210.4040404040404" y="1097.171717171717" type="line"/>
      <point x="842.9090909090909" y="1097.171717171717" type="line"/>
      <point x="600.7575757575758" y="300.44444444444446" type="line"/>
      <point x="470.42424242424244" y="0.0" type="line"/>
    </contour>
    <contour>
      <point x="367.7171717171717" y="0.0" type="line"/>
      <point x="714.1818181818182" y="0.0" type="line"/>
      <point x="383.4747474747475" y="1097.171717171717" type="line"/>
      <point x="-6.767676767676768" y="1097.171717171717" type="line"/>
    </contour>
  </outline>
</glyph>
<glyph name="z" format="2">
  <advance width="1045.67"/>
  <unicode hex="007A"/>
  <anchor x="532.2176666666667" y="0.0" name="bottom"/>
  <anchor x="532.2176666666667" y="1200.0" name="top"/>
  <outline>
    <contour>
      <point x="66.162" y="0.0" type="line"/>
      <point x="997.2733333333333" y="0.0" type="line"/>
      <point x="997.2733333333333" y="292.8486666666667" type="line"/>
      <point x="475.2506666666667" y="292.8486666666667" type="line"/>
      <point x="475.2506666666667" y="227.41300000000004" type="line"/>
      <point x="986.994" y="859.3299999999999" type="line"/>
      <point x="986.994" y="1097.2066666666667" type="line"/>
      <point x="76.44133333333333" y="1097.2066666666667" type="line"/>
      <point x="76.44133333333333" y="804.358" type="line"/>
      <point x="577.9053333333333" y="804.358" type="line"/>
      <point x="577.9053333333333" y="869.7936666666667" type="line"/>
      <point x="66.162" y="237.8766666666667" type="line"/>
    </contour>
  </outline>
</glyph>
<glyph name="braceleft" format="2">
  <advance width="775.8989898989898"/>
  <unicode hex="007B"/>
  <outline>
    <contour>
      <point x="617.7676767676768" y="-460.0" type="curve" smooth="yes"/>
      <point x="690.1010101010102" y="-460.0"/>
      <point x="750.6969696969697" y="-454.2828282828283"/>
      <point x="803.8787878787879" y="-446.5656565656566" type="curve"/>
      <point x="803.8787878787879" y="-162.18181818181816" type="line"/>
      <point x="684.1717171717172" y="-162.18181818181816" type="line" smooth="yes"/>
      <point x="599.040404040404" y="-162.18181818181816"/>
      <point x="554.969696969697" y="-129.25252525252523"/>
      <point x="554.969696969697" y="-45.69696969696969" type="curve" smooth="yes"/>
      <point x="554.969696969697" y="357.93939393939394" type="line" smooth="yes"/>
      <point x="554.969696969697" y="545.4545454545455"/>
      <point x="455.7373737373738" y="648.3636363636364"/>
      <point x="196.32323232323233" y="652.040404040404" type="curve"/>
      <point x="196.32323232323233" y="609.1313131313132" type="line"/>
      <point x="455.7373737373738" y="612.8080808080808"/>
      <point x="554.969696969697" y="715.7171717171717"/>
      <point x="554.969696969697" y="903.2323232323232" type="curve" smooth="yes"/>
      <point x="554.969696969697" y="1221.6969696969697" type="line" smooth="yes"/>
      <point x="554.969696969697" y="1305.2525252525252"/>
      <point x="599.040404040404" y="1338.1818181818182"/>
      <point x="684.1717171717172" y="1338.1818181818182" type="curve" smooth="yes"/>
      <point x="803.8787878787879" y="1338.1818181818182" type="line"/>
      <point x="803.8787878787879" y="1622.5656565656566" type="line"/>
      <point x="750.6969696969697" y="1630.2828282828282"/>
      <point x="690.1010101010102" y="1636.0"/>
      <point x="617.7676767676768" y="1636.0" type="curve" smooth="yes"/>
      <point x="327.93939393939394" y="1636.0"/>
      <point x="180.45454545454544" y="1495.5151515151515"/>
      <point x="180.45454545454544" y="1234.4444444444443" type="curve" smooth="yes"/>
      <point x="180.45454545454544" y="896.6666666666666" type="line" smooth="yes"/>
      <point x="180.45454545454544" y="822.1919191919192"/>
      <point x="133.9090909090909" y="776.7777777777778"/>
      <point x="60.848484848484844" y="776.7777777777778" type="curve" smooth="yes"/>
      <point x="0.343434343434339" y="776.7777777777778" type="line"/>
      <point x="0.343434343434339" y="484.3939393939394" type="line"/>
      <point x="60.848484848484844" y="484.3939393939394" type="line" smooth="yes"/>
      <point x="133.9090909090909" y="484.3939393939394"/>
      <point x="180.45454545454544" y="438.979797979798"/>
      <point x="180.45454545454544" y="364.5050505050505" type="curve" smooth="yes"/>
      <point x="180.45454545454544" y="-58.44444444444443" type="line" smooth="yes"/>
      <point x="180.45454545454544" y="-319.5151515151515"/>
      <point x="327.93939393939394" y="-460.0"/>
    </contour>
  </outline>
</glyph>
<glyph name="bar" format="2">
  <advance width="577.05"/>
  <unicode hex="007C"/>
  <outline>
    <contour>
      <point x="120.31299999999999" y="-440.0" type="line"/>
      <point x="456.7370000000001" y="-440.0" type="line"/>
      <point x="456.7370000000001" y="1616.0" type="line"/>
      <point x="120.31299999999999" y="1616.0" type="line"/>
    </contour>
  </outline>
</glyph>
<glyph name="braceright" format="2">
  <advance width="776.1226666666666"/>
  <unicode hex="007D"/>
  <outline>
    <contour>
      <point x="158.29033333333336" y="-460.0" type="curve" smooth="yes"/>
      <point x="448.25666666666666" y="-460.0"/>
      <point x="595.8096666666668" y="-319.447"/>
      <point x="595.8096666666668" y="-58.29066666666665" type="curve" smooth="yes"/>
      <point x="595.8096666666668" y="364.42466666666667" type="line" smooth="yes"/>
      <point x="595.8096666666668" y="438.7823333333333"/>
      <point x="642.3236666666667" y="484.179"/>
      <point x="715.2846666666667" y="484.179" type="curve" smooth="yes"/>
      <point x="775.8823333333333" y="484.179" type="line"/>
      <point x="775.8823333333333" y="777.0276666666667" type="line"/>
      <point x="715.2846666666667" y="777.0276666666667" type="line" smooth="yes"/>
      <point x="642.3236666666667" y="777.0276666666667"/>
      <point x="595.8096666666668" y="822.4243333333334"/>
      <point x="595.8096666666668" y="896.782" type="curve" smooth="yes"/>
      <point x="595.8096666666668" y="1234.2906666666668" type="line" smooth="yes"/>
      <point x="595.8096666666668" y="1495.447"/>
      <point x="448.25666666666666" y="1636.0"/>
      <point x="158.29033333333336" y="1636.0" type="curve" smooth="yes"/>
      <point x="85.89933333333335" y="1636.0"/>
      <point x="25.27366666666667" y="1630.2793333333334"/>
      <point x="-27.95533333333333" y="1622.5586666666666" type="curve"/>
      <point x="-27.95533333333333" y="1337.71" type="line"/>
      <point x="91.743" y="1337.71" type="line" smooth="yes"/>
      <point x="176.6873333333333" y="1337.71"/>
      <point x="220.67066666666665" y="1304.8663333333334"/>
      <point x="220.67066666666665" y="1221.503" type="curve" smooth="yes"/>
      <point x="220.67066666666665" y="903.3406666666667" type="line" smooth="yes"/>
      <point x="220.67066666666665" y="715.7206666666667"/>
      <point x="322.59233333333333" y="612.7486666666666"/>
      <point x="579.754" y="609.1173333333334" type="curve"/>
      <point x="579.754" y="652.0893333333333" type="line"/>
      <point x="322.59233333333333" y="648.458"/>
      <point x="220.67066666666665" y="545.486"/>
      <point x="220.67066666666665" y="357.866" type="curve" smooth="yes"/>
      <point x="220.67066666666665" y="-45.50299999999996" type="line" smooth="yes"/>
      <point x="220.67066666666665" y="-128.8663333333333"/>
      <point x="176.6873333333333" y="-161.70999999999995"/>
      <point x="91.743" y="-161.70999999999995" type="curve" smooth="yes"/>
      <point x="-27.95533333333333" y="-161.70999999999995" type="line"/>
      <point x="-27.95533333333333" y="-446.5586666666667" type="line"/>
      <point x="25.27366666666667" y="-454.27933333333334"/>
      <point x="85.89933333333335" y="-460.0"/>
    </contour>
  </outline>
</glyph>
<glyph name="asciitilde" format="2">
  <advance width="1108.458"/>
  <unicode hex="007E"/>
  <outline>
    <contour>
      <point x="755.4803333333333" y="560.76" type="curve" smooth="yes"/>
      <point x="861.8713333333334" y="560.76"/>
      <point x="937.0333333333333" y="591.0393333333333"/>
      <point x="1002.5416666666667" y="661.084" type="curve"/>
      <point x="1002.5416666666667" y="949.5640000000001" type="line"/>
      <point x="924.4523333333334" y="872.402"/>
      <point x="852.7093333333333" y="839.8433333333334"/>
      <point x="758.6423333333333" y="839.8433333333334" type="curve" smooth="yes"/>
      <point x="630.553" y="839.8433333333334"/>
      <point x="512.5083333333333" y="957.5640000000001"/>
      <point x="352.97766666666666" y="957.5640000000001" type="curve" smooth="yes"/>
      <point x="246.58666666666664" y="957.5640000000001"/>
      <point x="171.42466666666667" y="927.2846666666667"/>
      <point x="105.91633333333331" y="857.24" type="curve"/>
      <point x="105.91633333333331" y="568.76" type="line"/>
      <point x="184.00566666666666" y="645.922"/>
      <point x="255.74866666666665" y="678.4806666666666"/>
      <point x="349.8156666666667" y="678.4806666666666" type="curve" smooth="yes"/>
      <point x="477.905" y="678.4806666666666"/>
      <point x="595.9496666666666" y="560.76"/>
    </contour>
  </outline>
</glyph>
<glyph name="exclamdown" format="2">
  <advance width="629.7373737373738"/>
  <unicode hex="00A1"/>
  <outline>
    <contour>
      <point x="203.2929292929293" y="573.3939393939394" type="line"/>
      <point x="115.73737373737373" y="104.99999999999999" type="line"/>
      <point x="115.73737373737373" y="-380.0" type="line"/>
      <point x="514.0" y="-380.0" type="line"/>
      <point x="514.0" y="104.99999999999999" type="line"/>
      <point x="430.7373737373738" y="573.3939393939394" type="line"/>
    </contour>
    <contour>
      <point x="314.8686868686869" y="1115.7575757575758" type="curve" smooth="yes"/>
      <point x="169.82828282828282" y="1115.7575757575758"/>
      <point x="75.99999999999999" y="1030.7979797979797"/>
      <point x="75.99999999999999" y="893.2020202020202" type="curve" smooth="yes"/>
      <point x="75.99999999999999" y="755.6060606060605"/>
      <point x="166.3939393939394" y="670.3636363636363"/>
      <point x="314.8686868686869" y="670.3636363636363" type="curve" smooth="yes"/>
      <point x="463.34343434343435" y="670.3636363636363"/>
      <point x="553.7373737373738" y="759.040404040404"/>
      <point x="553.7373737373738" y="893.2020202020202" type="curve" smooth="yes"/>
      <point x="553.7373737373738" y="1027.3636363636363"/>
      <point x="459.90909090909093" y="1115.7575757575758"/>
    </contour>
  </outline>
</glyph>
<glyph name="cent" format="2">
  <advance width="997.0443333333334"/>
  <unicode hex="00A2"/>
  <outline>
    <contour>
      <point x="659.307" y="-21.441333333333333" type="curve" smooth="yes"/>
      <point x="762.0946666666666" y="-21.441333333333333"/>
      <point x="862.5806666666667" y="-6.4413333333333345"/>
      <point x="941.8376666666667" y="18.676" type="curve"/>
      <point x="941.8376666666667" y="312.08333333333337" type="line"/>
      <point x="850.7203333333334" y="289.12800000000004"/>
      <point x="787.0666666666667" y="278.56933333333336"/>
      <point x="718.7873333333333" y="278.56933333333336" type="curve" smooth="yes"/>
      <point x="538.4296666666667" y="278.56933333333336"/>
      <point x="446.7033333333334" y="355.08900000000006"/>
      <point x="446.7033333333334" y="549.162" type="curve" smooth="yes"/>
      <point x="446.7033333333334" y="734.654"/>
      <point x="534.8263333333334" y="814.9166666666666"/>
      <point x="742.7426666666668" y="814.9166666666666" type="curve" smooth="yes"/>
      <point x="809.8823333333333" y="814.9166666666666"/>
      <point x="872.1393333333333" y="808.358"/>
      <point x="941.8376666666667" y="796.8216666666666" type="curve"/>
      <point x="941.8376666666667" y="1090.229" type="line"/>
      <point x="864.955" y="1106.7876666666666"/>
      <point x="782.9103333333334" y="1114.9273333333333"/>
      <point x="689.821" y="1114.9273333333333" type="curve" smooth="yes"/>
      <point x="290.34633333333335" y="1114.9273333333333"/>
      <point x="60.68166666666666" y="930.257"/>
      <point x="60.68166666666666" y="546.0223333333333" type="curve" smooth="yes"/>
      <point x="60.68166666666666" y="167.67033333333333"/>
      <point x="272.46366666666665" y="-21.441333333333333"/>
    </contour>
    <contour>
      <point x="462.123" y="-240.0" type="line"/>
      <point x="780.7816666666668" y="-240.0" type="line"/>
      <point x="780.7816666666668" y="51.62000000000001" type="line"/>
      <point x="462.123" y="51.62000000000001" type="line"/>
    </contour>
    <contour>
      <point x="462.123" y="1045.5866666666666" type="line"/>
      <point x="780.7816666666668" y="1045.5866666666666" type="line"/>
      <point x="780.7816666666668" y="1337.2066666666667" type="line"/>
      <point x="462.123" y="1337.2066666666667" type="line"/>
    </contour>
  </outline>
</glyph>
<glyph name="sterling" format="2">
  <advance width="1370.5353535353536"/>
  <unicode hex="00A3"/>
  <outline>
    <contour>
      <point x="259.050505050505" y="110.989898989899" type="line"/>
      <point x="629.2727272727273" y="110.989898989899" type="line"/>
      <point x="629.2727272727273" y="1004.1818181818181" type="line" smooth="yes"/>
      <point x="629.2727272727273" y="1139.5353535353536"/>
      <point x="703.8686868686868" y="1194.171717171717"/>
      <point x="945.969696969697" y="1194.171717171717" type="curve" smooth="yes"/>
      <point x="1049.969696969697" y="1194.171717171717"/>
      <point x="1176.7272727272727" y="1178.4545454545455"/>
      <point x="1268.848484848485" y="1153.1818181818182" type="curve"/>
      <point x="1268.848484848485" y="1460.7272727272727" type="line"/>
      <point x="1174.4141414141413" y="1483.858585858586"/>
      <point x="1049.3939393939395" y="1499.7171717171718"/>
      <point x="919.7777777777778" y="1499.7171717171718" type="curve" smooth="yes"/>
      <point x="473.6969696969697" y="1499.7171717171718"/>
      <point x="259.050505050505" y="1319.9292929292928"/>
      <point x="259.050505050505" y="988.7272727272727" type="curve" smooth="yes"/>
    </contour>
    <contour>
      <point x="71.41414141414141" y="0.0" type="line"/>
      <point x="1314.5757575757575" y="0.0" type="line"/>
      <point x="1314.5757575757575" y="302.6868686868687" type="line"/>
      <point x="71.41414141414141" y="302.6868686868687" type="line"/>
    </contour>
    <contour>
      <point x="71.41414141414141" y="612.3939393939394" type="line"/>
      <point x="1073.090909090909" y="612.3939393939394" type="line"/>
      <point x="1073.090909090909" y="887.6060606060606" type="line"/>
      <point x="71.41414141414141" y="887.6060606060606" type="line"/>
    </contour>
  </outline>
</glyph>
<glyph name="currency" format="2">
  <advance width="1288.888888888889"/>
  <unicode hex="00A4"/>
  <outline>
    <contour>
      <point x="420.44444444444446" y="819.7979797979798" type="line"/>
      <point x="564.6464646464647" y="963.7171717171717" type="line"/>
      <point x="376.7676767676768" y="1183.030303030303" type="line"/>
      <point x="261.8787878787879" y="1300.2020202020203" type="line"/>
      <point x="83.95959595959596" y="1122.2828282828282" type="line"/>
      <point x="201.4141414141414" y="1007.3939393939394" type="line"/>
    </contour>
    <contour>
      <point x="868.4444444444445" y="819.7979797979798" type="line"/>
      <point x="1087.4747474747473" y="1007.3939393939394" type="line"/>
      <point x="1204.9292929292928" y="1122.2828282828282" type="line"/>
      <point x="1027.010101010101" y="1300.2020202020203" type="line"/>
      <point x="912.1212121212121" y="1183.030303030303" type="line"/>
      <point x="724.2424242424242" y="963.7171717171717" type="line"/>
    </contour>
    <contour>
      <point x="1026.7272727272727" y="179.7979797979798" type="line"/>
      <point x="1204.6464646464647" y="357.7171717171717" type="line"/>
      <point x="1087.4747474747473" y="472.6060606060606" type="line"/>
      <point x="869.8585858585859" y="658.7878787878788" type="line"/>
      <point x="725.6565656565657" y="514.3030303030303" type="line"/>
      <point x="911.8383838383838" y="296.96969696969694" type="line"/>
    </contour>
    <contour>
      <point x="262.16161616161617" y="179.7979797979798" type="line"/>
      <point x="377.0505050505051" y="296.96969696969694" type="line"/>
      <point x="563.2323232323233" y="514.3030303030303" type="line"/>
      <point x="419.030303030303" y="658.7878787878788" type="line"/>
      <point x="201.4141414141414" y="472.6060606060606" type="line"/>
      <point x="84.24242424242424" y="357.7171717171717" type="line"/>
    </contour>
    <contour>
      <point x="644.4444444444445" y="363.77777777777777" type="curve" smooth="yes"/>
      <point x="859.6363636363636" y="363.77777777777777"/>
      <point x="1023.2727272727273" y="514.5252525252525"/>
      <point x="1023.2727272727273" y="740.0" type="curve" smooth="yes"/>
      <point x="1023.2727272727273" y="963.4747474747475"/>
      <point x="859.6363636363636" y="1114.2222222222222"/>
      <point x="644.4444444444445" y="1114.2222222222222" type="curve" smooth="yes"/>
      <point x="428.969696969697" y="1114.2222222222222"/>
      <point x="265.6161616161616" y="963.4747474747475"/>
      <point x="265.6161616161616" y="740.0" type="curve" smooth="yes"/>
      <point x="265.6161616161616" y="514.5252525252525"/>
      <point x="428.969696969697" y="363.77777777777777"/>
    </contour>
    <contour>
      <point x="644.4444444444445" y="564.8686868686868" type="curve" smooth="yes"/>
      <point x="551.3939393939394" y="564.8686868686868"/>
      <point x="482.16161616161617" y="630.3838383838383"/>
      <point x="482.16161616161617" y="740.0" type="curve" smooth="yes"/>
      <point x="482.16161616161617" y="849.6161616161617"/>
      <point x="551.3939393939394" y="915.1313131313132"/>
      <point x="646.4444444444445" y="915.1313131313132" type="curve" smooth="yes"/>
      <point x="742.9090909090909" y="915.1313131313132"/>
      <point x="806.7272727272727" y="841.0505050505051"/>
      <point x="806.7272727272727" y="740.0" type="curve" smooth="yes"/>
      <point x="806.7272727272727" y="630.1010101010102"/>
      <point x="737.4949494949495" y="564.8686868686868"/>
    </contour>
  </outline>
</glyph>
<glyph name="yen" format="2">
  <advance width="1329.7070707070707"/>
  <unicode hex="00A5"/>
  <outline>
    <contour>
      <point x="475.8787878787879" y="0.0" type="line"/>
      <point x="858.1212121212121" y="0.0" type="line"/>
      <point x="858.1212121212121" y="763.6666666666666" type="line"/>
      <point x="781.7373737373738" y="489.7272727272727" type="line"/>
      <point x="1374.5151515151515" y="1480.0" type="line"/>
      <point x="1000.8787878787879" y="1480.0" type="line"/>
      <point x="623.5252525252525" y="849.6464646464647" type="line"/>
      <point x="727.929292929293" y="849.6464646464647" type="line"/>
      <point x="347.2828282828283" y="1480.0" type="line"/>
      <point x="-55.96969696969698" y="1480.0" type="line"/>
      <point x="552.2626262626263" y="489.7272727272727" type="line"/>
      <point x="475.8787878787879" y="768.8181818181819" type="line"/>
    </contour>
    <contour>
      <point x="164.46464646464645" y="248.73737373737373" type="line"/>
      <point x="1169.5353535353536" y="248.73737373737373" type="line"/>
      <point x="1169.5353535353536" y="465.5656565656566" type="line"/>
      <point x="164.46464646464645" y="465.5656565656566" type="line"/>
    </contour>
    <contour>
      <point x="164.46464646464645" y="582.4343434343434" type="line"/>
      <point x="1169.5353535353536" y="582.4343434343434" type="line"/>
      <point x="1169.5353535353536" y="799.2626262626263" type="line"/>
      <point x="164.46464646464645" y="799.2626262626263" type="line"/>
    </contour>
  </outline>
</glyph>
<glyph name="brokenbar" format="2">
  <advance width="576.7878787878788"/>
  <unicode hex="00A6"/>
  <outline>
    <contour>
      <point x="120.45454545454544" y="836.0" type="line"/>
      <point x="456.33333333333337" y="836.0" type="line"/>
      <point x="456.33333333333337" y="1616.0" type="line"/>
      <point x="120.45454545454544" y="1616.0" type="line"/>
    </contour>
    <contour>
      <point x="120.45454545454544" y="-440.0" type="line"/>
      <point x="456.33333333333337" y="-440.0" type="line"/>
      <point x="456.33333333333337" y="340.0" type="line"/>
      <point x="120.45454545454544" y="340.0" type="line"/>
    </contour>
  </outline>
</glyph>
<glyph name="section" format="2">
  <advance width="1142.020202020202"/>
  <unicode hex="00A7"/>
  <outline>
    <contour>
      <point x="481.24242424242425" y="-21.434343434343436" type="curve" smooth="yes"/>
      <point x="828.2525252525253" y="-21.434343434343436"/>
      <point x="1007.7676767676768" y="116.60606060606061"/>
      <point x="1007.7676767676768" y="335.80808080808083" type="curve" smooth="yes"/>
      <point x="1007.7676767676768" y="498.1212121212121"/>
      <point x="902.5656565656566" y="582.1111111111111"/>
      <point x="722.7474747474748" y="618.6666666666666" type="curve" smooth="yes"/>
      <point x="488.14141414141415" y="663.8383838383838" type="line" smooth="yes"/>
      <point x="411.4040404040404" y="679.6666666666666"/>
      <point x="387.31313131313135" y="713.3131313131313"/>
      <point x="387.31313131313135" y="762.2121212121212" type="curve" smooth="yes"/>
      <point x="387.31313131313135" y="802.7272727272727"/>
      <point x="405.0" y="837.5353535353536"/>
      <point x="448.3838383838384" y="884.5454545454545" type="curve"/>
      <point x="255.7171717171717" y="1010.8282828282828" type="line"/>
      <point x="149.5252525252525" y="950.10101010101"/>
      <point x="82.48484848484847" y="863.2323232323232"/>
      <point x="82.48484848484847" y="742.040404040404" type="curve" smooth="yes"/>
      <point x="82.48484848484847" y="558.5454545454545"/>
      <point x="193.83838383838383" y="464.4040404040404"/>
      <point x="361.22222222222223" y="430.70707070707067" type="curve" smooth="yes"/>
      <point x="594.969696969697" y="385.5353535353535" type="line" smooth="yes"/>
      <point x="648.5252525252525" y="374.85858585858585"/>
      <point x="670.6060606060606" y="355.2121212121212"/>
      <point x="670.6060606060606" y="315.21212121212125" type="curve" smooth="yes"/>
      <point x="670.6060606060606" y="267.3737373737374"/>
      <point x="631.1313131313132" y="233.4545454545455"/>
      <point x="476.5151515151515" y="233.4545454545455" type="curve" smooth="yes"/>
      <point x="362.6161616161616" y="233.4545454545455"/>
      <point x="245.6969696969697" y="247.03030303030306"/>
      <point x="137.12121212121212" y="275.5959595959596" type="curve"/>
      <point x="137.12121212121212" y="20.424242424242426" type="line"/>
      <point x="244.5858585858586" y="-7.575757575757576"/>
      <point x="372.7979797979798" y="-21.434343434343436"/>
    </contour>
    <contour>
      <point x="870.8383838383838" y="459.01010101010104" type="line"/>
      <point x="984.909090909091" y="521.3131313131313"/>
      <point x="1059.5353535353536" y="611.1919191919192"/>
      <point x="1059.5353535353536" y="740.1010101010102" type="curve" smooth="yes"/>
      <point x="1059.5353535353536" y="925.5959595959596"/>
      <point x="954.3333333333334" y="1015.0202020202021"/>
      <point x="782.2424242424242" y="1048.141414141414" type="curve" smooth="yes"/>
      <point x="539.909090909091" y="1091.5959595959596" type="line" smooth="yes"/>
      <point x="486.35353535353534" y="1102.2727272727273"/>
      <point x="462.82828282828285" y="1121.8989898989898"/>
      <point x="462.82828282828285" y="1157.919191919192" type="curve" smooth="yes"/>
      <point x="462.82828282828285" y="1199.919191919192"/>
      <point x="505.32323232323233" y="1242.8282828282827"/>
      <point x="711.010101010101" y="1242.8282828282827" type="curve" smooth="yes"/>
      <point x="797.1616161616162" y="1242.8282828282827"/>
      <point x="881.0505050505051" y="1234.8282828282827"/>
      <point x="966.6161616161617" y="1215.979797979798" type="curve"/>
      <point x="966.6161616161617" y="1471.1515151515152" type="line"/>
      <point x="884.6060606060606" y="1487.7171717171718"/>
      <point x="781.4141414141415" y="1497.7171717171718"/>
      <point x="682.6767676767677" y="1497.7171717171718" type="curve" smooth="yes"/>
      <point x="289.73737373737373" y="1497.7171717171718"/>
      <point x="125.66666666666666" y="1354.5454545454545"/>
      <point x="125.66666666666666" y="1137.7474747474748" type="curve" smooth="yes"/>
      <point x="125.66666666666666" y="986.020202020202"/>
      <point x="235.3030303030303" y="894.7373737373737"/>
      <point x="420.7171717171717" y="858.4646464646464" type="curve" smooth="yes"/>
      <point x="654.4646464646464" y="813.2929292929293" type="line" smooth="yes"/>
      <point x="731.2020202020202" y="797.4646464646464"/>
      <point x="754.7070707070707" y="763.7979797979798"/>
      <point x="754.7070707070707" y="715.2121212121212" type="curve" smooth="yes"/>
      <point x="754.7070707070707" y="671.989898989899"/>
      <point x="733.5858585858585" y="641.040404040404"/>
      <point x="670.1616161616162" y="591.0202020202021" type="curve"/>
    </contour>
  </outline>
</glyph>
<glyph name="copyright" format="2">
  <advance width="1650.0113333333334"/>
  <unicode hex="00A9"/>
  <outline>
    <contour>
      <point x="825.0056666666667" y="-22.0" type="curve" smooth="yes"/>
      <point x="1276.1676666666667" y="-22.0"/>
      <point x="1574.1676666666667" y="282.0"/>
      <point x="1574.1676666666667" y="740.0" type="curve" smooth="yes"/>
      <point x="1574.1676666666667" y="1198.0"/>
      <point x="1276.1676666666667" y="1502.0"/>
      <point x="825.0056666666667" y="1502.0" type="curve" smooth="yes"/>
      <point x="373.84366666666665" y="1502.0"/>
      <point x="75.84366666666665" y="1198.0"/>
      <point x="75.84366666666665" y="740.0" type="curve" smooth="yes"/>
      <point x="75.84366666666665" y="282.0"/>
      <point x="373.84366666666665" y="-22.0"/>
    </contour>
    <contour>
      <point x="889.9776666666667" y="324.0" type="curve" smooth="yes"/>
      <point x="971.419" y="324.0"/>
      <point x="1043.419" y="336.0"/>
      <point x="1095.933" y="355.676" type="curve"/>
      <point x="1095.933" y="579.9773333333334" type="line"/>
      <point x="1017.3743333333333" y="560.022"/>
      <point x="971.1843333333334" y="553.4633333333334"/>
      <point x="914.905" y="553.4633333333334" type="curve" smooth="yes"/>
      <point x="791.173" y="553.4633333333334"/>
      <point x="720.793" y="615.2846666666667"/>
      <point x="720.793" y="732.838" type="curve" smooth="yes"/>
      <point x="720.793" y="851.274"/>
      <point x="786.011" y="914.5366666666666"/>
      <point x="928.3016666666666" y="914.5366666666666" type="curve" smooth="yes"/>
      <point x="986.257" y="914.5366666666666"/>
      <point x="1035.6536666666666" y="907.978"/>
      <point x="1095.933" y="896.8606666666667" type="curve"/>
      <point x="1095.933" y="1121.162" type="line"/>
      <point x="1038.8156666666666" y="1136.0"/>
      <point x="977.095" y="1144.0"/>
      <point x="903.933" y="1144.0" type="curve" smooth="yes"/>
      <point x="626.1676666666666" y="1144.0"/>
      <point x="452.637" y="992.5586666666667"/>
      <point x="452.637" y="732.2793333333333" type="curve" smooth="yes"/>
      <point x="452.637" y="472.324"/>
      <point x="623.8436666666666" y="324.0"/>
    </contour>
    <contour>
      <point x="825.0056666666667" y="169.88800000000003" type="curve" smooth="yes"/>
      <point x="477.5083333333333" y="169.88800000000003"/>
      <point x="276.33500000000004" y="389.106"/>
      <point x="276.33500000000004" y="740.0" type="curve" smooth="yes"/>
      <point x="276.33500000000004" y="1090.894"/>
      <point x="477.5083333333333" y="1310.112"/>
      <point x="825.0056666666667" y="1310.112" type="curve" smooth="yes"/>
      <point x="1172.503" y="1310.112"/>
      <point x="1373.6763333333333" y="1090.894"/>
      <point x="1373.6763333333333" y="740.0" type="curve" smooth="yes"/>
      <point x="1373.6763333333333" y="389.106"/>
      <point x="1172.503" y="169.88800000000003"/>
    </contour>
  </outline>
</glyph>
<glyph name="ordfeminine" format="2">
  <advance width="960.4913333333334"/>
  <unicode hex="00AA"/>
  <outline>
    <contour>
      <point x="332.21233333333333" y="592.5586666666667" type="curve" smooth="yes"/>
      <point x="426.0056666666667" y="592.5586666666667"/>
      <point x="512.6593333333333" y="621.933"/>
      <point x="562.894" y="693.933" type="curve"/>
      <point x="578.3576666666667" y="693.933" type="line"/>
      <point x="603.285" y="610.0" type="line"/>
      <point x="890.7146666666667" y="610.0" type="line"/>
      <point x="890.7146666666667" y="1096.3186666666666" type="line" smooth="yes"/>
      <point x="890.7146666666667" y="1396.19"/>
      <point x="751.1840000000001" y="1500.6033333333332"/>
      <point x="424.29600000000005" y="1500.6033333333332" type="curve" smooth="yes"/>
      <point x="325.22900000000004" y="1500.6033333333332"/>
      <point x="207.27933333333334" y="1488.324"/>
      <point x="107.74866666666667" y="1463.0446666666667" type="curve"/>
      <point x="107.74866666666667" y="1214.0729999999999" type="line"/>
      <point x="186.285" y="1235.4696666666666"/>
      <point x="278.3073333333333" y="1247.6093333333333"/>
      <point x="355.91066666666666" y="1247.6093333333333" type="curve" smooth="yes"/>
      <point x="510.3073333333333" y="1247.6093333333333"/>
      <point x="545.3856666666667" y="1213.3746666666666"/>
      <point x="545.3856666666667" y="1141.3353333333334" type="curve" smooth="yes"/>
      <point x="545.3856666666667" y="841.62" type="line"/>
      <point x="520.1453333333334" y="825.1896666666667"/>
      <point x="487.83233333333334" y="818.8823333333333"/>
      <point x="462.24" y="818.8823333333333" type="curve" smooth="yes"/>
      <point x="400.94933333333336" y="818.8823333333333"/>
      <point x="368.22300000000007" y="845.6086666666667"/>
      <point x="368.22300000000007" y="896.6646666666667" type="curve" smooth="yes"/>
      <point x="368.22300000000007" y="944.3016666666666"/>
      <point x="398.50800000000004" y="970.609"/>
      <point x="472.8713333333334" y="974.8436666666666" type="curve" smooth="yes"/>
      <point x="637.447" y="982.475" type="line"/>
      <point x="594.8716666666667" y="1145.5753333333334" type="line"/>
      <point x="420.2513333333333" y="1136.2233333333334" type="line" smooth="yes"/>
      <point x="141.72633333333332" y="1123.5473333333334"/>
      <point x="28.357666666666653" y="1031.2233333333334"/>
      <point x="28.357666666666653" y="854.5306666666667" type="curve" smooth="yes"/>
      <point x="28.357666666666653" y="702.7876666666667"/>
      <point x="133.07833333333332" y="592.5586666666667"/>
    </contour>
  </outline>
</glyph>
<glyph name="logicalnot" format="2">
  <advance width="1332.2793333333334"/>
  <unicode hex="00AC"/>
  <outline>
    <contour>
      <point x="935.3523333333333" y="198.88266666666667" type="line"/>
      <point x="1232.201" y="198.88266666666667" type="line"/>
      <point x="1232.201" y="902.1226666666666" type="line"/>
      <point x="105.91633333333331" y="902.1226666666666" type="line"/>
      <point x="105.91633333333331" y="617.8773333333334" type="line"/>
      <point x="935.3523333333333" y="617.8773333333334" type="line"/>
    </contour>
  </outline>
</glyph>
<glyph name="registered" format="2">
  <advance width="1414.3913333333333"/>
  <unicode hex="00AE"/>
  <outline>
    <contour>
      <point x="707.1956666666666" y="268.0" type="curve" smooth="yes"/>
      <point x="1069.1956666666667" y="268.0"/>
      <point x="1317.1956666666667" y="518.0"/>
      <point x="1317.1956666666667" y="882.0" type="curve" smooth="yes"/>
      <point x="1317.1956666666667" y="1246.0"/>
      <point x="1069.1956666666667" y="1498.0"/>
      <point x="707.1956666666666" y="1498.0" type="curve" smooth="yes"/>
      <point x="345.1956666666666" y="1498.0"/>
      <point x="97.19566666666665" y="1246.0"/>
      <point x="97.19566666666665" y="882.0" type="curve" smooth="yes"/>
      <point x="97.19566666666665" y="518.0"/>
      <point x="345.1956666666666" y="268.0"/>
    </contour>
    <contour>
      <point x="823.2516666666667" y="600.0" type="line"/>
      <point x="990.447" y="600.0" type="line"/>
      <point x="835.095" y="825.5866666666667" type="line"/>
      <point x="685.6203333333333" y="799.5866666666667" type="line"/>
    </contour>
    <contour>
      <point x="707.1956666666666" y="411.43" type="curve" smooth="yes"/>
      <point x="430.8156666666667" y="411.43"/>
      <point x="251.22899999999998" y="596.458"/>
      <point x="251.22899999999998" y="882.0" type="curve" smooth="yes"/>
      <point x="251.22899999999998" y="1169.2626666666667"/>
      <point x="430.8156666666667" y="1354.57"/>
      <point x="707.1956666666666" y="1354.57" type="curve" smooth="yes"/>
      <point x="983.5756666666666" y="1354.57"/>
      <point x="1163.1623333333332" y="1169.2626666666667"/>
      <point x="1163.1623333333332" y="882.0" type="curve" smooth="yes"/>
      <point x="1163.1623333333332" y="596.458"/>
      <point x="983.5756666666666" y="411.43"/>
    </contour>
    <contour>
      <point x="487.15099999999995" y="600.0" type="line"/>
      <point x="639.1843333333334" y="600.0" type="line"/>
      <point x="644.3463333333333" y="791.5866666666667" type="line"/>
      <point x="698.3576666666667" y="791.5866666666667" type="line" smooth="yes"/>
      <point x="875.8436666666666" y="791.5866666666667"/>
      <point x="959.5643333333334" y="855.866"/>
      <point x="959.5643333333334" y="990.7933333333333" type="curve" smooth="yes"/>
      <point x="959.5643333333334" y="1125.7206666666666"/>
      <point x="873.8436666666666" y="1192.0"/>
      <point x="698.3576666666667" y="1192.0" type="curve" smooth="yes"/>
      <point x="487.15099999999995" y="1192.0" type="line"/>
    </contour>
    <contour>
      <point x="644.3463333333333" y="913.8100000000001" type="line"/>
      <point x="644.3463333333333" y="1069.7766666666666" type="line"/>
      <point x="722.4023333333333" y="1069.7766666666666" type="line" smooth="yes"/>
      <point x="779.341" y="1069.7766666666666"/>
      <point x="810.9723333333333" y="1043.542"/>
      <point x="810.9723333333333" y="990.7933333333333" type="curve" smooth="yes"/>
      <point x="810.9723333333333" y="938.0446666666667"/>
      <point x="781.341" y="913.8100000000001"/>
      <point x="722.4023333333333" y="913.8100000000001" type="curve" smooth="yes"/>
    </contour>
  </outline>
</glyph>
<glyph name="degree" format="2">
  <advance width="968.514"/>
  <unicode hex="00B0"/>
  <outline>
    <contour>
      <point x="484.257" y="737.3633333333333" type="curve" smooth="yes"/>
      <point x="707.5083333333333" y="737.3633333333333"/>
      <point x="871.3183333333334" y="898.0113333333334"/>
      <point x="871.3183333333334" y="1119.2626666666667" type="curve" smooth="yes"/>
      <point x="871.3183333333334" y="1340.514"/>
      <point x="707.5083333333333" y="1499.4413333333334"/>
      <point x="484.257" y="1499.4413333333334" type="curve" smooth="yes"/>
      <point x="261.0056666666667" y="1499.4413333333334"/>
      <point x="97.19566666666665" y="1340.514"/>
      <point x="97.19566666666665" y="1119.2626666666667" type="curve" smooth="yes"/>
      <point x="97.19566666666665" y="898.0113333333334"/>
      <point x="261.0056666666667" y="737.3633333333333"/>
    </contour>
    <contour>
      <point x="484.257" y="950.201" type="curve" smooth="yes"/>
      <point x="392.9216666666667" y="950.201"/>
      <point x="324.2176666666667" y="1014.6256666666667"/>
      <point x="324.2176666666667" y="1119.2626666666667" type="curve" smooth="yes"/>
      <point x="324.2176666666667" y="1224.76"/>
      <point x="394.64233333333334" y="1286.6036666666666"/>
      <point x="484.257" y="1286.6036666666666" type="curve" smooth="yes"/>
      <point x="573.8716666666667" y="1286.6036666666666"/>
      <point x="644.2963333333333" y="1224.76"/>
      <point x="644.2963333333333" y="1119.2626666666667" type="curve" smooth="yes"/>
      <point x="644.2963333333333" y="1014.6256666666667"/>
      <point x="575.5923333333333" y="950.201"/>
    </contour>
  </outline>
</glyph>
<glyph name="plusminus" format="2">
  <advance width="1108.3636363636365"/>
  <unicode hex="00B1"/>
  <outline>
    <contour>
      <point x="405.98989898989896" y="386.4040404040404" type="line"/>
      <point x="702.3737373737374" y="386.4040404040404" type="line"/>
      <point x="702.3737373737374" y="672.8686868686868" type="line"/>
      <point x="1002.3232323232323" y="672.8686868686868" type="line"/>
      <point x="1002.3232323232323" y="956.6666666666667" type="line"/>
      <point x="702.3737373737374" y="956.6666666666667" type="line"/>
      <point x="702.3737373737374" y="1243.1313131313132" type="line"/>
      <point x="405.98989898989896" y="1243.1313131313132" type="line"/>
      <point x="405.98989898989896" y="956.6666666666667" type="line"/>
      <point x="106.04040404040404" y="956.6666666666667" type="line"/>
      <point x="106.04040404040404" y="672.8686868686868" type="line"/>
      <point x="405.98989898989896" y="672.8686868686868" type="line"/>
    </contour>
    <contour>
      <point x="106.04040404040404" y="0.8585858585858587" type="line"/>
      <point x="1002.3232323232323" y="0.8585858585858587" type="line"/>
      <point x="1002.3232323232323" y="284.6565656565657" type="line"/>
      <point x="106.04040404040404" y="284.6565656565657" type="line"/>
    </contour>
  </outline>
</glyph>
<glyph name="micro" format="2">
  <advance width="1243.9046666666668"/>
  <unicode hex="00B5"/>
  <outline>
    <contour>
      <point x="568.592" y="-18.860333333333333" type="curve" smooth="yes"/>
      <point x="653.5753333333333" y="-18.860333333333333"/>
      <point x="728.676" y="24.698333333333334"/>
      <point x="788.2626666666666" y="106.79333333333332" type="curve"/>
      <point x="803.1453333333334" y="106.79333333333332" type="line"/>
      <point x="828.0726666666667" y="0.0" type="line"/>
      <point x="1136.709" y="0.0" type="line"/>
      <point x="1136.709" y="1097.2066666666667" type="line"/>
      <point x="761.5699999999999" y="1097.2066666666667" type="line"/>
      <point x="761.5699999999999" y="372.117" type="line"/>
      <point x="721.9106666666667" y="327.56933333333336"/>
      <point x="656.201" y="302.6586666666667"/>
      <point x="598.983" y="302.6586666666667" type="curve" smooth="yes"/>
      <point x="523.8543333333334" y="302.6586666666667"/>
      <point x="475.2173333333334" y="338.6643333333334"/>
      <point x="475.2173333333334" y="451.564" type="curve" smooth="yes"/>
      <point x="475.2173333333334" y="667.8766666666668" type="line"/>
      <point x="293.0053333333334" y="667.8766666666668" type="line"/>
      <point x="293.0053333333334" y="425.03333333333336" type="line" smooth="yes"/>
      <point x="293.0053333333334" y="104.97200000000001"/>
      <point x="406.70366666666666" y="-18.860333333333333"/>
    </contour>
    <contour>
      <point x="100.07833333333332" y="-440.0" type="line"/>
      <point x="475.2173333333334" y="-440.0" type="line"/>
      <point x="475.2173333333334" y="1096.3463333333334" type="line"/>
      <point x="100.07833333333332" y="1096.3463333333334" type="line"/>
    </contour>
  </outline>
</glyph>
<glyph name="paragraph" format="2">
  <advance width="1346.603"/>
  <unicode hex="00B6"/>
  <outline>
    <contour>
      <point x="573.14" y="0.0" type="line"/>
      <point x="834.715" y="0.0" type="line"/>
      <point x="834.715" y="1480.0" type="line"/>
      <point x="748.8323333333333" y="1492.3016666666667"/>
      <point x="647.5083333333333" y="1499.162"/>
      <point x="549.7876666666667" y="1499.162" type="curve" smooth="yes"/>
      <point x="216.447" y="1499.162"/>
      <point x="67.16766666666666" y="1331.8156666666666"/>
      <point x="67.16766666666666" y="953.6593333333333" type="curve" smooth="yes"/>
      <point x="67.16766666666666" y="594.6426666666666"/>
      <point x="213.32966666666667" y="408.73766666666666"/>
      <point x="494.87166666666667" y="408.73766666666666" type="curve" smooth="yes"/>
      <point x="523.76" y="408.73766666666666"/>
      <point x="546.6706666666666" y="410.017"/>
      <point x="573.14" y="410.9946666666666" type="curve"/>
    </contour>
    <contour>
      <point x="964.715" y="0.0" type="line"/>
      <point x="1226.29" y="0.0" type="line"/>
      <point x="1226.29" y="1480.0" type="line"/>
      <point x="964.715" y="1480.0" type="line"/>
    </contour>
  </outline>
</glyph>
<glyph name="ordmasculine" format="2">
  <advance width="1033.05"/>
  <unicode hex="00BA"/>
  <outline>
    <contour>
      <point x="516.525" y="592.5586666666667" type="curve" smooth="yes"/>
      <point x="824.1616666666666" y="592.5586666666667"/>
      <point x="997.832" y="763.2736666666667"/>
      <point x="997.832" y="1046.8603333333333" type="curve" smooth="yes"/>
      <point x="997.832" y="1330.447"/>
      <point x="824.1616666666666" y="1500.6033333333332"/>
      <point x="516.525" y="1500.6033333333332" type="curve" smooth="yes"/>
      <point x="208.88833333333332" y="1500.6033333333332"/>
      <point x="35.21799999999999" y="1334.7486666666666"/>
      <point x="35.21799999999999" y="1046.8603333333333" type="curve" smooth="yes"/>
      <point x="35.21799999999999" y="758.972"/>
      <point x="208.88833333333332" y="592.5586666666667"/>
    </contour>
    <contour>
      <point x="516.525" y="845.6923333333334" type="curve" smooth="yes"/>
      <point x="435.88233333333335" y="845.6923333333334"/>
      <point x="381.966" y="891.3516666666667"/>
      <point x="381.966" y="1046.8603333333333" type="curve" smooth="yes"/>
      <point x="381.966" y="1203.2293333333332"/>
      <point x="435.88233333333335" y="1247.4696666666666"/>
      <point x="516.525" y="1247.4696666666666" type="curve" smooth="yes"/>
      <point x="598.8883333333333" y="1247.4696666666666"/>
      <point x="651.084" y="1203.2293333333332"/>
      <point x="651.084" y="1046.8603333333333" type="curve" smooth="yes"/>
      <point x="651.084" y="891.3516666666667"/>
      <point x="598.8883333333333" y="845.6923333333334"/>
    </contour>
  </outline>
</glyph>
<glyph name="questiondown" format="2">
  <advance width="1022.1414141414141"/>
  <unicode hex="00BF"/>
  <outline>
    <contour>
      <point x="679.3131313131314" y="597.9797979797979" type="line"/>
      <point x="451.8686868686869" y="597.9797979797979" type="line"/>
      <point x="425.55555555555554" y="420.75757575757575" type="line"/>
      <point x="189.2020202020202" y="353.83838383838383"/>
      <point x="47.686868686868685" y="221.11111111111111"/>
      <point x="47.686868686868685" y="7.090909090909101" type="curve" smooth="yes"/>
      <point x="47.686868686868685" y="-253.26262626262627"/>
      <point x="235.03030303030303" y="-400.0"/>
      <point x="613.6363636363636" y="-400.0" type="curve" smooth="yes"/>
      <point x="742.0909090909091" y="-400.0"/>
      <point x="896.4444444444445" y="-377.5656565656566"/>
      <point x="993.5959595959596" y="-345.14141414141415" type="curve"/>
      <point x="993.5959595959596" y="-54.76767676767673" type="line"/>
      <point x="894.4646464646464" y="-89.47474747474743"/>
      <point x="769.1414141414141" y="-109.90909090909088"/>
      <point x="658.4242424242425" y="-109.90909090909088" type="curve" smooth="yes"/>
      <point x="483.949494949495" y="-109.90909090909088"/>
      <point x="412.18181818181824" y="-57.42424242424241"/>
      <point x="412.18181818181824" y="39.71717171717172" type="curve" smooth="yes"/>
      <point x="412.18181818181824" y="132.56565656565658"/>
      <point x="482.0" y="200.06060606060606"/>
      <point x="743.6868686868687" y="244.39393939393938" type="curve"/>
    </contour>
    <contour>
      <point x="565.1616161616162" y="1115.7575757575758" type="curve" smooth="yes"/>
      <point x="419.83838383838383" y="1115.7575757575758"/>
      <point x="326.2929292929293" y="1030.5151515151515"/>
      <point x="326.2929292929293" y="904.3636363636364" type="curve" smooth="yes"/>
      <point x="326.2929292929293" y="777.9292929292928"/>
      <point x="416.6868686868687" y="692.6868686868686"/>
      <point x="565.1616161616162" y="692.6868686868686" type="curve" smooth="yes"/>
      <point x="713.6363636363636" y="692.6868686868686"/>
      <point x="804.030303030303" y="774.4949494949494"/>
      <point x="804.030303030303" y="904.3636363636364" type="curve" smooth="yes"/>
      <point x="804.030303030303" y="1033.949494949495"/>
      <point x="710.2020202020202" y="1115.7575757575758"/>
    </contour>
  </outline>
</glyph>
<glyph name="AE" format="2">
  <advance width="2061.5151515151515"/>
  <unicode hex="00C6"/>
  <anchor x="1074.6363636363635" y="0.0" name="bottom"/>
  <anchor x="1061.7676767676767" y="1520.0" name="top"/>
  <outline>
    <contour>
      <point x="8.666666666666664" y="0.0" type="line"/>
      <point x="382.1717171717172" y="0.0" type="line"/>
      <point x="729.6969696969697" y="1177.030303030303" type="line"/>
      <point x="1052.7575757575758" y="1177.030303030303" type="line"/>
      <point x="1053.0404040404042" y="1480.0" type="line"/>
      <point x="469.3333333333333" y="1480.0" type="line"/>
    </contour>
    <contour>
      <point x="361.26262626262627" y="364.86868686868684" type="line"/>
      <point x="1053.79797979798" y="364.86868686868684" type="line"/>
      <point x="1053.79797979798" y="667.8383838383838" type="line"/>
      <point x="442.22222222222223" y="667.8383838383838" type="line"/>
    </contour>
    <contour>
      <point x="990.9797979797979" y="0.0" type="line"/>
      <point x="1989.6565656565658" y="0.0" type="line"/>
      <point x="1989.6565656565658" y="302.969696969697" type="line"/>
      <point x="1343.6060606060605" y="302.969696969697" type="line"/>
      <point x="1267.6262626262626" y="1177.030303030303" type="line"/>
      <point x="1979.6565656565658" y="1177.030303030303" type="line"/>
      <point x="1979.6565656565658" y="1480.0" type="line"/>
      <point x="876.3737373737374" y="1480.0" type="line"/>
    </contour>
    <contour>
      <point x="1126.2020202020203" y="604.3636363636364" type="line"/>
      <point x="1876.0707070707072" y="604.3636363636364" type="line"/>
      <point x="1876.0707070707072" y="907.3333333333334" type="line"/>
      <point x="1126.2020202020203" y="907.3333333333334" type="line"/>
    </contour>
  </outline>
</glyph>
<glyph name="multiply" format="2">
  <advance width="1054.989898989899"/>
  <unicode hex="00D7"/>
  <outline>
    <contour>
      <point x="276.16161616161617" y="308.4040404040404" type="line"/>
      <point x="527.4949494949495" y="559.7373737373737" type="line"/>
      <point x="778.8282828282828" y="308.4040404040404" type="line"/>
      <point x="979.0909090909091" y="508.6666666666667" type="line"/>
      <point x="727.7575757575758" y="760.0" type="line"/>
      <point x="979.0909090909091" y="1011.3333333333334" type="line"/>
      <point x="778.8282828282828" y="1211.5959595959596" type="line"/>
      <point x="527.4949494949495" y="960.2626262626263" type="line"/>
      <point x="276.16161616161617" y="1211.5959595959596" type="line"/>
      <point x="75.8989898989899" y="1011.3333333333334" type="line"/>
      <point x="327.2323232323232" y="760.0" type="line"/>
      <point x="75.8989898989899" y="508.6666666666667" type="line"/>
    </contour>
  </outline>
</glyph>
<glyph name="Thorn" format="2">
  <advance width="1356.2727272727273"/>
  <unicode hex="00DE"/>
  <outline>
    <contour>
      <point x="120.45454545454544" y="0.0" type="line"/>
      <point x="502.69696969696975" y="0.0" type="line"/>
      <point x="502.69696969696975" y="218.6060606060606" type="line"/>
      <point x="544.7777777777778" y="217.47474747474746"/>
      <point x="585.0202020202021" y="215.33333333333331"/>
      <point x="631.3939393939395" y="215.33333333333331" type="curve" smooth="yes"/>
      <point x="1055.111111111111" y="215.33333333333331"/>
      <point x="1279.0404040404042" y="399.4949494949495"/>
      <point x="1279.0404040404042" y="760.1414141414141" type="curve" smooth="yes"/>
      <point x="1279.0404040404042" y="1138.2121212121212"/>
      <point x="1051.6969696969697" y="1305.5252525252524"/>
      <point x="598.6868686868687" y="1305.5252525252524" type="curve" smooth="yes"/>
      <point x="565.6767676767677" y="1305.5252525252524"/>
      <point x="529.7676767676768" y="1302.3939393939395"/>
      <point x="502.69696969696975" y="1300.6969696969697" type="curve"/>
      <point x="502.69696969696975" y="1480.141414141414" type="line"/>
      <point x="120.45454545454544" y="1480.141414141414" type="line"/>
    </contour>
    <contour>
      <point x="631.8181818181819" y="499.41414141414145" type="curve" smooth="yes"/>
      <point x="582.3030303030303" y="499.41414141414145"/>
      <point x="545.6464646464647" y="501.69696969696975"/>
      <point x="502.69696969696975" y="506.54545454545456" type="curve"/>
      <point x="502.69696969696975" y="1011.4646464646464" type="line"/>
      <point x="541.9090909090909" y="1018.5959595959596"/>
      <point x="578.2525252525253" y="1021.4444444444445"/>
      <point x="628.7373737373738" y="1021.4444444444445" type="curve" smooth="yes"/>
      <point x="820.5151515151515" y="1021.4444444444445"/>
      <point x="909.1111111111111" y="943.2424242424242"/>
      <point x="909.1111111111111" y="758.0" type="curve" smooth="yes"/>
      <point x="909.1111111111111" y="570.7272727272727"/>
      <point x="821.0808080808081" y="499.41414141414145"/>
    </contour>
  </outline>
</glyph>
<glyph name="germandbls" format="2">
  <advance width="1629.7171717171718"/>
  <unicode hex="00DF"/>
  <outline>
    <contour>
      <point x="1052.6666666666667" y="-21.434343434343436" type="curve" smooth="yes"/>
      <point x="1399.3939393939395" y="-21.434343434343436"/>
      <point x="1587.4949494949497" y="116.60606060606061"/>
      <point x="1587.4949494949497" y="342.67676767676767" type="curve" smooth="yes"/>
      <point x="1587.4949494949497" y="543.6262626262626"/>
      <point x="1480.0" y="629.4747474747475"/>
      <point x="1287.020202020202" y="664.4545454545455" type="curve" smooth="yes"/>
      <point x="1098.7777777777778" y="697.6060606060606" type="line" smooth="yes"/>
      <point x="1042.9292929292928" y="708.2828282828283"/>
      <point x="1023.4141414141415" y="727.0505050505051"/>
      <point x="1023.4141414141415" y="760.4949494949495" type="curve" smooth="yes"/>
      <point x="1023.4141414141415" y="804.2121212121212"/>
      <point x="1060.7575757575758" y="845.4040404040404"/>
      <point x="1252.7070707070707" y="845.4040404040404" type="curve" smooth="yes"/>
      <point x="1311.2626262626263" y="845.4040404040404"/>
      <point x="1364.0" y="842.6969696969697"/>
      <point x="1410.5858585858587" y="837.2727272727273" type="curve"/>
      <point x="1431.1717171717173" y="917.6161616161617"/>
      <point x="1446.6060606060605" y="998.040404040404"/>
      <point x="1446.6060606060605" y="1087.939393939394" type="curve" smooth="yes"/>
      <point x="1446.6060606060605" y="1469.2121212121212"/>
      <point x="1209.3636363636365" y="1636.0"/>
      <point x="868.040404040404" y="1636.0" type="curve" smooth="yes"/>
      <point x="443.64646464646466" y="1636.0"/>
      <point x="195.5050505050505" y="1403.4343434343434"/>
      <point x="195.5050505050505" y="1014.6262626262626" type="curve" smooth="yes"/>
      <point x="195.5050505050505" y="0.0" type="line"/>
      <point x="570.0202020202021" y="0.0" type="line"/>
      <point x="570.0202020202021" y="1019.7878787878788" type="line" smooth="yes"/>
      <point x="570.0202020202021" y="1264.3939393939395"/>
      <point x="674.6767676767677" y="1381.111111111111"/>
      <point x="897.2323232323232" y="1381.111111111111" type="curve" smooth="yes"/>
      <point x="1067.6161616161617" y="1381.111111111111"/>
      <point x="1183.4141414141413" y="1306.4242424242425"/>
      <point x="1183.2727272727273" y="1118.4242424242425" type="curve" smooth="yes"/>
      <point x="1183.2727272727273" y="1051.9595959595958"/>
      <point x="1172.979797979798" y="989.5151515151515"/>
      <point x="1156.111111111111" y="928.2020202020202" type="curve"/>
      <point x="1365.6868686868688" y="1097.7373737373737" type="line"/>
      <point x="1324.2626262626263" y="1102.1616161616162"/>
      <point x="1238.4747474747473" y="1104.3030303030303"/>
      <point x="1198.6161616161617" y="1104.3030303030303" type="curve" smooth="yes"/>
      <point x="852.89898989899" y="1104.3030303030303"/>
      <point x="676.8080808080808" y="971.5757575757576"/>
      <point x="676.8080808080808" y="752.060606060606" type="curve" smooth="yes"/>
      <point x="676.8080808080808" y="571.4242424242424"/>
      <point x="769.2727272727273" y="466.1212121212121"/>
      <point x="977.8686868686868" y="429.8484848484849" type="curve" smooth="yes"/>
      <point x="1166.111111111111" y="396.6969696969697" type="line" smooth="yes"/>
      <point x="1222.2424242424242" y="386.020202020202"/>
      <point x="1240.888888888889" y="368.09090909090907"/>
      <point x="1240.888888888889" y="329.80808080808083" type="curve" smooth="yes"/>
      <point x="1240.888888888889" y="279.3939393939394"/>
      <point x="1198.8383838383838" y="248.05050505050508"/>
      <point x="1047.6565656565656" y="248.05050505050508" type="curve" smooth="yes"/>
      <point x="938.909090909091" y="248.05050505050508"/>
      <point x="805.6767676767677" y="265.7777777777778"/>
      <point x="708.2626262626263" y="290.90909090909093" type="curve"/>
      <point x="708.2626262626263" y="20.282828282828284" type="line"/>
      <point x="815.7272727272727" y="-7.717171717171717"/>
      <point x="946.5151515151515" y="-21.434343434343436"/>
    </contour>
    <contour>
      <point x="27.02020202020202" y="799.3535353535353" type="line"/>
      <point x="332.93939393939394" y="799.3535353535353" type="line"/>
      <point x="332.93939393939394" y="1097.171717171717" type="line"/>
      <point x="27.02020202020202" y="1097.171717171717" type="line"/>
    </contour>
  </outline>
</glyph>
<glyph name="ae" format="2">
  <advance width="1743.7483333333334"/>
  <unicode hex="00E6"/>
  <anchor x="873.3126666666667" y="0.0" name="bottom"/>
  <anchor x="873.3126666666667" y="1200.0" name="top"/>
  <outline>
    <contour>
      <point x="1301.335" y="-21.441333333333333" type="curve" smooth="yes"/>
      <point x="1405.2623333333333" y="-21.441333333333333"/>
      <point x="1510.1896666666667" y="-11.743000000000002"/>
      <point x="1631.1393333333333" y="13.513999999999996" type="curve"/>
      <point x="1631.1393333333333" y="290.57500000000005" type="line"/>
      <point x="1537.8823333333335" y="271.3403333333334"/>
      <point x="1439.2566666666667" y="258.7816666666667"/>
      <point x="1353.5136666666667" y="258.7816666666667" type="curve" smooth="yes"/>
      <point x="1109.6756666666668" y="258.7816666666667"/>
      <point x="1048.4073333333333" y="315.6533333333333"/>
      <point x="1048.4073333333333" y="482.51966666666664" type="curve" smooth="yes"/>
      <point x="1048.4073333333333" y="635.173" type="line" smooth="yes"/>
      <point x="1048.4073333333333" y="821.5476666666666"/>
      <point x="1098.698" y="882.1623333333333"/>
      <point x="1199.0613333333333" y="882.1623333333333" type="curve" smooth="yes"/>
      <point x="1298.5643333333333" y="882.1623333333333"/>
      <point x="1346.8773333333334" y="820.9666666666667"/>
      <point x="1346.8773333333334" y="633.4746666666667" type="curve"/>
      <point x="1403.1286666666667" y="652.5696666666666" type="line"/>
      <point x="986.1336666666667" y="652.5696666666666" type="line"/>
      <point x="986.1336666666667" y="442.03366666666665" type="line"/>
      <point x="1694.0443333333333" y="442.03366666666665" type="line"/>
      <point x="1694.0443333333333" y="537.6983333333334" type="line" smooth="yes"/>
      <point x="1694.0443333333333" y="911.9106666666667"/>
      <point x="1518.7930000000001" y="1115.067"/>
      <point x="1220.5696666666668" y="1115.067" type="curve" smooth="yes"/>
      <point x="920.1843333333334" y="1115.067"/>
      <point x="744.6536666666667" y="902.7263333333333"/>
      <point x="744.6536666666667" y="576.81" type="curve"/>
      <point x="686.1733333333333" y="549.743" type="line"/>
      <point x="686.1733333333333" y="151.324"/>
      <point x="870.961" y="-21.441333333333333"/>
    </contour>
    <contour>
      <point x="451.53066666666666" y="-21.162" type="curve" smooth="yes"/>
      <point x="595.972" y="-21.162"/>
      <point x="733.6703333333334" y="25.53633333333333"/>
      <point x="842.6033333333334" y="158.637" type="curve"/>
      <point x="739.9386666666667" y="326.458" type="line"/>
      <point x="676.2123333333334" y="257.4186666666667"/>
      <point x="616.944" y="236.69233333333338"/>
      <point x="547.4466666666667" y="236.69233333333338" type="curve" smooth="yes"/>
      <point x="464.87666666666667" y="236.69233333333338"/>
      <point x="421.1726666666667" y="272.39633333333336"/>
      <point x="421.1726666666667" y="336.52500000000003" type="curve" smooth="yes"/>
      <point x="421.1726666666667" y="403.838"/>
      <point x="462.4576666666667" y="449.77666666666664"/>
      <point x="573.2903333333334" y="449.77666666666664" type="curve" smooth="yes"/>
      <point x="751.447" y="449.77666666666664" type="line"/>
      <point x="751.447" y="652.5696666666666" type="line"/>
      <point x="534.4133333333333" y="652.5696666666666" type="line" smooth="yes"/>
      <point x="195.21233333333333" y="652.5696666666666"/>
      <point x="52.93866666666666" y="513.9663333333333"/>
      <point x="52.93866666666666" y="306.4356666666667" type="curve" smooth="yes"/>
      <point x="52.93866666666666" y="109.94966666666667"/>
      <point x="186.68166666666667" y="-21.162"/>
    </contour>
    <contour>
      <point x="686.1733333333333" y="549.743" type="line"/>
      <point x="990.7873333333334" y="546.9496666666666" type="line"/>
      <point x="990.7873333333334" y="639.7376666666667" type="line" smooth="yes"/>
      <point x="990.7873333333334" y="977.5866666666667"/>
      <point x="845.1616666666666" y="1114.9273333333333"/>
      <point x="498.296" y="1114.9273333333333" type="curve" smooth="yes"/>
      <point x="389.53066666666666" y="1114.9273333333333"/>
      <point x="268.78766666666667" y="1101.3686666666667"/>
      <point x="147.933" y="1069.3686666666667" type="curve"/>
      <point x="147.933" y="790.587" type="line"/>
      <point x="245.05033333333333" y="818.9836666666666"/>
      <point x="360.3743333333333" y="832.9836666666666"/>
      <point x="443.23466666666667" y="832.9836666666666" type="curve" smooth="yes"/>
      <point x="619.4693333333333" y="832.9836666666666"/>
      <point x="686.1733333333333" y="787.8886666666666"/>
      <point x="686.1733333333333" y="651.7823333333333" type="curve" smooth="yes"/>
    </contour>
  </outline>
</glyph>
<glyph name="eth" format="2">
  <advance width="1236.5858585858587"/>
  <unicode hex="00F0"/>
  <outline>
    <contour>
      <point x="618.5757575757576" y="-23.151515151515152" type="curve" smooth="yes"/>
      <point x="969.8888888888889" y="-23.151515151515152"/>
      <point x="1176.3838383838383" y="171.73737373737373"/>
      <point x="1178.1010101010102" y="613.7878787878788" type="curve" smooth="yes"/>
      <point x="1179.818181818182" y="986.5858585858585"/>
      <point x="953.8181818181819" y="1393.6868686868686"/>
      <point x="660.5151515151515" y="1616.0" type="curve"/>
      <point x="221.22222222222223" y="1616.0" type="line"/>
      <point x="479.2020202020202" y="1429.3131313131314"/>
      <point x="690.4747474747475" y="1183.8686868686868"/>
      <point x="763.6161616161617" y="934.4242424242424" type="curve"/>
      <point x="881.3131313131313" y="951.5252525252525" type="line"/>
      <point x="812.1919191919192" y="1060.4444444444443"/>
      <point x="698.2020202020202" y="1106.3030303030303"/>
      <point x="583.0909090909091" y="1106.3030303030303" type="curve" smooth="yes"/>
      <point x="271.8484848484849" y="1106.3030303030303"/>
      <point x="60.77777777777777" y="924.9797979797979"/>
      <point x="60.77777777777777" y="545.1515151515151" type="curve" smooth="yes"/>
      <point x="60.77777777777777" y="171.62626262626264"/>
      <point x="271.8484848484849" y="-23.151515151515152"/>
    </contour>
    <contour>
      <point x="618.5757575757576" y="257.49494949494954" type="curve" smooth="yes"/>
      <point x="499.020202020202" y="257.49494949494954"/>
      <point x="436.71717171717177" y="323.969696969697"/>
      <point x="436.71717171717177" y="544.7171717171717" type="curve" smooth="yes"/>
      <point x="436.71717171717177" y="765.4747474747475"/>
      <point x="500.7373737373738" y="833.3838383838383"/>
      <point x="618.2929292929293" y="833.3838383838383" type="curve" smooth="yes"/>
      <point x="735.8484848484849" y="833.3838383838383"/>
      <point x="799.8686868686868" y="765.4747474747475"/>
      <point x="799.8686868686868" y="542.1515151515151" type="curve" smooth="yes"/>
      <point x="799.8686868686868" y="326.0909090909091"/>
      <point x="737.2828282828283" y="257.49494949494954"/>
    </contour>
    <contour>
      <point x="180.5151515151515" y="1168.1515151515152" type="line"/>
      <point x="1145.080808080808" y="1344.111111111111" type="line"/>
      <point x="1105.1717171717173" y="1543.7777777777778" type="line"/>
      <point x="140.6060606060606" y="1367.8181818181818" type="line"/>
    </contour>
  </outline>
</glyph>
<glyph name="divide" format="2">
  <advance width="1108.458"/>
  <unicode hex="00F7"/>
  <outline>
    <contour>
      <point x="105.91633333333331" y="617.8773333333334" type="line"/>
      <point x="1002.5416666666667" y="617.8773333333334" type="line"/>
      <point x="1002.5416666666667" y="902.1226666666666" type="line"/>
      <point x="105.91633333333331" y="902.1226666666666" type="line"/>
    </contour>
    <contour>
      <point x="554.229" y="137.43066666666664" type="curve" smooth="yes"/>
      <point x="685.726" y="137.43066666666664"/>
      <point x="771.089" y="217.35233333333332"/>
      <point x="771.089" y="338.80466666666666" type="curve" smooth="yes"/>
      <point x="771.089" y="460.257"/>
      <point x="689.1673333333333" y="540.458"/>
      <point x="554.229" y="540.458" type="curve" smooth="yes"/>
      <point x="419.29066666666665" y="540.458"/>
      <point x="337.36899999999997" y="463.6983333333333"/>
      <point x="337.36899999999997" y="338.80466666666666" type="curve" smooth="yes"/>
      <point x="337.36899999999997" y="213.91099999999994"/>
      <point x="422.73199999999997" y="137.43066666666664"/>
    </contour>
    <contour>
      <point x="554.229" y="979.542" type="curve" smooth="yes"/>
      <point x="685.726" y="979.542"/>
      <point x="771.089" y="1059.4636666666668"/>
      <point x="771.089" y="1180.916" type="curve" smooth="yes"/>
      <point x="771.089" y="1302.3683333333333"/>
      <point x="689.1673333333333" y="1382.5693333333334"/>
      <point x="554.229" y="1382.5693333333334" type="curve" smooth="yes"/>
      <point x="419.29066666666665" y="1382.5693333333334"/>
      <point x="337.36899999999997" y="1305.8096666666668"/>
      <point x="337.36899999999997" y="1180.916" type="curve" smooth="yes"/>
      <point x="337.36899999999997" y="1056.0223333333333"/>
      <point x="422.73199999999997" y="979.542"/>
    </contour>
  </outline>
</glyph>
<glyph name="thorn" format="2">
  <advance width="1265.0404040404042"/>
  <unicode hex="00FE"/>
  <outline>
    <contour>
      <point x="107.32323232323232" y="-440.0" type="line"/>
      <point x="481.83838383838383" y="-440.0" type="line"/>
      <point x="481.83838383838383" y="-14.737373737373739" type="line"/>
      <point x="514.3636363636364" y="-17.727272727272727"/>
      <point x="552.4444444444445" y="-20.575757575757578"/>
      <point x="590.8181818181818" y="-20.575757575757578" type="curve" smooth="yes"/>
      <point x="993.3535353535353" y="-20.575757575757578"/>
      <point x="1204.2626262626263" y="191.33333333333334"/>
      <point x="1204.2626262626263" y="569.4444444444445" type="curve" smooth="yes"/>
      <point x="1204.2626262626263" y="946.5454545454545"/>
      <point x="1006.5252525252525" y="1114.888888888889"/>
      <point x="776.5151515151515" y="1114.888888888889" type="curve" smooth="yes"/>
      <point x="655.8282828282829" y="1114.888888888889"/>
      <point x="561.8484848484849" y="1070.909090909091"/>
      <point x="499.0" y="992.1919191919192" type="curve"/>
      <point x="481.83838383838383" y="992.1919191919192" type="line"/>
      <point x="481.83838383838383" y="1616.0" type="line"/>
      <point x="107.32323232323232" y="1616.0" type="line"/>
    </contour>
    <contour>
      <point x="590.3838383838383" y="260.92929292929296" type="curve" smooth="yes"/>
      <point x="553.5858585858587" y="260.92929292929296"/>
      <point x="512.0808080808081" y="265.6363636363636"/>
      <point x="481.83838383838383" y="271.0505050505051" type="curve"/>
      <point x="481.83838383838383" y="760.969696969697" type="line"/>
      <point x="520.6363636363637" y="795.2626262626262"/>
      <point x="577.2424242424242" y="810.2020202020202"/>
      <point x="629.8484848484849" y="810.2020202020202" type="curve" smooth="yes"/>
      <point x="750.5858585858585" y="810.2020202020202"/>
      <point x="828.3232323232323" y="750.7070707070707"/>
      <point x="828.3232323232323" y="540.8383838383838" type="curve" smooth="yes"/>
      <point x="828.3232323232323" y="337.6666666666667"/>
      <point x="749.4444444444445" y="260.92929292929296"/>
    </contour>
  </outline>
</glyph>
